<svg width="150" height="24" xmlns="http://www.w3.org/2000/svg"><g fill="none" fill-rule="evenodd"><path d="M11.418 0a.885.885 0 0 0-.41.102L5.744 2.863.483 5.626a.9.9 0 0 0-.483.8V17.47c0 .337.186.647.483.803l5.262 2.761 5.262 2.761a.89.89 0 0 0 .822 0l5.262-2.761 5.26-2.761a.905.905 0 0 0 .482-.803V6.426a.9.9 0 0 0-.482-.8l-5.26-2.763L11.83.102A.889.889 0 0 0 11.418 0" fill="#A8393B" fill-rule="nonzero"/><path d="M11.441 14.197v-1.219a.265.265 0 0 0-.263-.266H5.891c-.218 0-.27-.127-.114-.282l3.137-3.134a.41.41 0 0 1 .275-.104.39.39 0 0 1 .3.134l5.071 4.953a.752.752 0 0 0 .454.184h4.996c.219 0 .269-.124.112-.279l-8.075-7.878c-.223-.235-.593-.389-1.012-.389-.392 0-.742.137-.97.346L3.02 13.314c-.243.22-.397.35-.397.715v.216c0 .122.083.219.182.219h8.374c.145 0 .263-.12.263-.267" fill="#FFF"/><path d="M105.24 9.885a.695.695 0 0 1 .64-.432h.053c.02 0 .043-.003.067-.003l.03.001c.035.002.07.002.108.002 1.264 0 2.295-.965 2.295-2.154 0-1.187-1.03-2.153-2.295-2.153a2.61 2.61 0 0 0-.116.003h-.034a.7.7 0 0 1-.121-.01l-11.496.047-.856-.002v10.072h4.329V6.59c0-.387.31-.699.69-.699h3.903c.054-.005.106-.007.157-.007 1.01 0 1.831.833 1.831 1.857 0 .99-.782 1.814-1.75 1.855-.019.003-.037.003-.056.003h-2.175v.26l5.405 5.399h4.159l-4.614-4.609a.71.71 0 0 1-.155-.764" fill="#FFF" fill-rule="nonzero"/><path d="M105.867 4.44h-.003l-11.494.046-.853-.003a.683.683 0 0 0-.49.204.703.703 0 0 0-.203.496v10.072c0 .386.31.7.691.7h4.329a.695.695 0 0 0 .69-.7V6.59h3.902c.022 0 .042-.001.06-.003.034-.003.066-.003.098-.003.628 0 1.14.517 1.14 1.157 0 .613-.488 1.132-1.09 1.158l-2.2.002a.695.695 0 0 0-.692.698v.261c0 .187.073.366.205.498l5.405 5.397c.13.13.304.202.487.202h4.159c.28 0 .532-.172.64-.434a.709.709 0 0 0-.154-.763l-4.616-4.607h.054a.733.733 0 0 0 .07-.004c.042.003.089.004.137.004 1.645 0 2.983-1.28 2.983-2.853 0-1.572-1.338-2.852-2.983-2.852-.052 0-.102 0-.149.004a.577.577 0 0 0-.123-.012M122.332 5.2l-.394-.015h-6.21l-.295.008c-2.475.14-4.216 2.222-4.216 5.067 0 2.897 1.898 4.998 4.512 4.998h6.222c2.621 0 4.524-2.1 4.524-4.993 0-2.795-1.703-4.88-4.143-5.066zm-.438 7.132c0 1.198-1.024 2.173-2.28 2.173h-1.547c-1.257 0-2.281-.975-2.281-2.173V8.11c0-1.198 1.024-2.172 2.28-2.172h1.547c1.258 0 2.28.974 2.28 2.172v4.222z" fill="#FFF" fill-rule="nonzero"/><path d="M121.938 4.486h-6.21l-.316.008c-2.882.162-4.884 2.532-4.884 5.766 0 3.302 2.186 5.698 5.2 5.698h6.224c3.021 0 5.215-2.395 5.215-5.693 0-3.175-1.968-5.546-4.784-5.762l-.418-.017h-.027zm-3.871 9.32c-.878 0-1.59-.661-1.59-1.473V8.11c0-.812.712-1.474 1.59-1.474h1.546c.876 0 1.59.662 1.59 1.474v4.223c0 .812-.714 1.473-1.59 1.473h-1.546zM141.565 11.779a.091.091 0 0 1-.004-.004l-5.153-3.492a.694.694 0 0 1-.136-.118 1.126 1.126 0 0 1-.284-.746c0-.637.506-1.28 1.644-1.28h4.84v-.937l-9.658-.018c-1.968 0-3.695.993-3.695 2.124 0 .657.574 1.14.918 1.37l.004.003.002.001 5.153 3.489c.049.033.096.074.134.12.187.215.285.472.285.743 0 .637-.51 1.282-1.648 1.282h-4.855v.935l9.673.019c1.969 0 3.696-.992 3.696-2.123 0-.658-.573-1.14-.916-1.368" fill="#FFF" fill-rule="nonzero"/><path d="M132.815 4.486c-2.42 0-4.387 1.265-4.387 2.82 0 .731.437 1.424 1.228 1.954l.002.001 5.154 3.49a.436.436 0 0 1 .111.283c0 .36-.365.583-.956.583h-4.855a.696.696 0 0 0-.693.699v.935c0 .385.311.698.691.698l9.675.02c2.42 0 4.387-1.266 4.387-2.82 0-.731-.436-1.424-1.225-1.953l-5.156-3.492a.43.43 0 0 1-.116-.284c0-.359.366-.582.956-.582h4.84c.382 0 .691-.313.691-.699v-.935a.696.696 0 0 0-.69-.7l-9.657-.018zM86.26 5.2l-.394-.015h-6.21l-.295.008c-2.477.14-4.218 2.222-4.218 5.067 0 2.897 1.897 4.998 4.512 4.998h6.223c2.62 0 4.524-2.1 4.524-4.993 0-2.795-1.705-4.88-4.142-5.066zm-.44 7.132c0 1.198-1.022 2.173-2.28 2.173h-1.547c-1.258 0-2.28-.975-2.28-2.173V8.11c0-1.198 1.022-2.172 2.28-2.172h1.547c1.258 0 2.28.974 2.28 2.172v4.222z" fill="#FFF" fill-rule="nonzero"/><path d="M85.866 4.486h-6.21l-.315.008c-2.885.162-4.889 2.532-4.889 5.766 0 3.302 2.19 5.698 5.203 5.698h6.224c3.02 0 5.213-2.395 5.213-5.693 0-3.175-1.965-5.546-4.781-5.762l-.42-.017h-.025zm-3.872 9.32c-.878 0-1.59-.661-1.59-1.473V8.11c0-.812.712-1.474 1.59-1.474h1.547c.876 0 1.588.662 1.588 1.474v4.223c0 .812-.712 1.473-1.588 1.473h-1.547zM37.939 4.486c-.508 0-.981.17-1.3.464l-.034.03-9.427 9.437a1.604 1.604 0 0 0-.402.568.717.717 0 0 0 .06.66.691.691 0 0 0 .576.313h10.382c.38 0 .691-.314.691-.7v-.954a.696.696 0 0 0-.69-.699h-7.292l4.589-4.584a.545.545 0 0 1 .369-.14c.152 0 .297.06.394.17.009.008.018.018.03.027l6.841 6.683c.13.127.301.196.482.196h5.599a.692.692 0 0 0 .64-.438.704.704 0 0 0-.16-.764l-9.99-9.747c-.312-.326-.813-.522-1.358-.522M73.868 5.725v-.54H60.191v.54h4.059c.381 0 .693.313.693.698v8.835h4.174V6.423c0-.385.309-.697.692-.697h4.06z" fill="#FFF" fill-rule="nonzero"/><path d="M73.868 4.486H60.191a.694.694 0 0 0-.691.699v.54c0 .387.308.698.69.698h4.06v8.835c0 .386.31.7.693.7h4.174a.696.696 0 0 0 .692-.7V6.423h4.06c.38 0 .689-.312.689-.697v-.541a.694.694 0 0 0-.69-.7M54.27 4.486h-4.403a.696.696 0 0 0-.692.699v5.96c.02 2.655 2.83 4.812 6.264 4.812h.12a.417.417 0 0 0 .04 0h6.9a.696.696 0 0 0 .691-.699v-.938a.696.696 0 0 0-.691-.698h-5.632c-1.082-.061-1.9-.754-1.9-1.607V6.402a.647.647 0 0 0-.008-.103V5.185a.695.695 0 0 0-.69-.7M147.054 4.508v.28h-.937v2.05h-.309v-2.05h-.936v-.28zM147.544 4.508l.986 1.554.99-1.554h.286v2.33h-.312V5.103l-.967 1.505-.957-1.508v1.74h-.31v-2.33z" fill="#FFF" fill-rule="nonzero"/></g></svg>