<svg xmlns="http://www.w3.org/2000/svg" xmlns:xlink="http://www.w3.org/1999/xlink" width="158" height="38" viewBox="0 0 158 38"><defs><path id="km0na" d="M133.88 42.7h2.19c.54.03 1.06-.18 1.45-.58.38-.4.58-.95.55-1.51 0-1.24-.8-2.06-2-2.06h-2.19zm-1.44 7.3c-.39.01-.76-.15-1.04-.44-.27-.29-.41-.69-.4-1.1V37.54c-.01-.42.14-.81.41-1.1.28-.3.66-.45 1.05-.44h3.59c2.97 0 4.95 1.85 4.95 4.6 0 2.77-2.04 4.64-4.95 4.64h-2.17v3.22c.01.41-.13.8-.4 1.1-.28.3-.65.45-1.04.44z"/><path id="km0nb" d="M148.03 42.67h2.3a1.98 1.98 0 0 0 2.1-2.08c0-1.23-.85-2.05-2.1-2.05h-2.3zm6.57 7.28c-.57.01-1.1-.28-1.38-.77l-2.65-3.98h-2.55v3.22a1.5 1.5 0 1 1-3.02 0V37.53a1.48 1.48 0 0 1 1.54-1.53h3.77c3.12 0 5.2 1.84 5.2 4.57a4.36 4.36 0 0 1-1.79 3.62l-.3.21 2.12 2.99c.28.35.44.78.46 1.23a1.4 1.4 0 0 1-1.4 1.33z"/><path id="km0nc" d="M165.5 38.67a4.16 4.16 0 0 0-4.36 4.33 4.13 4.13 0 0 0 4.36 4.33c2.6 0 4.36-1.78 4.36-4.33a4.18 4.18 0 0 0-4.36-4.33zM165.48 50c-4.2 0-7.48-3.07-7.48-7s3.29-7 7.48-7 7.52 3.07 7.52 7-3.3 7-7.52 7z"/><path id="km0nd" d="M181 50a1.48 1.48 0 0 1-1.5-1.53v-9.81h-3.18c-.73 0-1.32-.6-1.32-1.33 0-.74.59-1.33 1.32-1.33h9.36c.73 0 1.32.6 1.32 1.33 0 .73-.59 1.33-1.32 1.33h-3.17v9.8c.01.41-.14.81-.43 1.1-.29.3-.68.45-1.09.44z"/><path id="km0ne" d="M195.5 38.67a4.16 4.16 0 0 0-4.36 4.33 4.13 4.13 0 0 0 4.36 4.33c2.6 0 4.36-1.78 4.36-4.33a4.18 4.18 0 0 0-4.36-4.33zM195.48 50c-4.2 0-7.48-3.07-7.48-7s3.29-7 7.48-7 7.52 3.07 7.52 7-3.31 7-7.52 7z"/><path id="km0nf" d="M207.47 50a1.4 1.4 0 0 1-1.06-.43c-.28-.3-.43-.7-.4-1.1V37.53c-.02-.42.13-.81.41-1.1.28-.3.67-.45 1.07-.44h6.22c.71 0 1.29.6 1.29 1.33a1.3 1.3 0 0 1-1.29 1.33h-4.77v3.5h3.65c.72 0 1.3.6 1.3 1.34a1.3 1.3 0 0 1-1.3 1.32h-3.65v3.65c.02.4-.13.8-.41 1.1-.28.29-.66.44-1.06.43z"/><path id="km0ng" d="M220.5 50c-.4.01-.8-.14-1.08-.42a1.42 1.42 0 0 1-.42-1.08V37.55c-.02-.54.26-1.06.73-1.34a1.51 1.51 0 0 1 1.54 0c.47.28.75.8.73 1.34V48.5c.02.4-.13.8-.41 1.08-.29.29-.68.44-1.09.43z"/><path id="km0nh" d="M229.03 42.67h2.3a1.99 1.99 0 0 0 2.1-2.08c0-1.23-.84-2.05-2.1-2.05h-2.3zm6.58 7.28c-.56.01-1.1-.28-1.37-.77l-2.66-3.98h-2.55v3.22a1.5 1.5 0 0 1-2.3 1.37 1.5 1.5 0 0 1-.73-1.37V37.53a1.48 1.48 0 0 1 1.54-1.53h3.77c3.12 0 5.2 1.84 5.2 4.57a4.36 4.36 0 0 1-1.8 3.61l-.29.22 2.12 2.99c.28.35.44.78.46 1.23a1.4 1.4 0 0 1-1.39 1.33z"/><path id="km0ni" d="M241.58 50a1.53 1.53 0 0 1-1.58-1.57V37.57a1.5 1.5 0 0 1 1.58-1.57h6.79c.75 0 1.36.6 1.36 1.35 0 .75-.61 1.36-1.36 1.36h-5.28v2.8h3.5c.69 0 1.24.54 1.24 1.22 0 .68-.55 1.23-1.24 1.23h-3.5v3.33h5.55c.75 0 1.36.6 1.36 1.35 0 .75-.61 1.35-1.36 1.35z"/><path id="km0nj" d="M94.46 61.51a4.5 4.5 0 1 1 4.08-8.02 4.5 4.5 0 0 1-4.08 8.02z"/><path id="km0nk" d="M93.58 31.23a13.2 13.2 0 0 0 2.77 16.04c.5.46 1.28.45 1.76-.01a6.5 6.5 0 0 0 1.55-7.19 6.5 6.5 0 0 1 1.65-7.45 7.07 7.07 0 0 1 7.8-1.07 6.6 6.6 0 0 1 3.73 6.72 6.74 6.74 0 0 1-5.25 5.69 6.75 6.75 0 0 0-5.1 5.44c-.1.65.35 1.26 1.03 1.38 6.85 1.2 13.57-2.66 15.76-9.04 2.2-6.4-.8-13.37-7.03-16.37-6.72-3.22-15.21-.55-18.67 5.86z"/><linearGradient id="km0nl" x1="99.71" x2="112.28" y1="49.53" y2="25.44" gradientUnits="userSpaceOnUse"><stop offset=".01" stop-color="#f54703"/><stop offset="1" stop-color="#fac902"/></linearGradient></defs><g><g transform="translate(-92 -24)"><g><use fill="#131f3e" xlink:href="#km0na"/></g><g><use fill="#131f3e" xlink:href="#km0nb"/></g><g><use fill="#131f3e" xlink:href="#km0nc"/></g><g><use fill="#131f3e" xlink:href="#km0nd"/></g><g><use fill="#131f3e" xlink:href="#km0ne"/></g><g><use fill="#131f3e" xlink:href="#km0nf"/></g><g><use fill="#131f3e" xlink:href="#km0ng"/></g><g><use fill="#131f3e" xlink:href="#km0nh"/></g><g><use fill="#131f3e" xlink:href="#km0ni"/></g><g><use fill="#f54703" xlink:href="#km0nj"/></g><g><use fill="url(#km0nl)" xlink:href="#km0nk"/></g></g></g></svg>