<svg width="181" height="36" viewBox="0 0 181 36" fill="none" xmlns="http://www.w3.org/2000/svg">
    <path d="M20.2406 16.8071L22.773 12.4677L29.599 23.2038L29.6022 25.2642L29.5799 11.0861C29.5638 10.7394 29.3815 10.4222 29.0908 10.2352L16.8015 3.09693C16.5142 2.95422 16.1495 2.95593 15.8626 3.10142C15.8238 3.12114 15.7875 3.14235 15.7527 3.16571L15.7098 3.19292L3.78098 10.1735L3.73473 10.1949C3.67511 10.2223 3.61506 10.2577 3.5584 10.2984C3.33221 10.4621 3.18199 10.7044 3.1334 10.9759C3.12618 11.0171 3.12067 11.0591 3.11833 11.1015L3.137 22.6552L9.49512 12.7038C10.2955 11.3843 12.0396 10.959 13.6588 10.9824L15.5589 11.0329L4.36258 29.1653L5.68237 29.9326L17.0128 11.0513L22.021 11.0329L10.7199 30.3907L15.4293 33.1263L15.992 33.4528C16.2301 33.5505 16.5106 33.5555 16.7506 33.4678L29.2126 26.1749L26.83 27.5691L20.2406 16.8071ZM21.2067 30.8601L16.4501 23.321L19.3539 18.3452L25.6008 28.2885L21.2067 30.8601Z" fill="#2D374B"/>
    <path d="M16.4499 23.3212L21.2067 30.8601L25.6006 28.2886L19.3537 18.3453L16.4499 23.3212Z" fill="#28A0F0"/>
    <path d="M29.6022 25.2644L29.599 23.204L22.773 12.4679L20.2406 16.8073L26.8302 27.5694L29.2128 26.1751C29.4464 25.9835 29.588 25.7022 29.6028 25.3988L29.6022 25.2644Z" fill="#28A0F0"/>
    <path d="M0.997971 27.2074L4.36259 29.1652L15.5589 11.0329L13.6588 10.9823C12.0399 10.9592 10.2957 11.3843 9.49512 12.7038L3.13701 22.6552L0.997971 25.9741V27.2074Z" fill="white"/>
    <path d="M22.021 11.033L17.0128 11.0514L5.68237 29.9326L9.6428 32.2352L10.7196 30.3907L22.021 11.033Z" fill="white"/>
    <path d="M31.7126 11.0068C31.6708 9.94912 31.1036 8.98104 30.2154 8.41729L17.765 1.1869C16.8864 0.740141 15.7887 0.739498 14.9084 1.18668C14.8044 1.23961 2.80069 8.26987 2.80069 8.26987C2.63455 8.35023 2.47456 8.44601 2.32413 8.55486C1.53119 9.12889 1.04783 10.0207 0.997971 11.0003V25.9743L3.13701 22.6555L3.11833 11.1015C3.12088 11.0593 3.12618 11.0175 3.1334 10.9766C3.18178 10.7046 3.33222 10.4623 3.5584 10.2984C3.61506 10.2577 15.8235 3.12113 15.8624 3.10142C16.1495 2.95593 16.514 2.95421 16.8013 3.09692L29.0906 10.2352C29.3813 10.4222 29.5636 10.7394 29.5797 11.0861V25.3983C29.5648 25.7018 29.446 25.9831 29.2124 26.1747L26.8298 27.5689L25.6004 28.2885L21.2065 30.8599L16.7504 33.4676C16.5104 33.5553 16.2297 33.5503 15.9918 33.4526L10.7196 30.3905L9.64259 32.2349L14.3807 34.9896C14.5373 35.0796 14.6769 35.1593 14.7915 35.2244C14.9689 35.3249 15.0898 35.392 15.1325 35.413C15.4692 35.5782 15.9536 35.6742 16.3903 35.6742C16.7905 35.6742 17.1809 35.6001 17.5503 35.4539L30.4934 27.8848C31.2362 27.3034 31.6733 26.4269 31.7126 25.4774V11.0068Z" fill="#96BEDC"/>
    <path d="M45.0838 12.9484C45.4569 12.9484 45.7709 13.0253 46.0261 13.1789C46.2814 13.3328 46.5318 13.6325 46.7775 14.0789L51.6529 23.0181C51.7017 23.1173 51.7142 23.1991 51.6898 23.2636C51.6654 23.3284 51.5941 23.3603 51.4763 23.3603H49.6057C49.4387 23.3603 49.326 23.2958 49.2666 23.167L48.221 21.2482H41.2984L40.2819 23.167C40.2131 23.296 40.1005 23.3603 39.9432 23.3603H38.0287C37.9005 23.3603 37.8248 23.3284 37.8004 23.2636C37.7755 23.1991 37.7879 23.1173 37.8369 23.0181L42.6683 14.0789C42.9136 13.6325 43.1544 13.3328 43.3902 13.1789C43.6255 13.0253 43.9003 12.9484 44.2149 12.9484H45.0838ZM42.2263 19.5227H47.2931L44.9512 15.1646C44.9117 15.0954 44.8576 15.0604 44.7891 15.0604H44.7008C44.6321 15.0604 44.5778 15.0954 44.5387 15.1646L42.2263 19.5227Z" fill="#2D364D"/>
    <path d="M67.1195 12.9483C68.2487 12.9483 69.059 13.2063 69.55 13.7219C70.0408 14.2374 70.2865 15.0011 70.2865 16.0122V16.8601C70.2865 17.7129 70.1144 18.3872 69.7709 18.8828C69.427 19.3786 68.867 19.696 68.0917 19.8346L70.6105 22.988C70.6593 23.0378 70.674 23.1121 70.6545 23.2111C70.6345 23.3103 70.5562 23.3598 70.4191 23.3598H68.519C68.3913 23.3598 68.3026 23.345 68.2538 23.3152C68.2046 23.2855 68.1555 23.236 68.1067 23.1665L65.7793 20.0729H61.0217V23.0326C61.0217 23.251 60.9135 23.3598 60.6977 23.3598H59.1071C58.8814 23.3598 58.7681 23.2507 58.7681 23.0326V13.3944C58.7681 13.0968 58.9155 12.9481 59.2103 12.9481H67.1195V12.9483ZM61.0217 18.2584H66.6632C67.1638 18.2584 67.5173 18.1494 67.7233 17.9312C67.9298 17.7131 68.0329 17.381 68.0329 16.9347V16.31C68.0329 15.8639 67.9298 15.5316 67.7233 15.3135C67.5173 15.0956 67.1638 14.9865 66.6632 14.9865H61.2131C61.0853 14.9865 61.0217 15.0458 61.0217 15.165V18.2584Z" fill="#2D364D"/>
    <path d="M86.7578 12.9483C87.7695 12.9483 88.4884 13.1517 88.9157 13.5584C89.343 13.9651 89.5565 14.5798 89.5565 15.4026V16.1166C89.5565 16.9497 89.2425 17.5792 88.6142 18.0054C89.2913 18.4022 89.6303 19.0418 89.6303 19.9242V20.7868C89.6303 21.1837 89.586 21.5406 89.4977 21.8578C89.4094 22.1751 89.2643 22.4451 89.0634 22.6684C88.862 22.8914 88.5942 23.0624 88.2607 23.1815C87.9267 23.3007 87.5142 23.36 87.0232 23.36H78.2744C77.9797 23.36 77.8322 23.2113 77.8322 22.9139V13.3944C77.8322 13.0968 77.9797 12.9481 78.2744 12.9481H86.7578V12.9483ZM80.0856 17.2766H86.1246C86.6156 17.2766 86.9494 17.2023 87.1263 17.0536C87.3029 16.9049 87.3916 16.6867 87.3916 16.399V15.8935C87.3916 15.586 87.3054 15.3606 87.1338 15.2166C86.9617 15.0731 86.6846 15.0011 86.3016 15.0011H80.277C80.1493 15.0011 80.0856 15.0658 80.0856 15.1943V17.2766ZM80.0856 18.8978V21.1142C80.0856 21.2432 80.1495 21.3075 80.277 21.3075H86.316C86.709 21.3075 86.9886 21.2355 87.1556 21.0917C87.3226 20.9482 87.406 20.7176 87.406 20.4001V19.8346C87.406 19.5273 87.3152 19.2944 87.1338 19.1357C86.9519 18.9771 86.6158 18.8976 86.1246 18.8976H80.0856V18.8978Z" fill="#2D364D"/>
    <path d="M98.9788 12.9484C99.1948 12.9484 99.3028 13.0576 99.3028 13.2756V23.0329C99.3028 23.2512 99.1946 23.3601 98.9788 23.3601H97.3878C97.1621 23.3601 97.0492 23.251 97.0492 23.0329V13.2756C97.0492 13.0574 97.1619 12.9484 97.3878 12.9484H98.9788Z" fill="#2D364D"/>
    <path d="M118.268 12.9484C118.493 12.9484 118.607 13.0576 118.607 13.2756V14.7333C118.607 14.9615 118.494 15.0754 118.268 15.0754H113.643V23.0331C113.643 23.2514 113.534 23.3603 113.319 23.3603H111.713C111.497 23.3603 111.39 23.2512 111.39 23.0331V15.0754H106.765C106.539 15.0754 106.426 14.9617 106.426 14.7333V13.2756C106.426 13.0574 106.538 12.9484 106.765 12.9484H118.268Z" fill="#2D364D"/>
    <path d="M134.066 12.9483C135.195 12.9483 136.005 13.2063 136.496 13.7219C136.987 14.2374 137.233 15.0011 137.233 16.0122V16.8601C137.233 17.7129 137.061 18.3872 136.717 18.8828C136.373 19.3786 135.813 19.696 135.038 19.8346L137.557 22.988C137.606 23.0378 137.62 23.1121 137.601 23.2111C137.581 23.3103 137.503 23.3598 137.366 23.3598H135.465C135.338 23.3598 135.249 23.345 135.2 23.3152C135.151 23.2855 135.102 23.236 135.053 23.1665L132.726 20.0729H127.968V23.0326C127.968 23.251 127.86 23.3598 127.644 23.3598H126.054C125.828 23.3598 125.714 23.2507 125.714 23.0326V13.3944C125.714 13.0968 125.862 12.9481 126.157 12.9481H134.066V12.9483ZM127.968 18.2584H133.61C134.11 18.2584 134.464 18.1494 134.67 17.9312C134.876 17.7131 134.979 17.381 134.979 16.9347V16.31C134.979 15.8639 134.876 15.5316 134.67 15.3135C134.464 15.0956 134.11 14.9865 133.61 14.9865H128.159C128.032 14.9865 127.968 15.0458 127.968 15.165V18.2584Z" fill="#2D364D"/>
    <path d="M146.493 12.9484C146.709 12.9484 146.817 13.0576 146.817 13.2756V19.2103C146.817 19.6071 146.849 19.9368 146.912 20.1993C146.976 20.4622 147.082 20.6703 147.229 20.8239C147.376 20.978 147.575 21.0871 147.826 21.1511C148.076 21.2158 148.393 21.2478 148.776 21.2478H152.856C153.239 21.2478 153.555 21.2158 153.806 21.1511C154.057 21.0868 154.255 20.9778 154.403 20.8239C154.55 20.6703 154.653 20.4622 154.712 20.1993C154.771 19.9366 154.8 19.6069 154.8 19.2103V13.2756C154.8 13.0574 154.908 12.9484 155.124 12.9484H156.73C156.946 12.9484 157.054 13.0576 157.054 13.2756V19.4333C157.054 20.1473 156.98 20.7547 156.833 21.2555C156.686 21.7562 156.447 22.1627 156.118 22.4751C155.789 22.7873 155.362 23.0132 154.837 23.1518C154.312 23.2906 153.676 23.3601 152.93 23.3601H148.688C147.941 23.3601 147.308 23.2908 146.788 23.1518C146.267 23.0132 145.842 22.7873 145.514 22.4751C145.185 22.1627 144.944 21.7562 144.792 21.2555C144.64 20.7547 144.564 20.1473 144.564 19.4333V13.2756C144.564 13.0574 144.676 12.9484 144.903 12.9484H146.493Z" fill="#2D364D"/>
    <path d="M167.545 12.9484C167.761 12.9484 167.947 12.9631 168.105 12.9931C168.262 13.0229 168.399 13.0799 168.517 13.1641C168.635 13.2486 168.74 13.3628 168.833 13.5063C168.927 13.6501 169.023 13.841 169.121 14.0791L172.184 21.2184C172.224 21.3078 172.293 21.3523 172.391 21.3523H172.567C172.666 21.3523 172.734 21.3078 172.774 21.2184L175.837 14.0791C175.936 13.841 176.031 13.6501 176.125 13.5063C176.218 13.3628 176.324 13.2486 176.441 13.1641C176.56 13.0799 176.694 13.0229 176.847 12.9931C176.999 12.9631 177.183 12.9484 177.399 12.9484H178.975C179.485 12.9484 179.829 13.0651 180.006 13.2981C180.183 13.5312 180.271 13.9302 180.271 14.4954V23.0331C180.271 23.2514 180.158 23.3603 179.932 23.3603H178.43C178.214 23.3603 178.106 23.2512 178.106 23.0331V15.2689C178.106 15.1699 178.067 15.1202 177.988 15.1202H177.855C177.757 15.1202 177.693 15.1601 177.664 15.2394L174.689 21.903C174.571 22.1706 174.451 22.3965 174.328 22.5797C174.205 22.7633 174.073 22.9146 173.931 23.0333C173.788 23.1524 173.626 23.2366 173.444 23.2863C173.263 23.3358 173.049 23.3607 172.804 23.3607H172.097C171.851 23.3607 171.637 23.3361 171.456 23.2863C171.274 23.2369 171.112 23.1524 170.97 23.0333C170.827 22.9144 170.695 22.7633 170.572 22.5797C170.449 22.3965 170.329 22.1706 170.211 21.903L167.236 15.2394C167.206 15.1601 167.143 15.1202 167.045 15.1202H166.912C166.833 15.1202 166.794 15.1699 166.794 15.2689V23.0331C166.794 23.2514 166.686 23.3603 166.47 23.3603H164.968C164.742 23.3603 164.629 23.2512 164.629 23.0331V14.4954C164.629 13.9302 164.717 13.5312 164.894 13.2981C165.071 13.0651 165.419 12.9484 165.94 12.9484H167.545Z" fill="#2D364D"/>
</svg>
