<svg width="126" height="71" viewBox="0 0 126 71" fill="none" xmlns="http://www.w3.org/2000/svg">
<path d="M125.525 7.81249C125.631 7.55736 125.51 7.26489 125.255 7.15923C125 7.05358 124.707 7.17475 124.602 7.42988L125.525 7.81249ZM1.05744 66.012C0.814221 66.1427 0.723056 66.4459 0.853819 66.6891L2.98472 70.6526C3.11548 70.8958 3.41865 70.987 3.66187 70.8562C3.90509 70.7255 3.99625 70.4223 3.86549 70.1791L1.97136 66.656L5.49447 64.7618C5.73768 64.6311 5.82885 64.3279 5.69809 64.0847C5.56732 63.8415 5.26415 63.7503 5.02093 63.8811L1.05744 66.012ZM1.15022 66.9312C2.49509 67.3356 3.85356 67.6761 5.221 67.9549L5.42076 66.975C4.08247 66.7022 2.75345 66.369 1.43819 65.9735L1.15022 66.9312ZM13.5465 68.906C16.3485 68.9855 19.1494 68.8305 21.9113 68.4589L21.778 67.4679C19.0681 67.8324 16.3212 67.9843 13.5748 67.9064L13.5465 68.906ZM30.097 66.6963C32.7946 65.8911 35.4127 64.8794 37.9109 63.6796L37.478 62.7781C35.0276 63.9549 32.4587 64.9478 29.811 65.738L30.097 66.6963ZM45.1394 59.4408C47.4549 57.8036 49.5951 55.9805 51.513 53.9926L50.7933 53.2983C48.9213 55.2387 46.8292 57.0213 44.5621 58.6243L45.1394 59.4408ZM56.6688 47.367C58.1411 44.9633 59.319 42.4037 60.1484 39.7127L59.1928 39.4182C58.3894 42.0247 57.2472 44.5082 55.8161 46.8447L56.6688 47.367ZM61.5321 31.4177C61.6165 28.7122 61.3568 25.919 60.7124 23.0584L59.7368 23.2781C60.3631 26.0582 60.6143 28.7671 60.5326 31.3865L61.5321 31.4177ZM57.975 15.1141C57.4018 13.8786 56.7555 12.6348 56.0335 11.3842L55.1675 11.8842C55.8751 13.1099 56.5076 14.3273 57.0679 15.535L57.975 15.1141ZM56.0335 11.3842C55.4052 10.2959 54.7223 9.29088 53.9945 8.36748L53.2091 8.9865C53.9068 9.87161 54.5627 10.8368 55.1675 11.8842L56.0335 11.3842ZM48.6563 3.45254C46.5139 2.05664 44.2324 1.1275 41.9537 0.639491L41.7443 1.61732C43.9026 2.07954 46.0701 2.96103 48.1104 4.29039L48.6563 3.45254ZM34.6727 0.588028C32.1994 1.11323 29.9392 2.21178 28.1331 3.84725L28.8043 4.58852C30.4668 3.08307 32.5622 2.05848 34.8804 1.56622L34.6727 0.588028ZM24.38 10.1169C23.8294 12.2485 23.7395 14.6841 24.2209 17.3933L25.2055 17.2183C24.746 14.6326 24.8377 12.3433 25.3482 10.3671L24.38 10.1169ZM26.4654 24.2693C26.9491 25.3136 27.5067 26.3866 28.1422 27.4874L29.0082 26.9874C28.3867 25.9109 27.8432 24.8645 27.3727 23.849L26.4654 24.2693ZM28.1422 27.4874C28.7954 28.6187 29.5169 29.7407 30.3018 30.847L31.1174 30.2683C30.3497 29.1864 29.6452 28.0906 29.0082 26.9874L28.1422 27.4874ZM35.4509 36.9621C37.2809 38.8183 39.2896 40.5842 41.4485 42.2213L42.0527 41.4244C39.9316 39.816 37.9589 38.0817 36.163 36.26L35.4509 36.9621ZM48.1293 46.5874C50.4366 47.8741 52.8558 49.0108 55.362 49.9641L55.7175 49.0294C53.2582 48.094 50.8829 46.978 48.6163 45.714L48.1293 46.5874ZM63.0207 52.2198C65.6113 52.7645 68.262 53.103 70.9497 53.2038L70.9872 52.2045C68.3587 52.1059 65.7643 51.7748 63.2264 51.2412L63.0207 52.2198ZM78.9357 52.7861C81.5217 52.4129 84.1194 51.8003 86.7093 50.9222L86.3882 49.9752C83.8572 50.8332 81.3192 51.4317 78.7928 51.7963L78.9357 52.7861ZM94.0185 47.6971C96.2695 46.4617 98.4989 45.0021 100.693 43.3011L100.081 42.5107C97.9266 44.1805 95.7411 45.611 93.5373 46.8204L94.0185 47.6971ZM106.63 38.0016C108.41 36.1889 110.157 34.195 111.863 32.0096L111.074 31.3943C109.391 33.5512 107.669 35.5165 105.916 37.3009L106.63 38.0016ZM116.454 25.4946C117.822 23.3491 119.157 21.061 120.453 18.6241L119.57 18.1546C118.286 20.5693 116.965 22.8346 115.611 24.9567L116.454 25.4946ZM123.932 11.5054C124.472 10.3048 125.003 9.07403 125.525 7.81249L124.602 7.42988C124.083 8.68247 123.556 9.90417 123.02 11.0955L123.932 11.5054Z" fill="#566976"/>
</svg>
