<svg xmlns="http://www.w3.org/2000/svg" width="227" height="82" viewBox="0 0 227 82" fill="none">
    <path d="M112.818 30.9493C112.894 30.9493 112.967 30.9793 113.021 31.0327C113.074 31.0861 113.104 31.1585 113.104 31.234V43.0443C113.104 48.6419 109.576 51.4009 104.924 51.4009C100.273 51.4009 96.7444 48.6419 96.7444 43.0443V31.2283C96.7444 31.1528 96.7746 31.0804 96.8284 31.027C96.8821 30.9736 96.955 30.9436 97.031 30.9436H99.794C99.87 30.9436 99.9429 30.9736 99.9967 31.027C100.05 31.0804 100.081 31.1528 100.081 31.2283V42.8365C100.081 46.7428 102.133 48.2917 104.939 48.2917C107.745 48.2917 109.774 46.7428 109.774 42.8365V31.2283C109.774 31.1528 109.804 31.0804 109.858 31.027C109.912 30.9736 109.985 30.9436 110.061 30.9436L112.818 30.9493Z" fill="#101820" />
    <path d="M161.247 40.9999C161.219 46.9136 156.679 51.3951 150.754 51.3951C144.83 51.3951 140.261 46.9136 140.261 40.9999C140.261 35.0863 144.83 30.6047 150.754 30.6047C156.679 30.6047 161.219 35.0863 161.247 40.9999ZM143.557 40.9999C143.557 45.1911 146.65 48.2917 150.754 48.2917C154.859 48.2917 157.92 45.1911 157.92 40.9999C157.92 36.8088 154.827 33.7082 150.754 33.7082C146.682 33.7082 143.557 36.8088 143.557 40.9999Z" fill="#101820" />
    <path d="M189.961 51.0507H187.094C187.049 51.0493 187.005 51.0373 186.965 51.0157C186.925 50.994 186.891 50.9633 186.866 50.9261C186.841 50.8888 186.824 50.8461 186.819 50.8015C186.813 50.7568 186.818 50.7115 186.834 50.6692L194.403 31.2454C194.434 31.1667 194.488 31.099 194.558 31.0512C194.628 31.0034 194.711 30.9779 194.796 30.9778H198.376C198.461 30.9775 198.544 31.0029 198.614 31.0507C198.684 31.0985 198.738 31.1664 198.768 31.2454L206.344 50.6806C206.359 50.7229 206.364 50.7682 206.358 50.8129C206.353 50.8575 206.337 50.9002 206.311 50.9375C206.286 50.9747 206.252 51.0054 206.212 51.0271C206.172 51.0487 206.128 51.0607 206.083 51.0621H203.211C203.154 51.0613 203.098 51.0436 203.051 51.0111C203.004 50.9786 202.968 50.9329 202.947 50.8799L196.842 34.887C196.82 34.8365 196.783 34.7935 196.736 34.7634C196.69 34.7332 196.636 34.7172 196.58 34.7172C196.524 34.7172 196.47 34.7332 196.423 34.7634C196.377 34.7935 196.34 34.8365 196.318 34.887L190.213 50.8799C190.191 50.9291 190.156 50.9712 190.111 51.0014C190.067 51.0316 190.015 51.0487 189.961 51.0507Z" fill="#101820" />
    <path d="M75.38 51.0507H72.5139C72.4686 51.0493 72.4243 51.0373 72.3846 51.0157C72.3449 50.994 72.3109 50.9633 72.2855 50.9261C72.26 50.8888 72.2438 50.8461 72.2382 50.8015C72.2325 50.7568 72.2376 50.7115 72.2531 50.6692L79.8226 31.2454C79.8529 31.1664 79.9067 31.0985 79.9769 31.0507C80.047 31.0029 80.1302 30.9775 80.2153 30.9778H83.7951C83.8801 30.9779 83.9631 31.0034 84.0331 31.0512C84.1032 31.099 84.1571 31.1667 84.1878 31.2454L91.7516 50.6806C91.767 50.7229 91.7721 50.7682 91.7665 50.8129C91.7608 50.8575 91.7446 50.9002 91.7192 50.9375C91.6937 50.9747 91.6597 51.0054 91.62 51.0271C91.5803 51.0487 91.536 51.0607 91.4907 51.0621H88.6246C88.5673 51.0613 88.5116 51.0436 88.4646 51.0111C88.4176 50.9786 88.3815 50.9329 88.3609 50.8799L82.2588 34.8756C82.2364 34.8251 82.1997 34.7822 82.1531 34.752C82.1065 34.7218 82.0522 34.7058 81.9966 34.7058C81.941 34.7058 81.8866 34.7218 81.84 34.752C81.7935 34.7822 81.7568 34.8251 81.7343 34.8756L75.6294 50.8685C75.6098 50.9194 75.5758 50.9636 75.5316 50.9959C75.4874 51.0282 75.4348 51.0472 75.38 51.0507Z" fill="#101820" />
    <path d="M181.548 50.598L175.871 43.3945C179.075 42.7909 180.949 40.6413 180.949 37.3442C180.949 33.5574 178.467 30.9778 174.071 30.9778H166.16C166.048 30.9778 165.941 31.0219 165.862 31.1004C165.783 31.1789 165.739 31.2853 165.739 31.3963C165.739 32.1069 166.023 32.7884 166.529 33.2908C167.034 33.7933 167.72 34.0756 168.436 34.0756H173.735C176.389 34.0756 177.659 35.4223 177.659 37.3726C177.659 39.323 176.418 40.6982 173.735 40.6982H166.16C166.048 40.6982 165.941 40.7423 165.862 40.8208C165.783 40.8993 165.739 41.0057 165.739 41.1167V50.7717C165.739 50.8472 165.769 50.9196 165.823 50.973C165.876 51.0264 165.949 51.0564 166.025 51.0564H168.725C168.801 51.0564 168.874 51.0264 168.928 50.973C168.982 50.9196 169.012 50.8472 169.012 50.7717V43.5625H172.13L177.06 49.9545C177.322 50.2945 177.659 50.57 178.045 50.7596C178.431 50.9492 178.856 51.0479 179.287 51.0479H181.339C181.39 51.0437 181.438 51.0263 181.48 50.9974C181.521 50.9686 181.555 50.9293 181.576 50.8835C181.597 50.8378 181.606 50.7872 181.601 50.7371C181.596 50.6869 181.578 50.6389 181.548 50.598Z" fill="#101820" />
    <path d="M135.71 50.598L130.032 43.3945C133.236 42.7909 135.114 40.6413 135.114 37.3442C135.114 33.5574 132.632 30.9778 128.235 30.9778H120.321C120.21 30.9778 120.103 31.0219 120.024 31.1004C119.945 31.1789 119.9 31.2853 119.9 31.3963C119.901 32.1067 120.185 32.7877 120.691 33.29C121.197 33.7923 121.882 34.0748 122.597 34.0756H127.897C130.554 34.0756 131.823 35.4223 131.823 37.3726C131.823 39.323 130.582 40.6982 127.897 40.6982H120.321C120.21 40.6982 120.103 40.7423 120.024 40.8208C119.945 40.8993 119.9 41.0057 119.9 41.1167V50.7717C119.9 50.8472 119.93 50.9196 119.984 50.973C120.038 51.0264 120.111 51.0564 120.187 51.0564H122.89C122.966 51.0564 123.038 51.0264 123.092 50.973C123.146 50.9196 123.176 50.8472 123.176 50.7717V43.5625H126.292L131.221 49.9545C131.484 50.294 131.821 50.5692 132.207 50.7588C132.593 50.9483 133.018 51.0472 133.448 51.0479H135.501C135.551 51.0437 135.6 51.0263 135.641 50.9974C135.683 50.9686 135.716 50.9293 135.737 50.8835C135.759 50.8378 135.767 50.7872 135.762 50.7371C135.758 50.6869 135.739 50.6389 135.71 50.598Z" fill="#101820" />
    <path d="M41.2727 23.6319C42.1248 23.6292 42.9605 23.8636 43.6854 24.3084C44.4103 24.7532 44.9953 25.3908 45.3742 26.1489L58.2719 51.7739C58.6218 52.4685 58.7871 53.2404 58.7521 54.0163C58.7172 54.7922 58.4831 55.5463 58.0721 56.2071C57.6611 56.8678 57.0869 57.4132 56.4041 57.7914C55.7212 58.1696 54.9523 58.3681 54.1705 58.3681H28.375C27.5932 58.3681 26.8243 58.1696 26.1414 57.7914C25.4585 57.4132 24.8843 56.8678 24.4733 56.2071C24.0624 55.5463 23.8283 54.7922 23.7933 54.0163C23.7583 53.2404 23.9236 52.4685 24.2735 51.7739L37.1713 26.1489C37.5502 25.3908 38.1352 24.7532 38.8601 24.3084C39.5849 23.8636 40.4207 23.6292 41.2727 23.6319ZM41.2727 20.5C39.8357 20.4998 38.427 20.8972 37.2045 21.6475C35.982 22.3977 34.9939 23.4714 34.3509 24.7481L21.4532 50.3731C20.863 51.5452 20.5841 52.8477 20.6433 54.157C20.7024 55.4663 21.0975 56.7388 21.791 57.8537C22.4846 58.9686 23.4535 59.8889 24.6059 60.527C25.7582 61.1652 27.0557 61.5001 28.375 61.5H54.1705C55.4898 61.5001 56.7872 61.1652 57.9396 60.527C59.0919 59.8889 60.0609 58.9686 60.7544 57.8537C61.448 56.7388 61.8431 55.4663 61.9022 54.157C61.9613 52.8477 61.6825 51.5452 61.0922 50.3731L48.1945 24.7481C47.5516 23.4714 46.5635 22.3977 45.341 21.6475C44.1184 20.8972 42.7097 20.4998 41.2727 20.5Z" fill="#70D44B" />
</svg>