<svg width="199" height="41" viewBox="0 0 199 41" fill="none" xmlns="http://www.w3.org/2000/svg">
    <g clip-path="url(#clip0_104_93)">
        <path d="M53.8264 13.6005H55.9897L62.0431 27.4058H59.1851L57.8752 24.247H51.7821L50.5119 27.4058H47.7134L53.8264 13.6005ZM57.0019 22.1411L54.8386 16.5253L52.6355 22.1411H57.0019Z" fill="black"/>
        <path d="M64.7255 13.6005H67.6033L71.4338 24.0325L75.3832 13.6005H78.0829L72.4063 27.4058H70.2431L64.7255 13.6005Z" fill="black"/>
        <path d="M87.0198 13.6005H89.1837L95.2365 27.4058H92.3786L91.069 24.247H84.9756L83.7052 27.4058H80.9072L87.0198 13.6005ZM90.1955 22.1411L88.0323 16.5253L85.8292 22.1411H90.1955Z" fill="black"/>
        <path d="M100.768 13.6005H103.269V25.1829H109.243V27.4058H100.768V13.6005Z" fill="black"/>
        <path d="M119.574 13.6005H121.738L127.791 27.4058H124.933L123.623 24.247H117.53L116.259 27.4058H113.461L119.574 13.6005ZM122.749 22.1411L120.586 16.5253L118.383 22.1411H122.749Z" fill="black"/>
        <path d="M133.322 13.6005H136.636L143.444 23.857H143.484V13.6005H145.984V27.4058H142.809L135.862 16.8178H135.823V27.4058H133.322V13.6005Z" fill="black"/>
        <path d="M162.733 16.8373C162.217 16.2914 161.715 15.9274 161.225 15.7454C160.748 15.5634 160.265 15.4724 159.776 15.4724C159.049 15.4724 158.387 15.6024 157.791 15.8624C157.209 16.1094 156.707 16.4604 156.283 16.9154C155.859 17.3573 155.529 17.8773 155.29 18.4753C155.065 19.0733 154.953 19.7167 154.953 20.4056C154.953 21.1466 155.065 21.8291 155.29 22.4531C155.529 23.077 155.859 23.6165 156.283 24.0715C156.707 24.5265 157.209 24.884 157.791 25.144C158.387 25.4039 159.049 25.534 159.776 25.534C160.345 25.534 160.894 25.4039 161.424 25.144C161.966 24.871 162.469 24.442 162.932 23.857L164.996 25.3C164.361 26.1579 163.587 26.7819 162.673 27.1719C161.761 27.5618 160.788 27.7569 159.756 27.7569C158.671 27.7569 157.672 27.5879 156.76 27.2498C155.859 26.8989 155.079 26.4114 154.418 25.7874C153.769 25.1505 153.259 24.39 152.889 23.506C152.518 22.6221 152.333 21.6406 152.333 20.5617C152.333 19.4567 152.518 18.4557 152.889 17.5588C153.259 16.6488 153.769 15.8754 154.418 15.2384C155.079 14.6014 155.859 14.1139 156.76 13.776C157.672 13.425 158.671 13.2495 159.756 13.2495C160.709 13.2495 161.589 13.4185 162.396 13.7565C163.216 14.0814 163.977 14.6404 164.678 15.4334L162.733 16.8373Z" fill="black"/>
        <path d="M170.644 13.6005H173.144V19.0992H179.714V13.6005H182.215V27.4058H179.714V21.3221H173.144V27.4058H170.644V13.6005Z" fill="black"/>
        <path d="M189.324 13.6005H198.632V15.8234H191.825V19.2162H198.275V21.4391H191.825V25.1829H198.99V27.4058H189.324V13.6005Z" fill="black"/>
        <path fill-rule="evenodd" clip-rule="evenodd" d="M40.3109 20.505C40.3109 31.4413 31.287 40.307 20.1554 40.307C9.02391 40.307 0 31.4413 0 20.505C0 9.56866 9.02391 0.703003 20.1554 0.703003C31.287 0.703003 40.3109 9.56866 40.3109 20.505ZM14.444 28.3848H10.5324C9.7105 28.3848 9.30447 28.3848 9.05687 28.2291C8.78952 28.0588 8.62609 27.7767 8.60628 27.4654C8.59145 27.1783 8.79444 26.8281 9.20048 26.1276L18.8587 9.40216C19.2697 8.69192 19.4776 8.33683 19.7401 8.20547C20.0223 8.06444 20.359 8.06444 20.6412 8.20547C20.9037 8.33683 21.1116 8.69192 21.5226 9.40216L23.5081 12.8074L23.5183 12.8248C23.9621 13.5867 24.1872 13.9731 24.2855 14.3786C24.3944 14.8213 24.3944 15.2883 24.2855 15.731C24.1865 16.1396 23.9636 16.5288 23.513 17.3023L18.4398 26.113L18.4267 26.1356C17.9798 26.9038 17.7534 27.2931 17.4396 27.587C17.098 27.908 16.687 28.1415 16.2364 28.2729C15.8255 28.3848 15.365 28.3848 14.444 28.3848ZM24.3221 28.3852H29.9271C30.754 28.3852 31.1699 28.3852 31.4175 28.2247C31.6849 28.0544 31.8532 27.7674 31.8681 27.4561C31.8824 27.1785 31.6838 26.8418 31.2946 26.1821C31.2813 26.1595 31.2678 26.1367 31.2541 26.1134L28.4467 21.3948L28.4147 21.3417C28.0202 20.6862 27.8209 20.3553 27.5653 20.2273C27.2831 20.0862 26.9514 20.0862 26.6691 20.2273C26.4116 20.3586 26.2036 20.704 25.7927 21.3997L22.9952 26.1183L22.9856 26.1346C22.576 26.8291 22.3714 27.1761 22.3861 27.461C22.4059 27.7723 22.5693 28.0593 22.8367 28.2295C23.0793 28.3852 23.4952 28.3852 24.3221 28.3852Z" fill="black"/>
    </g>
    <defs>
        <clipPath id="clip0_104_93">
            <rect width="199" height="39.604" fill="white" transform="translate(0 0.703003)"/>
        </clipPath>
    </defs>
</svg>
