<svg xmlns="http://www.w3.org/2000/svg" width="389" height="889" viewBox="0 0 389 889">
    <g fill="none" fill-rule="evenodd" stroke="#008C73">
        <path d="M0 92.303S58.195-3.734 156.974.113C329.81 6.745 331.341 474.194 600.55 487.592c334.186 16.58 599.456-477.53 894.808-477.53C1716.87 10.061 1864 177.196 1864 177.196" transform="rotate(90 450 278)"/>
        <path d="M1861.5 205.957S1712.304 38.9 1496.275 38.9c-295.33 0-569.877 491.89-894.74 475.184C332.347 500.295 323.815 37.84 161.712 30.68 62.941 25.907 6.5 117.656 6.5 117.656" transform="rotate(90 450 278)"/>
        <path d="M1858 235.838S1706.846 68.996 1496.303 68.996c-295.308 0-579.13 489.271-894.672 472.587-269.168-14.566-284.59-470.998-436.18-479.34C66.796 56.814 12 144.075 12 144.075" transform="rotate(90 450 278)"/>
        <path d="M1853.5 264.614S1700.29 97.863 1495.242 97.863c-295.267 0-588.347 487.02-894.55 470.212-269.13-14.955-291.55-466.376-432.403-475.241C69.65 86.614 16.5 169.46 16.5 169.46" transform="rotate(90 450 278)"/>
        <path d="M1850.5 295.08s-155.252-166.553-354.925-166.553c-295.406 0-597.923 484.46-894.97 467.54-269.257-15.598-298.688-461.592-428.995-471.109C72.923 117.82 21.5 196.47 21.5 196.47" transform="rotate(90 450 278)"/>
        <path d="M1847.5 323.854s-157.32-166.739-351.506-166.739c-295.384 0-607.178 483.014-894.903 465.943-269.127-16.146-305.558-457.87-425.243-467.928C77.278 146.925 27.5 221.561 27.5 221.561" transform="rotate(90 450 278)"/>
        <path d="M1844 354.034s-159.354-166.91-348.15-166.91c-295.506 0-616.732 481.52-895.274 464.432-269.24-16.691-312.69-454.364-421.808-464.696C80.157 177.454 32 248.323 32 248.323" transform="rotate(90 450 278)"/>
        <path d="M1839.5 382.133S1678.257 215.5 1495.151 215.5c-295.156 0-625.294 478.74-894.214 461.548-268.92-17.193-319.206-449.646-417.592-460.226C84.96 206.242 38.5 273.028 38.5 273.028" transform="rotate(90 450 278)"/>
    </g>
</svg>
