<svg xmlns="http://www.w3.org/2000/svg" viewBox="0 0 1715 889">
    <g fill="none" fill-rule="evenodd">
        <path d="M0 92.303S96.784-3.734 261.062.113C548.504 6.745 551.05 474.194 998.768 487.592c555.78 16.58 996.948-477.53 1488.145-477.53 368.398 0 613.087 167.135 613.087 167.135" transform="translate(-832 33)"/>
        <path d="M3095 206.457S2846.876 39.4 2487.605 39.4c-491.155 0-947.748 491.89-1488.018 475.184C551.907 500.795 537.719 38.34 268.129 31.18 103.865 26.407 10 118.156 10 118.156" transform="translate(-832 33)"/>
        <path d="M3090 235.838S2838.623 68.996 2488.478 68.996c-491.113 0-963.127 489.271-1487.89 472.587-447.64-14.566-473.287-470.998-725.391-479.34C111.129 56.814 20 144.075 20 144.075" transform="translate(-832 33)"/>
        <path d="M3083 265.114S2828.204 98.363 2487.204 98.363c-491.04 0-978.444 487.02-1487.671 470.212C551.959 553.62 514.676 102.199 280.43 93.334 116.387 87.114 28 169.96 28 169.96" transform="translate(-832 33)"/>
        <path d="M3077 295.58s-258.131-166.553-590.118-166.553c-491.159 0-994.142 484.46-1488.029 467.54-447.682-15.598-496.616-461.592-713.272-471.109C121.498 118.32 36 196.97 36 196.97" transform="translate(-832 33)"/>
        <path d="M3072 324.354s-261.565-166.739-584.428-166.739c-491.115 0-1009.515 483.014-1487.898 465.943-447.461-16.146-508.032-457.87-707.025-467.928C128.762 147.425 46 222.061 46 222.061" transform="translate(-832 33)"/>
        <path d="M3066 354.034s-264.975-166.91-578.905-166.91c-491.369 0-1025.505 481.52-1488.665 464.432-447.692-16.691-519.941-454.364-701.384-464.696C133.075 177.454 53 248.323 53 248.323" transform="translate(-832 33)"/>
        <path d="M3060 382.633S2791.77 216 2487.168 216C1996.17 216 1446.98 694.74 999.625 677.548 552.27 660.355 468.619 227.902 304.953 217.322 141.287 206.742 64 273.528 64 273.528" transform="translate(-832 33)"/>
    </g>
</svg>
