<svg xmlns="http://www.w3.org/2000/svg" viewBox="0 0 1715 889">
    <g fill="none" fill-rule="evenodd" stroke="#008C73">
        <path d="M0 114.81S86.606-4.644 233.609.14C490.822 8.39 493.1 589.828 893.736 606.492c497.334 20.625 892.108-593.977 1331.65-593.977 329.657 0 548.614 207.892 548.614 207.892" transform="translate(-832 33)"/>
        <path d="M2770 257.234S2547.935 49.448 2226.396 49.448c-439.572 0-848.21 611.813-1331.74 591.034-400.662-17.15-413.36-592.353-654.637-601.258C93.007 33.287 9 147.404 9 147.404" transform="translate(-832 33)"/>
        <path d="M2765 293.211s-224.93-207.51-538.235-207.51c-439.442 0-861.794 608.531-1331.346 587.78C494.876 655.365 471.927 87.678 246.347 77.302 99.541 70.55 18 179.082 18 179.082" transform="translate(-832 33)"/>
        <path d="M2759 330.42s-228.023-207.74-533.193-207.74c-439.446 0-875.636 606.729-1331.357 585.79-400.546-18.63-433.911-581.01-643.543-592.055C104.1 108.667 25 211.876 25 211.876" transform="translate(-832 33)"/>
        <path d="M2753 367.503s-230.968-207.486-528.02-207.486c-439.476 0-889.53 603.521-1331.447 582.443-400.573-19.43-444.357-575.033-638.215-586.89C108.501 146.679 32 244.659 32 244.659" transform="translate(-832 33)"/>
        <path d="M2749 403.88s-234.077-207.624-523.01-207.624c-439.505 0-903.427 601.45-1331.537 580.194-400.438-20.105-454.643-570.142-632.724-582.665C115.065 183.568 41 276.505 41 276.505" transform="translate(-832 33)"/>
        <path d="M2744 440.14s-237.097-207.742-517.998-207.742c-439.671 0-917.61 599.318-1332.042 578.049C493.37 789.673 428.723 244.93 266.37 232.07 119.65 220.364 48 308.57 48 308.57" transform="translate(-832 33)"/>
        <path d="M2738 476.39S2497.971 269 2225.396 269c-439.375 0-930.824 595.835-1331.143 574.437-400.32-21.397-475.176-559.623-621.634-572.791C126.161 257.478 57 340.599 57 340.599" transform="translate(-832 33)"/>
    </g>
</svg>
