<svg width="170" height="47" viewBox="0 0 170 47" fill="none" xmlns="http://www.w3.org/2000/svg">
    <g clip-path="url(#clip0_3_238)">
        <path d="M47.435 6.19897H55.2535C57.2407 6.19897 58.698 6.7224 59.6254 7.64051C60.0473 7.99434 60.3849 8.43588 60.6139 8.93355C60.8429 9.43123 60.9578 9.97274 60.9502 10.5194C60.9719 10.9596 60.9273 11.4006 60.8178 11.8279C60.5482 12.5111 60.1428 13.1341 59.6254 13.6599C59.393 13.8784 59.1241 14.0555 58.8305 14.1834C59.7366 14.4546 60.5575 14.9501 61.2152 15.6228C61.7451 16.2771 62.0101 17.0622 62.0101 18.2399C62.0193 18.9146 61.8839 19.5835 61.6127 20.2028C61.2819 20.7724 60.8299 21.2642 60.2878 21.6443C59.6519 22.0029 58.9873 22.3092 58.3006 22.5603C57.5057 22.822 56.5783 22.822 55.651 22.822H47.561V6.19897H47.435ZM54.5911 13.0056C55.2729 13.0019 55.9475 12.8686 56.5783 12.6131C56.8217 12.4905 57.0252 12.3028 57.1658 12.0714C57.3063 11.84 57.3782 11.5743 57.3732 11.3045C57.3753 11.0502 57.3163 10.7991 57.2012 10.5716C57.086 10.3442 56.918 10.1469 56.7108 9.99593C56.4477 9.80395 56.1462 9.66962 55.8263 9.60192C55.5065 9.53423 55.1757 9.53472 54.8561 9.60337H51.1466V13.1365H54.5911V13.0056ZM55.5185 19.6794C56.2002 19.6756 56.8749 19.5423 57.5057 19.2868C57.7683 19.1603 57.9781 18.9475 58.099 18.6848C58.2199 18.422 58.2444 18.1259 58.1681 17.8474C58.1702 17.5931 58.1112 17.3419 57.996 17.1145C57.8809 16.887 57.7129 16.6898 57.5057 16.5388C56.86 16.1784 56.1275 15.9975 55.386 16.0154H51.0141V19.6794H55.5185Z" fill="#F3BA2F"/>
        <path d="M66.6491 6.19897H70.3586V22.9529H66.6491V6.19897Z" fill="#F3BA2F"/>
        <path d="M76.0553 6.19897H79.502L87.4509 16.5388V6.19897H91.1604V22.9529H87.9808L79.6345 12.3514V22.9529H76.0553V6.19897Z" fill="#F3BA2F"/>
        <path d="M102.424 6.07239H105.868L113.161 22.9572H109.315L107.725 19.1581H100.569L98.979 22.9572H95.1327L102.424 6.07239ZM106.4 16.0196L104.146 10.5321L101.894 16.0196H106.4Z" fill="#F3BA2F"/>
        <path d="M117.131 6.19897H120.576L128.527 16.5388V6.19897H132.236V22.9529H129.057L120.841 12.3514V22.9529H117.131V6.19897Z" fill="#F3BA2F"/>
        <path d="M145.752 23.2146C144.573 23.1997 143.407 22.9781 142.307 22.5603C140.223 21.6784 138.562 20.0375 137.67 17.9782C137.247 16.8918 137.023 15.7398 137.008 14.5759C137.042 12.2877 137.94 10.0946 139.525 8.42565C140.308 7.6258 141.255 7.00046 142.303 6.59154C143.434 6.12283 144.654 5.89969 145.88 5.93726C146.589 5.91561 147.299 5.95942 147.999 6.06812C148.596 6.16351 149.176 6.33964 149.724 6.59154C150.225 6.82612 150.711 7.08898 151.181 7.3788C151.655 7.68975 152.098 8.043 152.506 8.4341L150.254 11.1779C149.623 10.6555 148.959 10.1746 148.264 9.73844C147.575 9.36657 146.797 9.18572 146.012 9.21502C145.33 9.21881 144.656 9.35208 144.025 9.60759C143.394 9.84588 142.843 10.2538 142.435 10.7853C142.003 11.3021 141.643 11.8743 141.367 12.4864C141.108 13.1095 140.973 13.7759 140.969 14.4493C140.973 15.1652 141.107 15.8745 141.367 16.543C141.593 17.1804 141.957 17.7611 142.435 18.2442C142.883 18.7428 143.435 19.141 144.052 19.4118C144.669 19.6827 145.337 19.82 146.012 19.8144C146.881 19.8302 147.741 19.6513 148.529 19.291C149.246 18.8871 149.913 18.4042 150.519 17.8516L152.906 20.2133L151.581 21.524C151.081 21.8775 150.549 22.1842 149.991 22.44C149.403 22.7363 148.779 22.9563 148.134 23.0943C147.344 23.1963 146.546 23.24 145.749 23.2252L145.752 23.2146Z" fill="#F3BA2F"/>
        <path d="M157.147 6.19897H169.868V9.47251H160.724V12.8748H168.808V16.1462H160.724V19.6794H170V22.9529H157.147V6.19897Z" fill="#F3BA2F"/>
        <path d="M52.2064 39.4431C51.2936 39.4721 50.3862 39.293 49.5547 38.9197C48.7598 38.6579 47.9649 38.1345 47.17 37.4802L48.4948 36.0408C49.0247 36.5642 49.5632 36.8259 50.2192 37.2185C50.85 37.474 51.5247 37.6073 52.2064 37.6111C52.7602 37.6053 53.3048 37.4708 53.7962 37.2185C53.9697 37.1031 54.1097 36.9452 54.2026 36.7602C54.2955 36.5751 54.3381 36.3694 54.3262 36.1632C54.3458 35.9788 54.2989 35.7934 54.1937 35.6398C54.0612 35.5089 53.9287 35.2472 53.7962 35.1164L53.0013 34.7217C52.6039 34.5908 52.074 34.46 51.6765 34.3291C51.0854 34.2149 50.5081 34.0395 49.9543 33.8057C49.5161 33.6681 49.11 33.4456 48.7598 33.1514C48.4627 32.8747 48.1963 32.5677 47.9649 32.2354C47.7604 31.7837 47.6695 31.2899 47.6999 30.796C47.7237 30.3067 47.8128 29.8228 47.9649 29.3565C48.0974 28.964 48.4948 28.5714 48.7598 28.3013C49.1585 28.0059 49.6081 27.7842 50.0867 27.647C50.604 27.4964 51.1378 27.4085 51.6765 27.3853C52.4877 27.3879 53.293 27.5205 54.0612 27.7778C54.7504 28.078 55.4148 28.4308 56.0484 28.8331L54.98 30.4034C54.4801 30.0499 53.9479 29.7432 53.3902 29.4874C52.8603 29.2257 52.3218 29.2257 51.8005 29.2257C51.2866 29.2153 50.7806 29.3516 50.3431 29.6183C50.0378 29.8915 49.8478 30.2682 49.8111 30.6736C49.7902 30.9 49.837 31.1274 49.9457 31.3278C50.0782 31.4587 50.2107 31.7204 50.3431 31.8513C50.6442 32.0062 50.9571 32.1375 51.2791 32.2438C51.7549 32.4083 52.2419 32.5395 52.7364 32.6364C53.3226 32.7691 53.8983 32.944 54.4586 33.1598C54.8826 33.327 55.2833 33.5469 55.651 33.8141C55.9146 34.0869 56.1377 34.3953 56.3134 34.7301C56.4778 35.1493 56.5674 35.5935 56.5784 36.0429C56.5666 36.5334 56.4772 37.0191 56.3134 37.4823C56.0464 37.9056 55.7357 38.3003 55.386 38.66C54.9878 38.955 54.539 39.1766 54.0612 39.3143C53.3988 39.3122 52.7364 39.4431 52.2064 39.4431Z" fill="#F3BA2F"/>
        <path d="M58.8305 27.5328H61.0827L64.6619 33.0288L68.3714 27.5328H70.6236V39.3121H68.5039V30.8043L64.7944 36.3003H64.6619L60.9502 30.8043V39.3121H58.8305V27.5328Z" fill="#F3BA2F"/>
        <path d="M77.7776 27.4021H79.767L84.9338 39.1813H82.6816L81.4892 36.3025H75.9335L74.7412 39.1813H72.6215L77.7776 27.4021ZM80.8268 34.5992L78.7071 29.8884L76.7177 34.5992H80.8268Z" fill="#F3BA2F"/>
        <path d="M87.0535 27.5328H92.3549C93.0244 27.5556 93.69 27.6432 94.3421 27.7946C94.899 27.9721 95.4007 28.2874 95.7994 28.7106C96.1247 29.0599 96.3929 29.4573 96.5943 29.8883C96.7581 30.3515 96.8475 30.8372 96.8593 31.3277C96.8352 31.7742 96.7459 32.2149 96.5943 32.6363C96.4618 33.0288 96.1969 33.2905 96.0644 33.6916C95.7842 33.9849 95.4734 34.2481 95.137 34.4767C94.7657 34.7048 94.3645 34.8816 93.9447 35.0022L97.1349 39.4429H94.6071L91.6903 35.3864H89.0407V39.4429H86.921L87.0535 27.5328ZM92.2203 33.299C92.8848 33.299 93.5472 33.1681 93.9447 32.7756C94.346 32.3986 94.5834 31.8826 94.6071 31.3361C94.5834 30.7897 94.346 30.2736 93.9447 29.8967C93.3996 29.5279 92.7478 29.3441 92.0878 29.3733H89.0407V33.299H92.2203Z" fill="#F3BA2F"/>
        <path d="M102.291 29.3648H98.4491V27.5328H108.122V29.3648H104.278V39.3121H102.159L102.291 29.3648Z" fill="#F3BA2F"/>
        <path d="M120.975 39.443C120.149 39.4584 119.331 39.279 118.588 38.9196C117.131 38.2653 115.939 37.2184 115.409 35.779C115.144 34.9939 114.879 34.2066 115.011 33.4215C115.014 32.6203 115.148 31.8248 115.409 31.0661C115.695 30.3408 116.123 29.6785 116.668 29.1171C117.214 28.5557 117.867 28.1063 118.588 27.7946C119.383 27.5329 120.178 27.2712 121.108 27.2712C121.597 27.2435 122.088 27.2876 122.565 27.4021L123.757 27.7946C124.155 27.9255 124.42 28.1872 124.826 28.318C125.091 28.5798 125.488 28.8415 125.753 29.1032L124.428 30.6735C124 30.2497 123.509 29.8937 122.971 29.6182C122.391 29.3504 121.757 29.2161 121.116 29.2256C120.577 29.2489 120.042 29.3367 119.524 29.4873C119.033 29.7158 118.585 30.0256 118.2 30.4033C117.813 30.7554 117.537 31.2096 117.405 31.7119C117.252 32.2228 117.163 32.7501 117.14 33.2822C117.163 33.8143 117.252 34.3416 117.405 34.8525C117.537 35.3556 117.813 35.8105 118.2 36.1631C118.585 36.5409 119.033 36.8507 119.524 37.0791C120.005 37.3546 120.571 37.4476 121.116 37.3408C121.757 37.3503 122.391 37.2161 122.971 36.9483C123.561 36.6423 124.098 36.2446 124.561 35.7706L125.886 37.0791L124.958 37.9951C124.561 38.2568 124.296 38.5186 123.89 38.6494C123.484 38.7803 123.095 39.042 122.565 39.042C122.035 39.4346 121.497 39.4346 120.975 39.4346V39.443Z" fill="#F3BA2F"/>
        <path d="M127.997 27.5328H129.984V32.3745H135.683V27.5328H137.803V39.3121H135.683V34.3374H129.984V39.3121H127.997V27.5328Z" fill="#F3BA2F"/>
        <path d="M145.089 27.4021H147.076L152.245 39.1813H149.993L148.801 36.3025H143.245L142.053 39.1813H139.933L145.089 27.4021ZM148.004 34.5992L146.016 29.8884L144.029 34.5992H148.004Z" fill="#F3BA2F"/>
        <path d="M154.365 27.5328H156.485V39.3121H154.365V27.5328Z" fill="#F3BA2F"/>
        <path d="M159.664 27.5328H161.519L167.88 35.646V27.5328H170V39.3121H168.278L161.784 30.9351V39.3121H159.664V27.5328Z" fill="#F3BA2F"/>
        <path d="M24.116 38.5273V43.6412L19.6095 46.2584L15.2376 43.6412V38.5273L19.6095 41.1444L24.116 38.5273ZM-1.90735e-06 20.8573L4.3719 23.4766V32.244L11.9255 36.6953V41.7987L-1.90735e-06 34.8611V20.8573ZM39.2211 20.8573V34.8611L27.1631 41.7987V36.6953L34.7145 32.244V23.4766L39.2211 20.8573ZM27.1631 13.9219L31.6675 16.5391V21.6446L24.116 26.0937V34.9878L19.7419 37.6049L15.37 34.9878V26.0937L7.55361 21.6446V16.5391L12.058 13.9219L19.6095 18.3711L27.1631 13.9219ZM7.55361 25.3086L11.9255 27.9257V33.0292L7.55361 30.412V25.3086ZM31.6675 25.3086V30.412L27.2956 33.0292V27.9257L31.6675 25.3086ZM4.3719 9.47913L8.88484 12.0899L4.37831 14.7071V19.8105L0.00640825 17.1934V12.0899L4.3719 9.47913ZM34.847 9.47913L39.3535 12.0963V17.1997L34.847 19.8168V14.7071L30.4666 12.0899L34.847 9.47913ZM19.6095 9.47913L24.116 12.0963L19.6095 14.7134L15.2376 12.0963L19.6095 9.47913ZM19.6095 0.709595L31.6675 7.64712L27.2956 10.2643L19.7419 5.81301L12.0494 10.2643L7.67754 7.64712L19.6095 0.709595Z" fill="#F3BA2F"/>
    </g>
    <defs>
        <clipPath id="clip0_3_238">
            <rect width="170" height="45.5446" fill="white" transform="translate(0 0.703003)"/>
        </clipPath>
    </defs>
</svg>
