<svg xmlns="http://www.w3.org/2000/svg" width="36" height="37" viewBox="0 0 36 37">
    <g fill="none" fill-rule="evenodd">
        <path d="M0 0H36V36H0z"/>
        <g fill-rule="nonzero">
            <path fill="#7289DA" d="M22.219 21.446s-.928-1.109-1.701-2.062c3.376-.954 4.665-3.042 4.665-3.042-1.057.696-2.062 1.186-2.964 1.521-1.289.541-2.526.876-3.738 1.108-2.474.464-4.742.335-6.676-.025-1.469-.284-2.732-.67-3.789-1.109-.593-.232-1.237-.515-1.881-.876-.078-.052-.155-.077-.232-.13-.052-.025-.078-.05-.103-.05-.464-.258-.722-.439-.722-.439s1.237 2.037 4.51 3.016c-.773.98-1.726 2.114-1.726 2.114C2.165 21.292 0 17.579 0 17.579 0 9.357 3.712 2.681 3.712 2.681 7.423-.077 10.929 0 10.929 0l.258.309c-4.64 1.314-6.754 3.35-6.754 3.35s.568-.309 1.521-.721c2.758-1.212 4.95-1.521 5.851-1.624.155-.026.284-.052.439-.052 1.572-.206 3.35-.258 5.206-.051 2.45.283 5.078 1.005 7.759 2.448 0 0-2.036-1.933-6.418-3.247L19.15 0s3.532-.077 7.218 2.68c0 0 3.712 6.677 3.712 14.9 0-.026-2.166 3.685-7.862 3.866z" transform="translate(2.571 6.429)"/>
            <path fill="#FFF" d="M19.641 9.512c-1.469 0-2.629 1.263-2.629 2.835s1.186 2.835 2.63 2.835c1.469 0 2.628-1.263 2.628-2.835s-1.185-2.835-2.629-2.835zm-9.408 0c-1.47 0-2.63 1.263-2.63 2.835s1.187 2.835 2.63 2.835c1.47 0 2.63-1.263 2.63-2.835.025-1.572-1.16-2.835-2.63-2.835z" transform="translate(2.571 6.429)"/>
        </g>
    </g>
</svg>
