<svg xmlns="http://www.w3.org/2000/svg" width="53" height="53" viewBox="0 0 53 53">
    <g fill="none" fill-rule="evenodd" stroke="#E8E7E6" stroke-linecap="round" stroke-linejoin="round" stroke-width="3">
        <path d="M49 24.5C49 38.031 38.031 49 24.5 49S0 38.031 0 24.5 10.969 0 24.5 0 49 10.969 49 24.5z" transform="translate(2 2)"/>
        <path d="M38 24.5C38 38.031 31.956 49 24.5 49S11 38.031 11 24.5 17.044 0 24.5 0 38 10.969 38 24.5z" transform="translate(2 2)"/>
        <path d="M1 24.5L49 24.5" transform="translate(2 2) rotate(90 25 24.5)"/>
        <path d="M1 24.5L49 24.5M4 12.5L44.634 12M4 38.5L44.634 38" transform="translate(2 2)"/>
    </g>
</svg>
