<svg width="173" height="58" viewBox="0 0 173 58" fill="none" xmlns="http://www.w3.org/2000/svg">
    <path d="M28.1717 0C12.6162 0 0 12.9767 0 28.9768C0 44.9767 12.6162 57.9536 28.1717 57.9536C43.7271 57.9536 56.3434 44.9767 56.3434 28.9768C56.3885 12.9767 43.7724 0 28.1717 0ZM26.9055 43.2557C25.3681 44.3721 23.514 45.0233 21.6601 45.0233C18.4043 45.0233 15.4198 43.2093 13.1588 39.8604C11.124 36.6511 9.99347 32.9303 9.90304 29.1162C9.90304 28.9768 9.99347 28.8371 10.1291 28.7907L12.3449 27.7674C12.5258 27.6744 12.7066 27.7674 12.7971 27.9534C12.7971 28.0001 12.8423 28.0465 12.8423 28.0931C12.8423 31.907 13.8371 35.4883 15.6007 38.1396C17.2738 40.6513 19.4443 41.9999 21.7053 41.9999C22.9262 41.9999 24.1471 41.628 25.1421 40.9301C25.2776 40.8371 25.5036 40.8837 25.5941 41.0232C26.0463 41.628 26.4986 42.186 26.9959 42.7441C27.0412 42.8838 27.0412 43.1163 26.9055 43.2557ZM43.2297 39.8604C41.0139 43.1629 37.9842 45.0233 34.7286 45.0233C31.4727 45.0233 28.4882 43.1629 26.2272 39.8604C24.1018 36.6978 22.9262 32.5116 22.9262 28.0931C22.9262 23.9999 25.2323 20.7907 28.1264 20.7907C31.0205 20.7907 33.3268 23.9999 33.3268 28.0931C33.3719 31.6745 32.5578 35.1628 30.93 38.3255C30.8396 38.5115 30.6136 38.5582 30.4778 38.4651C30.4327 38.4651 30.4327 38.4185 30.3873 38.3721C30.116 38.0466 29.8449 37.7209 29.6186 37.3954C29.3473 36.9769 29.1213 36.6047 28.8951 36.1396C28.85 36.0465 28.85 35.9069 28.8951 35.8138C29.9353 33.3488 30.4327 30.6978 30.4327 28.0465C30.4327 26.0464 29.4377 23.7675 28.1264 23.7675C26.815 23.7675 25.8203 26.0464 25.8203 28.0465C25.8203 31.8606 26.815 35.4419 28.5786 38.093C30.2518 40.6046 32.4223 41.9535 34.6832 41.9535C36.9442 41.9535 39.1147 40.5582 40.7879 38.093C42.5515 35.4419 43.5462 31.8606 43.5462 28.0465C43.5462 24.2326 42.5515 20.6512 40.7879 18C40.2905 17.2093 39.6574 16.5116 38.9791 15.907C38.8434 15.7674 38.8434 15.5349 38.9338 15.3954C38.9791 15.3488 39.0243 15.3023 39.0696 15.3023L41.2852 14.2791C41.421 14.2325 41.5565 14.2325 41.647 14.3721C42.2348 14.9767 42.7324 15.6279 43.1846 16.2791C45.3098 19.4419 46.4856 23.6278 46.4856 28.0465C46.4856 32.4652 45.3551 36.6978 43.2297 39.8604Z" fill="#A566FF"/>
    <path d="M74.1164 35.032H69.3906C68.3111 35.032 67.4725 34.7243 66.8745 34.1093C66.291 33.4943 65.9994 32.6391 65.9994 31.5439V27.0431C65.9994 25.9329 66.291 25.0778 66.8745 24.4776C67.4725 23.8626 68.3111 23.5549 69.3906 23.5549H71.1846C72.2639 23.5549 73.1025 23.8626 73.7007 24.4776C74.2986 25.0778 74.5977 25.9329 74.5977 27.0431V29.9011C74.5977 30.1711 74.4665 30.3061 74.2039 30.3061H68.3404C68.1798 30.3061 68.0997 30.3811 68.0997 30.5312V31.4988C68.0997 32.5941 68.6321 33.1416 69.6969 33.1416H74.1164C74.3789 33.1416 74.5102 33.2767 74.5102 33.5467V34.6719C74.5102 34.912 74.3789 35.032 74.1164 35.032ZM68.3404 28.7759H72.2567C72.4024 28.7759 72.4755 28.7009 72.4755 28.5508V27.1106C72.4755 26.5405 72.3514 26.1278 72.1036 25.8729C71.8554 25.6028 71.4544 25.4678 70.9002 25.4678H69.6969C69.1425 25.4678 68.7414 25.6028 68.4936 25.8729C68.2455 26.1278 68.1216 26.5405 68.1216 27.1106V28.5508C68.1216 28.7009 68.1945 28.7759 68.3404 28.7759ZM79.1959 35.032H77.8175C77.5694 35.032 77.4456 34.9044 77.4456 34.6494V23.9375C77.4456 23.6825 77.5694 23.5549 77.8175 23.5549H79.1959C79.4438 23.5549 79.5678 23.6825 79.5678 23.9375V24.7477H79.6553C80.0054 23.9526 80.7418 23.5549 81.8651 23.5549H82.8278C83.8924 23.5549 84.7093 23.8549 85.2782 24.4551C85.847 25.0553 86.1314 25.9179 86.1314 27.0431V34.6494C86.1314 34.9044 86.0002 35.032 85.7376 35.032H84.3593C84.1112 35.032 83.9873 34.9044 83.9873 34.6494V27.1331C83.9873 26.023 83.4548 25.4678 82.3902 25.4678H81.3619C80.1658 25.4678 79.5678 26.1053 79.5678 27.3806V34.6494C79.5678 34.9044 79.4438 35.032 79.1959 35.032ZM97.0839 35.032H92.3581C91.2788 35.032 90.44 34.7243 89.842 34.1093C89.2585 33.4943 88.9669 32.6391 88.9669 31.5439V27.0431C88.9669 25.9329 89.2585 25.0778 89.842 24.4776C90.44 23.8626 91.2788 23.5549 92.3581 23.5549H94.1521C95.2314 23.5549 96.0703 23.8626 96.6682 24.4776C97.2661 25.0778 97.5652 25.9329 97.5652 27.0431V29.9011C97.5652 30.1711 97.434 30.3061 97.1714 30.3061H91.3079C91.1475 30.3061 91.0672 30.3811 91.0672 30.5312V31.4988C91.0672 32.5941 91.5995 33.1416 92.6644 33.1416H97.0839C97.3464 33.1416 97.4777 33.2767 97.4777 33.5467V34.6719C97.4777 34.912 97.3464 35.032 97.0839 35.032ZM91.3079 28.7759H95.2242C95.3701 28.7759 95.443 28.7009 95.443 28.5508V27.1106C95.443 26.5405 95.3189 26.1278 95.0711 25.8729C94.8232 25.6028 94.4219 25.4678 93.8677 25.4678H92.6644C92.1102 25.4678 91.7089 25.6028 91.4611 25.8729C91.2132 26.1278 91.0891 26.5405 91.0891 27.1106V28.5508C91.0891 28.7009 91.162 28.7759 91.3079 28.7759ZM102.163 35.032H100.785C100.537 35.032 100.413 34.9044 100.413 34.6494V23.9375C100.413 23.6825 100.537 23.5549 100.785 23.5549H102.163C102.411 23.5549 102.535 23.6825 102.535 23.9375V24.7927H102.623C102.769 24.4175 103.046 24.1175 103.454 23.8925C103.877 23.6675 104.344 23.5549 104.854 23.5549H105.664C105.912 23.5549 106.036 23.6825 106.036 23.9375V25.1077C106.036 25.3928 105.912 25.5128 105.664 25.4678H104.351C103.141 25.4678 102.535 26.1503 102.535 27.5156V34.6494C102.535 34.9044 102.411 35.032 102.163 35.032ZM112.249 34.4694H111.264C110.214 34.4694 109.404 34.1694 108.835 33.5692C108.281 32.9542 108.004 32.0914 108.004 30.9813V27.0431C108.004 25.9329 108.303 25.0778 108.901 24.4776C109.499 23.8626 110.33 23.5549 111.395 23.5549H116.296C116.559 23.5549 116.69 23.6825 116.69 23.9375V35.077C116.69 36.1723 116.384 37.0198 115.771 37.6199C115.173 38.235 114.342 38.5426 113.277 38.5426H109.164C108.916 38.5426 108.792 38.4227 108.792 38.1825V37.0123C108.792 36.7574 108.916 36.6298 109.164 36.6298H112.949C114.014 36.6298 114.546 36.0746 114.546 34.9645V33.2542H114.458C114.094 34.0643 113.357 34.4694 112.249 34.4694ZM114.546 30.6437V25.6928C114.546 25.5427 114.466 25.4678 114.305 25.4678H111.702C110.666 25.4678 110.148 26.023 110.148 27.1331V30.8687C110.148 31.9789 110.666 32.534 111.702 32.534H112.752C113.948 32.534 114.546 31.9039 114.546 30.6437ZM121.168 38.6776H120.008C119.76 38.6776 119.636 38.55 119.636 38.2951V37.1474C119.636 36.8773 119.76 36.7423 120.008 36.7423H120.512C121.401 36.7423 122.014 36.5622 122.349 36.2022C122.699 35.8421 122.991 35.2496 123.224 34.4244H122.349C122.131 34.4244 121.977 34.2968 121.89 34.0418L118.98 23.9375C118.922 23.6825 119.017 23.5549 119.264 23.5549H120.73C120.964 23.5549 121.11 23.6825 121.168 23.9375L123.553 32.7591H123.64L126.025 23.9375C126.069 23.6825 126.215 23.5549 126.463 23.5549H127.863C128.14 23.5549 128.257 23.69 128.213 23.96L125.215 34.7844C124.88 36.0447 124.406 37.0049 123.793 37.6649C123.181 38.3401 122.306 38.6776 121.168 38.6776ZM140.073 35.032H138.191C137.973 35.032 137.827 34.9044 137.754 34.6494L135.238 23.9375C135.179 23.6825 135.267 23.5549 135.5 23.5549H137.076C137.338 23.5549 137.484 23.6825 137.513 23.9375L139.11 32.444H139.263L141.189 23.9375C141.233 23.6825 141.371 23.5549 141.604 23.5549H143.048C143.296 23.5549 143.449 23.6825 143.508 23.9375L145.389 32.444H145.543L147.14 23.9375C147.184 23.6825 147.329 23.5549 147.577 23.5549H149.153C149.4 23.5549 149.488 23.6825 149.415 23.9375L146.899 34.6494C146.855 34.9044 146.709 35.032 146.462 35.032H144.58C144.347 35.032 144.201 34.9044 144.142 34.6494L142.392 26.3004H142.239L140.511 34.6494C140.467 34.9044 140.321 35.032 140.073 35.032ZM159.619 35.032H154.894C153.814 35.032 152.976 34.7243 152.378 34.1093C151.794 33.4943 151.502 32.6391 151.502 31.5439V27.0431C151.502 25.9329 151.794 25.0778 152.378 24.4776C152.976 23.8626 153.814 23.5549 154.894 23.5549H156.688C157.767 23.5549 158.606 23.8626 159.204 24.4776C159.802 25.0778 160.101 25.9329 160.101 27.0431V29.9011C160.101 30.1711 159.97 30.3061 159.707 30.3061H153.843C153.683 30.3061 153.603 30.3811 153.603 30.5312V31.4988C153.603 32.5941 154.135 33.1416 155.2 33.1416H159.619C159.882 33.1416 160.013 33.2767 160.013 33.5467V34.6719C160.013 34.912 159.882 35.032 159.619 35.032ZM153.843 28.7759H157.76C157.906 28.7759 157.979 28.7009 157.979 28.5508V27.1106C157.979 26.5405 157.855 26.1278 157.607 25.8729C157.359 25.6028 156.958 25.4678 156.403 25.4678H155.2C154.646 25.4678 154.245 25.6028 153.997 25.8729C153.749 26.1278 153.625 26.5405 153.625 27.1106V28.5508C153.625 28.7009 153.698 28.7759 153.843 28.7759ZM165.312 33.1191H168.024C169.075 33.1191 169.6 32.564 169.6 31.4538V27.0431C169.6 25.9329 169.075 25.3778 168.024 25.3778H166.865C165.669 25.3778 165.071 26.0079 165.071 27.2681V32.8716C165.071 33.0365 165.151 33.1191 165.312 33.1191ZM162.949 34.6494V19.5942C162.949 19.3392 163.073 19.2117 163.321 19.2117H164.699C164.947 19.2117 165.071 19.3392 165.071 19.5942V24.6801H165.158C165.523 23.87 166.26 23.4649 167.368 23.4649H168.331C169.41 23.4649 170.249 23.7726 170.847 24.3876C171.445 24.9878 171.744 25.8353 171.744 26.9305V31.5439C171.744 32.6391 171.445 33.4943 170.847 34.1093C170.249 34.7243 169.41 35.032 168.331 35.032H163.321C163.073 35.032 162.949 34.9044 162.949 34.6494Z" fill="black"/>
</svg>
