<svg xmlns="http://www.w3.org/2000/svg" width="384" height="382" viewBox="0 0 384 382">
    <path fill="none" fill-rule="nonzero" stroke="#17967F" d="M192 0C85.96 0 0 85.513 0 191s85.96 191 192 191 192-85.513 192-191S298.04 0 192 0zm140.524 201.423H243.43c-5.497 27.45-31.172 46.169-59.14 43.118-27.969-3.05-48.956-26.859-48.343-54.842.612-27.983 22.62-50.86 50.696-52.697 28.076-1.837 52.907 17.975 57.198 45.638h88.683a9.457 9.457 0 0 1 8.425 4.61 9.354 9.354 0 0 1 0 9.564 9.457 9.457 0 0 1-8.425 4.61z"/>
</svg>
