<svg xmlns="http://www.w3.org/2000/svg" width="76" height="76" viewBox="0 0 76 76">
    <g fill="none" fill-rule="evenodd">
        <path fill="#1C9781" d="M65.105 53.856L65.105 59.815 53.699 59.815 53.699 53.856" transform="translate(3 7)"/>
        <path stroke="#001428" stroke-linecap="round" stroke-linejoin="round" stroke-width="3" d="M65.105 53.856L65.105 59.815 53.699 59.815 53.699 53.856" transform="translate(3 7)"/>
        <path fill="#1C9781" d="M17.302 53.856L17.302 59.815 5.896 59.815 5.896 53.856" transform="translate(3 7)"/>
        <g>
            <path stroke="#001428" stroke-linecap="round" stroke-linejoin="round" stroke-width="3" d="M17.302 53.541L17.302 59.5 5.896 59.5 5.896 53.541" transform="translate(3 7) translate(0 .315)"/>
            <path fill="#1C9781" d="M67.697 53.223H3.302C1.755 53.223.5 51.968.5 50.42V2.988C.5 1.44 1.755.184 3.302.184h64.395c1.548 0 2.803 1.255 2.803 2.804V50.42c0 1.548-1.255 2.803-2.803 2.803" transform="translate(3 7) translate(0 .315)"/>
            <path stroke="#001428" stroke-linecap="round" stroke-linejoin="round" stroke-width="3" d="M67.697 53.223H3.302C1.755 53.223.5 51.968.5 50.42V2.988C.5 1.44 1.755.184 3.302.184h64.395c1.548 0 2.803 1.255 2.803 2.804V50.42c0 1.548-1.255 2.803-2.803 2.803z" transform="translate(3 7) translate(0 .315)"/>
            <g>
                <path fill="#001428" d="M26.948 15.98h1.212c-.254 2.567-1.277 4.903-2.822 6.795l-.857-.857c-.497-.497-1.303-.497-1.803 0-.496.498-.496 1.303 0 1.803l.857.857c-1.89 1.544-4.242 2.568-6.796 2.823l.003-1.2c0-.704-.574-1.28-1.278-1.28-.704 0-1.279.576-1.279 1.28v1.212c-2.568-.255-4.904-1.279-6.796-2.824l.857-.856c.497-.497.497-1.303 0-1.802-.497-.497-1.302-.497-1.803 0l-.855.857c-1.545-1.89-2.57-4.244-2.824-6.797l1.192.003c.703 0 1.278-.575 1.278-1.279 0-.703-.575-1.278-1.278-1.278H2.743c.255-2.568 1.28-4.903 2.823-6.796l.857.857c.254.253.574.371.907.371.332 0 .652-.129.906-.37.498-.499.498-1.304 0-1.804l-.855-.857c1.888-1.544 4.242-2.568 6.796-2.823l-.003 1.193c0 .704.574 1.278 1.278 1.278.703 0 1.278-.574 1.278-1.278V1.995c2.57.255 4.905 1.278 6.796 2.823l-.856.856c-.497.497-.497 1.303 0 1.802.255.255.575.371.907.371.333 0 .653-.128.907-.37l.857-.856c1.545 1.89 2.57 4.242 2.823 6.795l-1.216-.002c-.704 0-1.277.574-1.277 1.278 0 .7.573 1.287 1.277 1.287M25.76 4.406c-.01-.012-.026-.012-.037-.027C23.075 1.76 19.46.134 15.452.134S7.828 1.762 5.193 4.372c-.012.01-.025.01-.037.025-.012.011-.012.025-.025.036C2.507 7.078.883 10.698.883 14.705c0 4.005 1.627 7.623 4.236 10.257.012.012.012.026.025.038.012.011.026.011.037.025 2.645 2.621 6.264 4.248 10.271 4.248 4.007 0 7.623-1.627 10.258-4.236.012-.012.026-.012.038-.026.011-.01.011-.025.025-.037 2.62-2.646 4.25-6.264 4.25-10.269 0-4.008-1.63-7.627-4.239-10.262-.01-.012-.01-.027-.025-.037" transform="translate(3 7) translate(0 .315) translate(30 12)"/>
                <path stroke="#001428" d="M26.948 15.98h1.212c-.254 2.567-1.277 4.903-2.822 6.795l-.857-.857c-.497-.497-1.303-.497-1.803 0-.496.498-.496 1.303 0 1.803l.857.857c-1.89 1.544-4.242 2.568-6.796 2.823l.003-1.2c0-.704-.574-1.28-1.278-1.28-.704 0-1.279.576-1.279 1.28v1.212c-2.568-.255-4.904-1.279-6.796-2.824l.857-.856c.497-.497.497-1.303 0-1.802-.497-.497-1.302-.497-1.803 0l-.855.857c-1.545-1.89-2.57-4.244-2.824-6.797l1.192.003c.703 0 1.278-.575 1.278-1.279 0-.703-.575-1.278-1.278-1.278H2.743c.255-2.568 1.28-4.903 2.823-6.796l.857.857c.254.253.574.371.907.371.332 0 .652-.129.906-.37.498-.499.498-1.304 0-1.804l-.855-.857c1.888-1.544 4.242-2.568 6.796-2.823l-.003 1.193c0 .704.574 1.278 1.278 1.278.703 0 1.278-.574 1.278-1.278V1.995c2.57.255 4.905 1.278 6.796 2.823l-.856.856c-.497.497-.497 1.303 0 1.802.255.255.575.371.907.371.333 0 .653-.128.907-.37l.857-.856c1.545 1.89 2.57 4.242 2.823 6.795l-1.216-.002c-.704 0-1.277.574-1.277 1.278 0 .7.573 1.287 1.277 1.287M25.76 4.406c-.01-.012-.026-.012-.037-.027C23.075 1.76 19.46.134 15.452.134S7.828 1.762 5.193 4.372c-.012.01-.025.01-.037.025-.012.011-.012.025-.025.036C2.507 7.078.883 10.698.883 14.705c0 4.005 1.627 7.623 4.236 10.257.012.012.012.026.025.038.012.011.026.011.037.025 2.645 2.621 6.264 4.248 10.271 4.248 4.007 0 7.623-1.627 10.258-4.236.012-.012.026-.012.038-.026.011-.01.011-.025.025-.037 2.62-2.646 4.25-6.264 4.25-10.269 0-4.008-1.63-7.627-4.239-10.262-.01-.012-.01-.027-.025-.037" transform="translate(3 7) translate(0 .315) translate(30 12)"/>
            </g>
            <path stroke="#001428" stroke-linecap="round" stroke-linejoin="round" stroke-width="3" d="M59.113 26.704c0 7.545-6.116 13.66-13.66 13.66-7.546 0-13.662-6.115-13.662-13.66s6.116-13.661 13.661-13.661 13.661 6.116 13.661 13.66z" transform="translate(3 7) translate(0 .315)"/>
            <path fill="#1C9781" d="M49.187 26.704c0 2.063-1.673 3.735-3.735 3.735-2.063 0-3.735-1.672-3.735-3.735 0-2.063 1.672-3.734 3.735-3.734 2.062 0 3.735 1.67 3.735 3.734" transform="translate(3 7) translate(0 .315)"/>
            <path stroke="#001428" stroke-linecap="round" stroke-linejoin="round" stroke-width="3" d="M49.187 26.704c0 2.063-1.673 3.735-3.735 3.735-2.063 0-3.735-1.672-3.735-3.735 0-2.063 1.672-3.734 3.735-3.734 2.062 0 3.735 1.67 3.735 3.734z" transform="translate(3 7) translate(0 .315)"/>
            <g>
                <path fill="#1C9781" d="M1.095 0.392L1.095 31.016" transform="translate(3 7) translate(0 .315) translate(9 11)"/>
                <path stroke="#001428" stroke-linecap="round" stroke-linejoin="round" stroke-width="3" d="M1.095 0.392L1.095 31.016" transform="translate(3 7) translate(0 .315) translate(9 11)"/>
            </g>
            <g>
                <path fill="#1C9781" d="M0.882 0.392L0.882 31.016" transform="translate(3 7) translate(0 .315) translate(16 11)"/>
                <path stroke="#001428" stroke-linecap="round" stroke-linejoin="round" stroke-width="3" d="M0.882 0.392L0.882 31.016" transform="translate(3 7) translate(0 .315) translate(16 11)"/>
            </g>
        </g>
    </g>
</svg>
