<svg xmlns="http://www.w3.org/2000/svg" width="76" height="76" viewBox="0 0 76 76">
    <g fill="none" fill-rule="evenodd">
        <g>
            <path fill="#1C9781" d="M22.04.136h5.164C37.911-.142 46.226 23.19 46.604 36.8c.42 15.137-9.07 20.139-23.304 20h.517C9.583 56.939.093 51.937.513 36.8.891 23.19 9.204-.142 19.911.136h5.165" transform="translate(15 1) translate(0 16.676)"/>
            <path stroke="#001428" stroke-linecap="round" stroke-linejoin="round" stroke-width="3" d="M22.04.136h5.164C37.911-.142 46.226 23.19 46.604 36.8c.42 15.137-9.07 20.139-23.304 20h.517C9.583 56.939.093 51.937.513 36.8.891 23.19 9.204-.142 19.911.136h5.165" transform="translate(15 1) translate(0 16.676)"/>
        </g>
        <g>
            <path fill="#1C9781" d="M10.537 18.268c3.86 0 6.504-1.27 6.987-2.656l2.552-9.294C21.218 2.568 19.018.572 16.82.522H8.909h3.302-7.914C2.099.572-.1 2.569 1.042 6.318l2.551 9.294c.484 1.387 3.128 2.656 6.989 2.656" transform="translate(15 1) translate(13)"/>
            <path stroke="#001428" stroke-linecap="round" stroke-linejoin="round" stroke-width="3" d="M10.537 18.268c3.86 0 6.504-1.27 6.987-2.656l2.552-9.294C21.218 2.568 19.018.572 16.82.522H8.909h3.302-7.914C2.099.572-.1 2.569 1.042 6.318l2.551 9.294c.484 1.387 3.128 2.656 6.989 2.656" transform="translate(15 1) translate(13)"/>
        </g>
    </g>
</svg>
