<svg xmlns="http://www.w3.org/2000/svg" width="62" height="71" viewBox="0 0 62 71">
    <g fill="none" fill-rule="evenodd">
        <path fill="#1C9781" d="M33.368 49.218v11.478c0 2.858-7.357 5.176-16.435 5.176C7.858 65.872.5 63.554.5 60.696v-10.77"/>
        <path stroke="#001428" stroke-linecap="round" stroke-linejoin="round" stroke-width="3" d="M33.368 49.218v11.478c0 2.858-7.357 5.176-16.435 5.176C7.858 65.872.5 63.554.5 60.696v-10.77"/>
        <path fill="#1C9781" d="M33.368 39.435v11.478c0 2.858-7.357 5.174-16.435 5.174C7.858 56.087.5 53.77.5 50.913V40.142"/>
        <path stroke="#001428" stroke-linecap="round" stroke-linejoin="round" stroke-width="3" d="M33.368 39.435v11.478c0 2.858-7.357 5.174-16.435 5.174C7.858 56.087.5 53.77.5 50.913V40.142"/>
        <path fill="#1C9781" d="M33.368 28.125v11.478c0 2.858-7.357 5.174-16.435 5.174C7.858 44.777.5 42.461.5 39.603v-10.77"/>
        <path stroke="#001428" stroke-linecap="round" stroke-linejoin="round" stroke-width="3" d="M33.368 28.125v11.478c0 2.858-7.357 5.174-16.435 5.174C7.858 44.777.5 42.461.5 39.603v-10.77"/>
        <path fill="#1C9781" d="M33.368 29.675c0 2.858-7.357 5.176-16.435 5.176C7.858 34.851.5 32.533.5 29.675S7.857 24.5 16.933 24.5c9.079 0 16.435 2.317 16.435 5.175"/>
        <path stroke="#001428" stroke-linecap="round" stroke-linejoin="round" stroke-width="3" d="M33.368 28.675c0 2.858-7.357 5.176-16.435 5.176C7.858 33.851.5 31.533.5 28.675S7.857 23.5 16.933 23.5c9.079 0 16.435 2.317 16.435 5.175z"/>
        <g>
            <path fill="#1C9781" d="M61.359 52.998c0 9.667-7.835 17.502-17.501 17.502-9.665 0-17.501-7.835-17.501-17.502 0-9.665 7.836-17.5 17.5-17.5 9.667 0 17.502 7.835 17.502 17.5"/>
            <path stroke="#001428" stroke-linecap="round" stroke-linejoin="round" stroke-width="3" d="M61.359 52.998c0 9.667-7.835 17.502-17.501 17.502-9.665 0-17.501-7.835-17.501-17.502 0-9.665 7.836-17.5 17.5-17.5 9.667 0 17.502 7.835 17.502 17.5"/>
        </g>
    </g>
</svg>
