<svg width="55" height="55" viewBox="0 0 55 55" fill="none" xmlns="http://www.w3.org/2000/svg">
<path d="M18.3333 34.0806H19.3333V33.5182L18.8528 33.2261L18.3333 34.0806ZM36.6675 33.9926L36.1477 33.1383L35.6676 33.4305L35.6675 33.9924L36.6675 33.9926ZM25 25.0323L24.405 25.836L25.0931 26.3454L25.7025 25.7439L25 25.0323ZM27.5 22.5645L28.2025 21.8528L27.5 21.1594L26.7975 21.8528L27.5 22.5645ZM30 25.0323L29.2975 25.7439L29.9069 26.3454L30.595 25.836L30 25.0323ZM36.6667 43.129V44.129H37.6667V43.129H36.6667ZM18.3333 43.129H17.3333V44.129H18.3333V43.129ZM20 43.129V42.129H19V43.129H20ZM35 43.129H36V42.129H35V43.129ZM35 48.0645V49.0645H36V48.0645H35ZM20 48.0645H19V49.0645H20V48.0645ZM21.6667 48.0645V47.0645H20.6667V48.0645H21.6667ZM33.3333 48.0645H34.3333V47.0645H33.3333V48.0645ZM33.3333 53V54H34.3333V53H33.3333ZM21.6667 53H20.6667V54H21.6667V53ZM17.3333 34.0806V38.1935H19.3333V34.0806H17.3333ZM18.3333 39.1935H36.6667V37.1935H18.3333V39.1935ZM37.6667 38.1937L37.6675 33.9928L35.6675 33.9924L35.6667 38.1933L37.6667 38.1937ZM37.1873 34.8469C42.4685 31.6334 46 25.8637 46 19.2742H44C44 25.1287 40.8648 30.2681 36.1477 33.1383L37.1873 34.8469ZM46 19.2742C46 9.16941 37.705 1 27.5 1V3C36.625 3 44 10.2984 44 19.2742H46ZM27.5 1C17.295 1 9 9.16941 9 19.2742H11C11 10.2984 18.375 3 27.5 3V1ZM9 19.2742C9 25.8587 12.5246 31.7201 17.8139 34.9352L18.8528 33.2261C14.1387 30.3607 11 25.1354 11 19.2742H9ZM25.1553 38.0433L22.6553 21.5917L20.678 21.8922L23.178 38.3438L25.1553 38.0433ZM31.822 38.3438L34.322 21.8922L32.3447 21.5917L29.8447 38.0433L31.822 38.3438ZM21.0717 23.3682L24.405 25.836L25.595 24.2285L22.2617 21.7608L21.0717 23.3682ZM25.7025 25.7439L28.2025 23.2762L26.7975 21.8528L24.2975 24.3206L25.7025 25.7439ZM26.7975 23.2762L29.2975 25.7439L30.7025 24.3206L28.2025 21.8528L26.7975 23.2762ZM30.595 25.836L33.9283 23.3682L32.7383 21.7608L29.405 24.2285L30.595 25.836ZM35.6667 38.1935V43.129H37.6667V38.1935H35.6667ZM36.6667 42.129H18.3333V44.129H36.6667V42.129ZM19.3333 43.129V38.1935H17.3333V43.129H19.3333ZM20 44.129H35V42.129H20V44.129ZM34 43.129V48.0645H36V43.129H34ZM35 47.0645H20V49.0645H35V47.0645ZM21 48.0645V43.129H19V48.0645H21ZM21.6667 49.0645H33.3333V47.0645H21.6667V49.0645ZM32.3333 48.0645V53H34.3333V48.0645H32.3333ZM33.3333 52H21.6667V54H33.3333V52ZM22.6667 53V48.0645H20.6667V53H22.6667Z" fill="#001428"/>
</svg>
