<svg width="55" height="55" viewBox="0 0 55 55" fill="none" xmlns="http://www.w3.org/2000/svg">
<path d="M50.8917 33.0877L46.8379 30.3486V22.1315L50.8917 19.4473C51.1108 19.2829 51.2751 19.0638 51.2751 18.7899C51.2751 18.516 51.1108 18.2421 50.8917 18.1325L30.0202 4.10861C29.7463 3.94427 29.3628 3.94427 29.0889 4.10861L3.34187 21.3098C3.23231 21.3646 3.17753 21.4194 3.12275 21.5289C3.12275 21.5289 3.12275 21.5289 3.12275 21.5837C3.01318 21.7481 3.01318 21.8576 3.01318 22.022V37.0867C3.01318 37.3606 3.17753 37.6345 3.39665 37.7441L24.2682 51.6584C24.4325 51.768 24.5421 51.8228 24.7064 51.8228C24.8708 51.8228 25.0351 51.768 25.1447 51.6584L50.9464 34.4572C51.1656 34.2929 51.3299 34.0737 51.3299 33.7998C51.2751 33.4712 51.1108 33.1973 50.8917 33.0877ZM29.5819 5.80682L48.9743 18.7351L45.797 20.8168C45.6327 20.8716 45.4684 20.9811 45.3588 21.0907L24.6516 34.8955L9.09386 24.5419C9.03908 24.4871 8.9843 24.4871 8.9843 24.4323L5.2592 21.9672L29.5819 5.80682ZM9.36777 26.7331L24.1586 36.5937C24.4325 36.758 24.816 36.758 25.0899 36.5937L45.1945 23.1724V29.9104L24.7612 43.3865L9.36777 33.5259V26.7331ZM24.6516 49.9602L4.60183 36.5937V23.5558L7.77912 25.6375V33.9642C7.77912 34.2381 7.94346 34.512 8.16259 34.6763L24.3777 45.0847C24.4873 45.1943 24.6516 45.1943 24.816 45.1943C24.9803 45.1943 25.1447 45.1395 25.2542 45.0847L45.7423 31.6086L48.9743 33.7998L24.6516 49.9602Z" fill="#001428"/>
<path d="M26.0212 13.3118L35.7722 19.9951C35.9365 20.1046 36.1008 20.1594 36.2104 20.1594C36.4843 20.1594 36.7034 20.0498 36.8678 19.7759C37.1417 19.3925 37.0321 18.8994 36.6486 18.6255L26.9524 11.9423C26.569 11.6684 26.0759 11.7779 25.802 12.1614C25.5281 12.5449 25.6377 13.0379 26.0212 13.3118Z" fill="#001428"/>
</svg>
