<?xml version="1.0" encoding="UTF-8"?>
<svg width="70px" height="71px" viewBox="0 0 70 71" version="1.1" xmlns="http://www.w3.org/2000/svg" xmlns:xlink="http://www.w3.org/1999/xlink">
    <!-- Generator: sketchtool 62 (101010) - https://sketch.com -->
    <title>E81D7C8D-8527-4107-BAD6-E2B36BB775A5</title>
    <desc>Created with sketchtool.</desc>
    <g id="Symbols" stroke="none" stroke-width="1" fill="none" fill-rule="evenodd">
        <g id="Icon_group">
            <g id="Group-71">
                <path d="M69.4787,37.9835 C69.4787,55.9415 54.9207,70.5005 36.9617,70.5005 C19.0037,70.5005 4.4457,55.9415 4.4457,37.9835 C4.4457,20.0245 19.0037,5.4665 36.9617,5.4665 C54.9207,5.4665 69.4787,20.0245 69.4787,37.9835" id="Fill-1" fill="#1C9781"></path>
                <path d="M69.4787,37.9835 C69.4787,55.9415 54.9207,70.5005 36.9617,70.5005 C19.0037,70.5005 4.4457,55.9415 4.4457,37.9835 C4.4457,20.0245 19.0037,5.4665 36.9617,5.4665 C54.9207,5.4665 69.4787,20.0245 69.4787,37.9835 Z" id="Stroke-3" stroke="#001428" stroke-width="3" stroke-linecap="round" stroke-linejoin="round"></path>
                <g id="Group-8" transform="translate(6.000000, 44.000000)">
                    <path d="M0.6603,5.5411 C5.3403,0.7861 8.6503,0.7511 8.6503,0.7511" id="Fill-5" fill="#1C9781"></path>
                    <path d="M0.6603,5.5411 C5.3403,0.7861 8.6503,0.7511 8.6503,0.7511" id="Stroke-7" stroke="#001428" stroke-width="3" stroke-linecap="round" stroke-linejoin="round"></path>
                </g>
                <g id="Group-12" transform="translate(22.000000, 44.000000)">
                    <path d="M0.7306,0.5352 C0.7306,0.5352 6.7796,1.6502 9.4136,6.1032 L9.5386,6.3782" id="Fill-9" fill="#1C9781"></path>
                    <path d="M0.7306,0.5352 C0.7306,0.5352 6.7796,1.6502 9.4136,6.1032 L9.5386,6.3782" id="Stroke-11" stroke="#001428" stroke-width="3" stroke-linecap="round" stroke-linejoin="round"></path>
                </g>
                <g id="Group-16" transform="translate(41.000000, 38.000000)">
                    <path d="M0.9249,6.5001 L1.0659,6.3301 C5.5759,1.1401 9.9839,0.8731 9.9839,0.8731" id="Fill-13" fill="#1C9781"></path>
                    <path d="M0.9249,6.5001 L1.0659,6.3301 C5.5759,1.1401 9.9839,0.8731 9.9839,0.8731" id="Stroke-15" stroke="#001428" stroke-width="3" stroke-linecap="round" stroke-linejoin="round"></path>
                </g>
                <g id="Group-20" transform="translate(59.000000, 38.000000)">
                    <path d="M0.1691,0.6544 C0.1691,0.6544 6.7421,2.1054 9.6631,6.6354" id="Fill-17" fill="#1C9781"></path>
                    <path d="M0.1691,0.6544 C0.1691,0.6544 6.7421,2.1054 9.6631,6.6354" id="Stroke-19" stroke="#001428" stroke-width="3" stroke-linecap="round" stroke-linejoin="round"></path>
                </g>
                <g id="Group-24" transform="translate(14.000000, 39.000000)">
                    <path d="M0.5607,0.544 C0.5607,0.544 1.3267,2.603 0.5477,5.715 C1.7217,7.379 7.6597,7.906 8.7957,5.273 C8.2337,2.842 8.5217,0.185 8.5217,0.185" id="Fill-21" fill="#1C9781"></path>
                    <path d="M0.5607,0.544 C0.5607,0.544 1.3267,2.603 0.5477,5.715 C1.7217,7.379 7.6597,7.906 8.7957,5.273 C8.2337,2.842 8.5217,0.185 8.5217,0.185" id="Stroke-23" stroke="#001428" stroke-width="3" stroke-linecap="round" stroke-linejoin="round"></path>
                </g>
                <g id="Group-28" transform="translate(50.000000, 33.000000)">
                    <path d="M0.8429,0.711 C0.8429,0.711 1.6179,2.761 0.8299,5.86 C2.0189,7.517 8.0329,8.042 9.1859,5.42 C8.6149,3 8.9059,0.354 8.9059,0.354" id="Fill-25" fill="#1C9781"></path>
                    <path d="M0.8429,0.711 C0.8429,0.711 1.6179,2.761 0.8299,5.86 C2.0189,7.517 8.0329,8.042 9.1859,5.42 C8.6149,3 8.9059,0.354 8.9059,0.354" id="Stroke-27" stroke="#001428" stroke-width="3" stroke-linecap="round" stroke-linejoin="round"></path>
                </g>
                <path d="M66.9874,20.0919 C66.9874,27.8249 61.6234,34.0949 55.0074,34.0949 C48.3904,34.0949 43.0264,27.8249 43.0264,20.0919 C43.0264,12.3579 48.3904,6.0889 55.0074,6.0889 C61.6234,6.0889 66.9874,12.3579 66.9874,20.0919" id="Fill-29" fill="#1C9781"></path>
                <path d="M66.9874,20.0919 C66.9874,27.8249 61.6234,34.0949 55.0074,34.0949 C48.3904,34.0949 43.0264,27.8249 43.0264,20.0919 C43.0264,12.3579 48.3904,6.0889 55.0074,6.0889 C61.6234,6.0889 66.9874,12.3579 66.9874,20.0919 Z" id="Stroke-31" stroke="#001428" stroke-width="3" stroke-linecap="round" stroke-linejoin="round"></path>
                <g id="Group-36" transform="translate(0.000000, 6.000000)">
                    <path d="M26.3224,30.7061 C26.3224,30.7061 26.9834,31.5891 28.2614,32.8251 C29.7214,34.2381 31.1704,34.8721 31.1704,34.8721 C31.1704,34.8721 37.2754,27.1151 36.0544,16.4131 C34.8424,5.7831 27.2674,0.2521 17.5944,0.2521 C10.4844,0.2521 0.5004,4.5341 0.5004,18.7111 C0.5004,30.2291 9.1914,35.8781 9.1914,35.8781 C9.1914,35.8781 10.1614,35.0161 10.9154,33.7951 C11.6074,32.6751 12.0164,31.6161 12.0164,31.6161" id="Fill-33" fill="#1C9781"></path>
                    <path d="M26.3224,30.7061 C26.3224,30.7061 26.9834,31.5891 28.2614,32.8251 C29.7214,34.2381 31.1704,34.8721 31.1704,34.8721 C31.1704,34.8721 37.2754,27.1151 36.0544,16.4131 C34.8424,5.7831 27.2674,0.2521 17.5944,0.2521 C10.4844,0.2521 0.5004,4.5341 0.5004,18.7111 C0.5004,30.2291 9.1914,35.8781 9.1914,35.8781 C9.1914,35.8781 10.1614,35.0161 10.9154,33.7951 C11.6074,32.6751 12.0164,31.6161 12.0164,31.6161" id="Stroke-35" stroke="#001428" stroke-width="3" stroke-linecap="round" stroke-linejoin="round"></path>
                </g>
                <path d="M30.4865,26.1397 C30.4865,33.7667 25.1975,39.9497 18.6725,39.9497 C12.1475,39.9497 6.8585,33.7667 6.8585,26.1397 C6.8585,18.5137 12.1475,12.3307 18.6725,12.3307 C25.1975,12.3307 30.4865,18.5137 30.4865,26.1397" id="Fill-37" fill="#1C9781"></path>
                <path d="M30.4865,26.1397 C30.4865,33.7667 25.1975,39.9497 18.6725,39.9497 C12.1475,39.9497 6.8585,33.7667 6.8585,26.1397 C6.8585,18.5137 12.1475,12.3307 18.6725,12.3307 C25.1975,12.3307 30.4865,18.5137 30.4865,26.1397 Z" id="Stroke-39" stroke="#001428" stroke-width="3" stroke-linecap="round" stroke-linejoin="round"></path>
                <path d="M3.8761,23.4903 C3.8761,23.4903 5.7431,24.1363 9.0481,21.9103 C12.3521,19.6833 14.8651,15.8763 14.8651,15.8763 C14.8651,15.8763 18.2261,21.2523 22.7671,23.2033 C26.7311,24.9063 30.5371,25.8573 32.2481,25.5013 C33.9721,25.1423 34.2591,22.3413 32.7511,18.7493 C31.4221,15.5873 29.5901,11.4233 22.4071,9.5553 C14.4691,7.4913 10.6531,10.2963 7.5391,13.2193 C2.8701,17.6003 3.8761,23.4903 3.8761,23.4903" id="Fill-41" fill="#1C9781"></path>
                <g id="Group-46" transform="translate(6.000000, 15.000000)">
                    <path d="M25.0743,10.2618 C25.0743,10.2618 19.3763,10.0228 15.0183,7.0538 C9.7063,3.4348 8.7943,0.0858 8.7943,0.0858 C8.7943,0.0858 7.6803,3.3188 4.4483,5.9768 C2.0103,7.9818 0.2463,8.0948 0.2463,8.0948" id="Fill-43" fill="#1C9781"></path>
                    <path d="M25.0743,10.2618 C25.0743,10.2618 19.3763,10.0228 15.0183,7.0538 C9.7063,3.4348 8.7943,0.0858 8.7943,0.0858 C8.7943,0.0858 7.6803,3.3188 4.4483,5.9768 C2.0103,7.9818 0.2463,8.0948 0.2463,8.0948" id="Stroke-45" stroke="#001428" stroke-width="3" stroke-linecap="round" stroke-linejoin="round"></path>
                </g>
                <g id="Group-50" transform="translate(39.000000, 0.000000)">
                    <path d="M20.9894,6.7423 C24.2214,7.8453 26.7214,6.8973 29.2024,9.7083 C31.4834,12.2933 29.5064,16.8183 29.5064,16.8183 C26.9974,13.0153 21.2444,15.2953 15.2104,14.3083 C11.2564,13.6623 9.1734,12.5413 6.9224,9.4793 C6.9224,9.4793 6.7874,12.1163 6.2754,14.2323 C5.7054,16.5903 4.6784,19.0613 1.9414,20.2023 C1.9414,20.2023 -0.3396,16.8553 0.4204,10.7723 C0.8924,6.9973 3.1954,3.5493 5.8544,4.7363 C5.8544,4.7363 8.8624,0.6893 16.0854,0.5073 C23.6134,0.3163 29.4684,4.0053 29.8484,9.4793" id="Fill-47" fill="#1C9781"></path>
                    <path d="M20.9894,6.7423 C24.2214,7.8453 26.7214,6.8973 29.2024,9.7083 C31.4834,12.2933 29.5064,16.8183 29.5064,16.8183 C26.9974,13.0153 21.2444,15.2953 15.2104,14.3083 C11.2564,13.6623 9.1734,12.5413 6.9224,9.4793 C6.9224,9.4793 6.7874,12.1163 6.2754,14.2323 C5.7054,16.5903 4.6784,19.0613 1.9414,20.2023 C1.9414,20.2023 -0.3396,16.8553 0.4204,10.7723 C0.8924,6.9973 3.1954,3.5493 5.8544,4.7363 C5.8544,4.7363 8.8624,0.6893 16.0854,0.5073 C23.6134,0.3163 29.4684,4.0053 29.8484,9.4793" id="Stroke-49" stroke="#001428" stroke-width="3" stroke-linecap="round" stroke-linejoin="round"></path>
                </g>
                <g id="Group-54" transform="translate(23.000000, 61.000000)">
                    <path d="M0.92,6.213 L1.278,5.753 C5.699,0.666 10.019,0.405 10.019,0.405" id="Fill-51" fill="#1C9781"></path>
                    <path d="M0.92,6.213 L1.278,5.753 C5.699,0.666 10.019,0.405 10.019,0.405" id="Stroke-53" stroke="#001428" stroke-width="3" stroke-linecap="round" stroke-linejoin="round"></path>
                </g>
                <g id="Group-58" transform="translate(41.000000, 61.000000)">
                    <path d="M0.0411,0.1915 C0.0411,0.1915 6.0461,1.2975 8.6611,5.7185 L8.9421,6.3635" id="Fill-55" fill="#1C9781"></path>
                    <path d="M0.0411,0.1915 C0.0411,0.1915 6.0461,1.2975 8.6611,5.7185 L8.9421,6.3635" id="Stroke-57" stroke="#001428" stroke-width="3" stroke-linecap="round" stroke-linejoin="round"></path>
                </g>
                <g id="Group-62" transform="translate(32.000000, 55.000000)">
                    <path d="M0.88,1.3458 C0.88,1.3458 1.641,3.3548 0.868,6.3928 C2.033,8.0168 7.928,8.5308 9.058,5.9608 C8.499,3.5888 8.784,0.9948 8.784,0.9948" id="Fill-59" fill="#1C9781"></path>
                    <path d="M0.88,1.3458 C0.88,1.3458 1.641,3.3548 0.868,6.3928 C2.033,8.0168 7.928,8.5308 9.058,5.9608 C8.499,3.5888 8.784,0.9948 8.784,0.9948" id="Stroke-61" stroke="#001428" stroke-width="3" stroke-linecap="round" stroke-linejoin="round"></path>
                </g>
                <path d="M48.7042,42.9981 C48.7042,50.5771 43.4462,56.7221 36.9622,56.7221 C30.4772,56.7221 25.2212,50.5771 25.2212,42.9981 C25.2212,35.4181 30.4772,29.2731 36.9622,29.2731 C43.4462,29.2731 48.7042,35.4181 48.7042,42.9981" id="Fill-63" fill="#1C9781"></path>
                <path d="M48.7042,42.9981 C48.7042,50.5771 43.4462,56.7221 36.9622,56.7221 C30.4772,56.7221 25.2212,50.5771 25.2212,42.9981 C25.2212,35.4181 30.4772,29.2731 36.9622,29.2731 C43.4462,29.2731 48.7042,35.4181 48.7042,42.9981 Z" id="Stroke-65" stroke="#001428" stroke-width="3" stroke-linecap="round" stroke-linejoin="round"></path>
                <path d="M23.3575,45.672 C23.3575,45.672 25.0575,43.87 26.4325,40.076 C27.8175,36.253 27.9565,34.157 27.9565,34.157 C27.9565,34.157 29.1475,36.918 34.6045,38.146 C41.5135,39.7 42.3985,39.181 45.5385,40.51 C49.3035,42.105 48.9365,46.494 48.9365,46.494 C48.9365,46.494 54.2925,45.608 54.3665,38.7 C54.0035,29.609 45.9125,22.835 36.3695,22.835 C29.3555,22.835 19.3125,26.973 19.8385,40.298 C20.3655,45.035 23.3575,45.672 23.3575,45.672" id="Fill-67" fill="#1C9781"></path>
                <path d="M23.3575,45.672 C23.3575,45.672 25.0575,43.87 26.4325,40.076 C27.8175,36.253 27.9565,34.157 27.9565,34.157 C27.9565,34.157 29.1475,36.918 34.6045,38.146 C41.5135,39.7 42.3985,39.181 45.5385,40.51 C49.3035,42.105 48.9365,46.494 48.9365,46.494 C48.9365,46.494 54.2925,45.608 54.3665,38.7 C54.0035,29.609 45.9125,22.835 36.3695,22.835 C29.3555,22.835 19.3125,26.973 19.8385,40.298 C20.3655,45.035 23.3575,45.672 23.3575,45.672 Z" id="Stroke-69" stroke="#001428" stroke-width="3" stroke-linecap="round" stroke-linejoin="round"></path>
            </g>
        </g>
    </g>
</svg>