<svg width="55" height="55" viewBox="0 0 55 55" fill="none" xmlns="http://www.w3.org/2000/svg">
<path d="M28.0008 48.0036C28.529 47.7542 28.755 47.1238 28.5056 46.5956C28.2562 46.0674 27.6257 45.8414 27.0975 46.0908L28.0008 48.0036ZM7.93269 37.0076C7.93269 36.4235 7.45915 35.9499 6.875 35.9499C6.29085 35.9499 5.81731 36.4235 5.81731 37.0076H7.93269ZM24.9283 42.173C25.4989 42.0477 25.8598 41.4835 25.7344 40.913C25.609 40.3425 25.0449 39.9816 24.4744 40.1069L24.9283 42.173ZM7.93269 30.6382C7.93269 30.054 7.45915 29.5805 6.875 29.5805C6.29085 29.5805 5.81731 30.054 5.81731 30.6382H7.93269ZM30.6731 22.2115C30.6731 21.6274 30.1995 21.1538 29.6154 21.1538C29.0312 21.1538 28.5577 21.6274 28.5577 22.2115H30.6731ZM25.9991 33.0127L26.3149 34.0222L26.3169 34.0215L25.9991 33.0127ZM18.2447 33.8462V34.9038V33.8462ZM7.93269 22.7055C7.93269 22.1213 7.45915 21.6478 6.875 21.6478C6.29085 21.6478 5.81731 22.1213 5.81731 22.7055H7.93269ZM30.6731 14.8077C30.6731 14.2235 30.1995 13.75 29.6154 13.75C29.0312 13.75 28.5577 14.2235 28.5577 14.8077H30.6731ZM7.93269 15.3022C7.93269 14.718 7.45915 14.2445 6.875 14.2445C6.29085 14.2445 5.81731 14.718 5.81731 15.3022H7.93269ZM30.6731 6.875C30.6731 6.29085 30.1995 5.81731 29.6154 5.81731C29.0312 5.81731 28.5577 6.29085 28.5577 6.875H30.6731ZM7.93269 7.39115C7.93269 6.80701 7.45915 6.33346 6.875 6.33346C6.29085 6.33346 5.81731 6.80701 5.81731 7.39115H7.93269ZM10.6187 3.70515L10.9532 4.70857L10.6187 3.70515ZM8.05062 5.00083L8.71318 5.82529L8.71366 5.8249L8.05062 5.00083ZM8.05062 9.27708L7.38743 10.101L7.38759 10.1012L8.05062 9.27708ZM10.6192 10.5727L10.9539 9.56942L10.9537 9.56933L10.6192 10.5727ZM25.8706 10.5733L25.5362 9.56986L25.8706 10.5733ZM28.4398 9.27761L29.1028 10.1017L29.103 10.1015L28.4398 9.27761ZM28.4398 5.0003L29.103 4.17635L29.1027 4.17615L28.4398 5.0003ZM25.8717 3.70462L26.2063 2.70126L26.2056 2.70102L25.8717 3.70462ZM27.0975 46.0908C25.2354 46.9702 22.0085 47.5962 18.2452 47.5962V49.7116C22.1745 49.7116 25.7485 49.0673 28.0008 48.0036L27.0975 46.0908ZM18.2452 47.5962C15.187 47.5962 12.4623 47.1824 10.5388 46.5429C9.57141 46.2213 8.86491 45.8616 8.42203 45.5135C7.96686 45.1558 7.93269 44.9316 7.93269 44.8742H5.81731C5.81731 45.8602 6.41941 46.6301 7.11489 47.1767C7.82266 47.733 8.7812 48.1878 9.87139 48.5503C12.0629 49.2789 15.0233 49.7116 18.2452 49.7116V47.5962ZM7.93269 44.8742V37.0076H5.81731V44.8742H7.93269ZM24.4744 40.1069C22.7252 40.4913 20.5775 40.7211 18.2441 40.7211V42.8365C20.7074 42.8365 23.0094 42.5947 24.9283 42.173L24.4744 40.1069ZM18.2441 40.7211C15.1829 40.7211 12.4538 40.325 10.5257 39.7119C9.55554 39.4033 8.84725 39.0583 8.40414 38.7251C7.94292 38.3783 7.93269 38.1775 7.93269 38.1631H5.81731C5.81731 39.1472 6.44342 39.8975 7.1329 40.4159C7.84049 40.9479 8.79727 41.382 9.8846 41.7278C12.0715 42.4232 15.0269 42.8365 18.2441 42.8365V40.7211ZM7.93269 38.1631V30.6382H5.81731V38.1631H7.93269ZM28.5577 22.2115V28.8745H30.6731V22.2115H28.5577ZM28.5577 28.8745C28.5577 28.7545 28.5808 28.6673 28.5911 28.6324C28.6029 28.5921 28.614 28.5678 28.6158 28.564C28.6187 28.5576 28.6098 28.5772 28.5768 28.6292C28.5122 28.7311 28.4047 28.8797 28.2537 29.0711C27.9553 29.4495 27.5442 29.9231 27.1148 30.3954C26.6872 30.8656 26.2538 31.3208 25.9162 31.6596C25.7464 31.83 25.6079 31.9639 25.51 32.0533C25.4598 32.0992 25.4308 32.1237 25.4192 32.133C25.4127 32.1381 25.4225 32.1298 25.4439 32.1156C25.4549 32.1082 25.4772 32.0938 25.5081 32.077C25.5341 32.0629 25.5957 32.0309 25.6814 32.0039L26.3169 34.0215C26.4763 33.9713 26.5916 33.8929 26.6173 33.8757C26.6656 33.8435 26.708 33.8109 26.7395 33.7858C26.8037 33.7345 26.8718 33.6745 26.9369 33.615C27.0696 33.4937 27.2343 33.3338 27.4147 33.1526C27.7777 32.7883 28.2334 32.3095 28.6798 31.8186C29.1244 31.3297 29.5724 30.8149 29.9145 30.3812C30.0838 30.1666 30.2419 29.9533 30.3629 29.7628C30.4226 29.6686 30.4866 29.5594 30.539 29.4448C30.5771 29.3618 30.6731 29.1448 30.6731 28.8745H28.5577ZM25.6834 32.0032C25.7278 31.9894 25.707 31.9974 25.5304 32.0304C25.3901 32.0566 25.1939 32.091 24.9516 32.131C24.4675 32.2108 23.8089 32.3109 23.0612 32.4088C21.556 32.6059 19.7311 32.7885 18.2447 32.7885V34.9038C19.8694 34.9038 21.8017 34.7072 23.3359 34.5063C24.1079 34.4052 24.7896 34.3017 25.2958 34.2182C25.5487 34.1765 25.7602 34.1394 25.9189 34.1098C26.0411 34.0869 26.2105 34.0548 26.3149 34.0222L25.6834 32.0032ZM18.2447 32.7885C15.1829 32.7885 12.4536 32.3925 10.5255 31.7794C9.55539 31.4709 8.84717 31.1258 8.40412 30.7927C7.94303 30.446 7.93269 30.245 7.93269 30.2304H5.81731C5.81731 31.2145 6.44324 31.9649 7.13279 32.4834C7.84037 33.0155 8.79716 33.4495 9.88449 33.7953C12.0714 34.4907 15.0269 34.9038 18.2447 34.9038V32.7885ZM7.93269 30.2304V22.7055H5.81731V30.2304H7.93269ZM28.5577 14.8077V22.8261H30.6731V14.8077H28.5577ZM28.5577 22.8261C28.5577 22.8405 28.5474 23.0414 28.0862 23.3882C27.6431 23.7214 26.9349 24.0665 25.9647 24.3751C24.0365 24.9884 21.3069 25.3846 18.2447 25.3846V27.5C21.463 27.5 24.4188 27.0866 26.6058 26.391C27.6932 26.0451 28.65 25.611 29.3576 25.0789C30.0471 24.5604 30.6731 23.8101 30.6731 22.8261H28.5577ZM18.2447 25.3846C15.1829 25.3846 12.4537 24.9884 10.5256 24.3751C9.55548 24.0665 8.84723 23.7214 8.40414 23.3882C7.94296 23.0414 7.93269 22.8405 7.93269 22.8261H5.81731C5.81731 23.8101 6.44331 24.5604 7.13277 25.0789C7.84031 25.611 8.79706 26.0451 9.88441 26.391C12.0713 27.0866 15.0269 27.5 18.2447 27.5V25.3846ZM7.93269 22.8261V15.3022H5.81731V22.8261H7.93269ZM28.5577 6.875V15.2588H30.6731V6.875H28.5577ZM28.5577 15.2588C28.5577 15.3164 28.5234 15.5407 28.0683 15.8984C27.6255 16.2465 26.919 16.6061 25.9516 16.9277C24.028 17.5672 21.3032 17.9808 18.2447 17.9808V20.0962C21.4667 20.0962 24.4273 19.6636 26.6189 18.9351C27.7091 18.5727 28.6677 18.1179 29.3755 17.5616C30.0711 17.0149 30.6731 16.2449 30.6731 15.2588H28.5577ZM18.2447 17.9808C15.1867 17.9808 12.4622 17.5672 10.5387 16.9277C9.57136 16.6061 8.8649 16.2465 8.42205 15.8984C7.96695 15.5407 7.93269 15.3164 7.93269 15.2588H5.81731C5.81731 16.2449 6.41931 17.0149 7.11485 17.5616C7.82264 18.1179 8.78118 18.5727 9.87134 18.9351C12.0628 19.6636 15.0231 20.0962 18.2447 20.0962V17.9808ZM7.93269 15.2588V7.39115H5.81731V15.2588H7.93269ZM18.2447 1.58659C15.1806 1.58659 12.3681 2.00711 10.2842 2.70174L10.9532 4.70857C12.7722 4.10223 15.3496 3.70198 18.2447 3.70198V1.58659ZM10.2842 2.70174C9.11552 3.09131 8.11771 3.58932 7.38759 4.17675L8.71366 5.8249C9.18508 5.4456 9.93246 5.04881 10.9532 4.70857L10.2842 2.70174ZM7.38807 4.17636C6.37245 4.99254 5.81731 6.02226 5.81731 7.13842H7.93269C7.93269 6.78757 8.0915 6.32488 8.71318 5.82529L7.38807 4.17636ZM5.81731 7.13842C5.81731 8.25399 6.37236 9.28398 7.38743 10.101L8.71382 8.45313C8.09158 7.95229 7.93269 7.48882 7.93269 7.13842H5.81731ZM7.38759 10.1012C8.11782 10.6887 9.11625 11.1867 10.2848 11.5762L10.9537 9.56933C9.93279 9.22903 9.18497 8.83221 8.71366 8.453L7.38759 10.1012ZM10.2845 11.5761C12.3684 12.2713 15.181 12.6924 18.2447 12.6924V10.577C15.3503 10.577 12.7729 10.1762 10.9539 9.56942L10.2845 11.5761ZM18.2447 12.6924C21.3088 12.6924 24.1213 12.2713 26.2051 11.5767L25.5362 9.56986C23.717 10.1762 21.1395 10.577 18.2447 10.577V12.6924ZM26.2051 11.5767C27.3734 11.1873 28.3724 10.6893 29.1028 10.1017L27.7767 8.45353C27.3055 8.83264 26.5573 9.22949 25.5362 9.56986L26.2051 11.5767ZM29.103 10.1015C30.118 9.28451 30.6731 8.25452 30.6731 7.13895H28.5577C28.5577 7.48935 28.3988 7.95281 27.7766 8.45366L29.103 10.1015ZM30.6731 7.13895C30.6731 6.02275 30.1179 4.99331 29.103 4.17635L27.7766 5.82424C28.3989 6.32517 28.5577 6.78813 28.5577 7.13895H30.6731ZM29.1027 4.17615C28.3732 3.5893 27.3744 3.0908 26.2063 2.70126L25.5371 4.70799C26.5574 5.04826 27.3059 5.44562 27.7768 5.82444L29.1027 4.17615ZM26.2056 2.70102C24.1217 2.0077 21.3089 1.58659 18.2447 1.58659V3.70198C21.1395 3.70198 23.7178 4.1027 25.5378 4.70823L26.2056 2.70102ZM47.5962 39.1346C47.5962 45.2904 42.7203 50.2404 36.7548 50.2404V52.3558C43.9322 52.3558 49.7115 46.4147 49.7115 39.1346H47.5962ZM36.7548 50.2404C30.7893 50.2404 25.9135 45.2904 25.9135 39.1346H23.7981C23.7981 46.4147 29.5774 52.3558 36.7548 52.3558V50.2404ZM25.9135 39.1346C25.9135 32.9788 30.7893 28.0288 36.7548 28.0288V25.9135C29.5775 25.9135 23.7981 31.8545 23.7981 39.1346H25.9135ZM36.7548 28.0288C42.7203 28.0288 47.5962 32.9788 47.5962 39.1346H49.7115C49.7115 31.8545 43.9322 25.9135 36.7548 25.9135V28.0288Z" fill="#001428"/>
</svg>
