<svg xmlns="http://www.w3.org/2000/svg" width="76" height="76" viewBox="0 0 76 76">
    <g fill="none" fill-rule="evenodd">
        <path fill="#1C9781" d="M64.447 39.174c0 17.659-14.315 31.974-31.974 31.974C14.815 71.148.5 56.833.5 39.174.5 21.516 14.815 7.2 32.473 7.2c17.66 0 31.974 14.315 31.974 31.973" transform="translate(6 2)"/>
        <path stroke="#001428" stroke-linecap="round" stroke-linejoin="round" stroke-width="3" d="M64.447 39.174c0 17.659-14.315 31.974-31.974 31.974C14.815 71.148.5 56.833.5 39.174.5 21.516 14.815 7.2 32.473 7.2c17.66 0 31.974 14.315 31.974 31.973z" transform="translate(6 2)"/>
        <path fill="#1C9781" d="M49.606 29.99c0 11.061-7.67 20.026-17.133 20.026S15.34 41.051 15.34 29.99c0-11.06 7.67-20.026 17.133-20.026 9.462 0 17.133 8.966 17.133 20.026" transform="translate(6 2)"/>
        <path stroke="#001428" stroke-linecap="round" stroke-linejoin="round" stroke-width="3" d="M49.606 29.99c0 11.061-7.67 20.026-17.133 20.026S15.34 41.051 15.34 29.99c0-11.06 7.67-20.026 17.133-20.026 9.462 0 17.133 8.966 17.133 20.026z" transform="translate(6 2)"/>
        <path stroke="#001428" stroke-linecap="round" stroke-linejoin="round" stroke-width="3" d="M26.51 49.429s1.11 2.985-.018 7.5c1.703 2.413 10.313 3.178 11.962-.643-.815-3.523-.4-7.378-.4-7.378M26.64 56.981s-6.32.416-12.777 7.848M38.36 56.669s8.835 1.632 12.655 8.09" transform="translate(6 2)"/>
        <path fill="#001428" d="M26.161 31.773c0 .857-.694 1.553-1.552 1.553-.857 0-1.552-.696-1.552-1.553s.695-1.553 1.552-1.553c.858 0 1.552.696 1.552 1.553M41.89 31.773c0 .857-.694 1.553-1.553 1.553-.857 0-1.552-.696-1.552-1.553s.696-1.553 1.553-1.553c.858 0 1.553.696 1.553 1.553" transform="translate(6 2)"/>
        <path stroke="#001428" stroke-linecap="round" stroke-linejoin="round" stroke-width="2.5" d="M30.13 41.53c1.18.52 3.194.66 4.687.034" transform="translate(6 2)"/>
        <path fill="#1C9781" d="M12.355 34.07s2.5-2.648 4.521-8.226c2.036-5.62 2.24-8.7 2.24-8.7s1.751 4.058 9.773 5.863c10.155 2.286 11.457 1.52 16.072 3.475 5.536 2.344 4.997 8.797 4.997 8.797s7.873-1.304 7.981-11.457C57.407 10.458 45.511.5 31.484.5 21.172.5 6.41 6.582 7.184 26.17c.774 6.963 5.171 7.9 5.171 7.9" transform="translate(6 2)"/>
        <path stroke="#001428" stroke-linecap="round" stroke-linejoin="round" stroke-width="3" d="M12.355 34.07s2.5-2.648 4.521-8.226c2.036-5.62 2.24-8.7 2.24-8.7s1.751 4.058 9.773 5.863c10.155 2.286 11.457 1.52 16.072 3.475 5.536 2.344 4.997 8.797 4.997 8.797s7.873-1.304 7.981-11.457C57.407 10.458 45.511.5 31.484.5 21.172.5 6.41 6.582 7.184 26.17c.774 6.963 5.171 7.9 5.171 7.9z" transform="translate(6 2)"/>
    </g>
</svg>
