<svg width="55" height="55" viewBox="0 0 55 55" fill="none" xmlns="http://www.w3.org/2000/svg">
<path d="M18.3383 23.6024H13.3778C12.9234 23.6024 12.5557 23.9702 12.5557 24.4245V29.3818C12.5557 29.8361 12.9234 30.2039 13.3778 30.2039H18.3383C18.7926 30.2039 19.1604 29.8361 19.1604 29.3818V24.4245C19.1604 23.9707 18.7921 23.6024 18.3383 23.6024ZM17.5162 28.5602H14.1999V25.2472H17.5162V28.5602Z" fill="#001428"/>
<path d="M29.9088 23.6024H24.9466C24.4923 23.6024 24.1245 23.9702 24.1245 24.4245V29.3818C24.1245 29.8361 24.4923 30.2039 24.9466 30.2039H29.9088C30.3631 30.2039 30.7309 29.8361 30.7309 29.3818V24.4245C30.7309 23.9707 30.3631 23.6024 29.9088 23.6024ZM29.0867 28.5602H25.7687V25.2472H29.0867V28.5602Z" fill="#001428"/>
<path d="M18.3383 34.8992H13.3778C12.9234 34.8992 12.5557 35.2675 12.5557 35.7213V40.6818C12.5557 41.1361 12.9234 41.5039 13.3778 41.5039H18.3383C18.7926 41.5039 19.1604 41.1361 19.1604 40.6818V35.7213C19.1604 35.2675 18.7921 34.8992 18.3383 34.8992ZM17.5162 39.8597H14.1999V36.5434H17.5162V39.8597Z" fill="#001428"/>
<path d="M29.9088 34.8992H24.9466C24.4923 34.8992 24.1245 35.2675 24.1245 35.7213V40.6818C24.1245 41.1361 24.4923 41.5039 24.9466 41.5039H29.9088C30.3631 41.5039 30.7309 41.1361 30.7309 40.6818V35.7213C30.7309 35.2675 30.3631 34.8992 29.9088 34.8992ZM29.0867 39.8597H25.7687V36.5434H29.0867V39.8597Z" fill="#001428"/>
<path d="M41.1183 34.8992H36.16C35.7056 34.8992 35.3379 35.2675 35.3379 35.7213V40.6818C35.3379 41.1361 35.7056 41.5039 36.16 41.5039H41.1183C41.5727 41.5039 41.9404 41.1361 41.9404 40.6818V35.7213C41.9404 35.2675 41.5721 34.8992 41.1183 34.8992ZM40.2962 39.8597H36.9821V36.5434H40.2962V39.8597Z" fill="#001428"/>
<path d="M47.1556 8.84134H42.1622V7.88825C42.1622 6.19473 40.7849 4.81689 39.0925 4.81689C37.399 4.81689 36.0211 6.19473 36.0211 7.88825V8.84134H30.4681V7.88825C30.4681 6.19473 29.0908 4.81689 27.3984 4.81689C25.7038 4.81689 24.3254 6.19473 24.3254 7.88825V8.84134H18.7741V7.88825C18.7741 6.19473 17.3973 4.81689 15.7044 4.81689C14.0097 4.81689 12.6314 6.19473 12.6314 7.88825V8.84134H7.65218C7.19783 8.84134 6.83008 9.20909 6.83008 9.66344V49.168C6.83008 49.6218 7.19783 49.9901 7.65218 49.9901H47.1567C47.6111 49.9901 47.9788 49.6218 47.9788 49.168V9.66344C47.9777 9.20909 47.61 8.84134 47.1556 8.84134ZM37.6648 7.88825C37.6648 7.10068 38.3049 6.46109 39.0919 6.46109C39.8779 6.46109 40.5175 7.10123 40.5175 7.88825V12.0952C40.5175 12.8822 39.8779 13.5224 39.0919 13.5224C38.3049 13.5224 37.6648 12.8822 37.6648 12.0952V7.88825ZM27.3979 6.46054C28.1838 6.46054 28.8234 7.10068 28.8234 7.88771V12.0947C28.8234 12.8817 28.1838 13.5218 27.3979 13.5218C26.6098 13.5218 25.9691 12.8817 25.9691 12.0947V9.75332C25.9724 9.72318 25.9784 9.69413 25.9784 9.66289C25.9784 9.63165 25.9724 9.6026 25.9691 9.57246V7.88771C25.9691 7.10068 26.6103 6.46054 27.3979 6.46054ZM14.275 7.88825C14.275 7.10068 14.9162 6.46109 15.7038 6.46109C16.4897 6.46109 17.1293 7.10123 17.1293 7.88825V12.0952C17.1293 12.8822 16.4897 13.5224 15.7038 13.5224C14.9157 13.5224 14.275 12.8822 14.275 12.0952V7.88825ZM46.3335 48.3453H8.47318V10.485H12.6303V12.0947C12.6303 13.7882 14.0092 15.166 15.7033 15.166C17.3957 15.166 18.773 13.7882 18.773 12.0947V10.485H24.3243V12.0947C24.3243 13.7882 25.7033 15.166 27.3973 15.166C29.0898 15.166 30.467 13.7882 30.467 12.0947V10.485H36.02V12.0947C36.02 13.7882 37.3979 15.166 39.0914 15.166C40.7838 15.166 42.1611 13.7882 42.1611 12.0947V10.485H46.3324V48.3453H46.3335Z" fill="#001428"/>
<path d="M42.0272 21.226L37.8323 26.3964L36.0823 24.7259C35.754 24.4124 35.2339 24.4245 34.9198 24.7528C34.6064 25.0816 34.6184 25.6017 34.9467 25.9152L37.3412 28.2012C37.4947 28.3475 37.698 28.4286 37.909 28.4286C37.9265 28.4286 37.9435 28.4281 37.9611 28.427C38.1902 28.4128 38.4028 28.3026 38.5475 28.1245L43.3042 22.2624C43.5902 21.91 43.536 21.392 43.1836 21.1059C42.8312 20.8193 42.3133 20.8736 42.0272 21.226Z" fill="#001428"/>
</svg>
