<svg xmlns="http://www.w3.org/2000/svg" width="47" height="71" viewBox="0 0 47 71">
    <g fill="none" fill-rule="evenodd">
        <path fill="#1C9781" d="M22.04 16.13h5.164c10.707-.267 19.022 22.12 19.4 35.178.42 14.523-9.07 19.322-23.304 19.19h.517C9.583 70.63.093 65.83.513 51.307.891 38.25 9.204 15.863 19.911 16.13h5.165"/>
        <path stroke="#001428" stroke-linecap="round" stroke-linejoin="round" stroke-width="3" d="M22.04 16.13h5.164c10.707-.267 19.022 22.12 19.4 35.178.42 14.523-9.07 19.322-23.304 19.19h.517C9.583 70.63.093 65.83.513 51.307.891 38.25 9.204 15.863 19.911 16.13h5.165"/>
        <g>
            <path fill="#1C9781" d="M23.537 17.528c3.86 0 6.505-1.218 6.988-2.55l2.55-8.916C34.219 2.465 32.02.549 29.82.5h-7.912 3.302-7.913c-2.198.048-4.397 1.964-3.254 5.56l2.55 8.918c.484 1.33 3.129 2.549 6.989 2.549"/>
            <path stroke="#001428" stroke-linecap="round" stroke-linejoin="round" stroke-width="3" d="M23.537 17.528c3.86 0 6.505-1.218 6.988-2.55l2.55-8.916C34.219 2.465 32.02.549 29.82.5h-7.912 3.302-7.913c-2.198.048-4.397 1.964-3.254 5.56l2.55 8.918c.484 1.33 3.129 2.549 6.989 2.549"/>
        </g>
    </g>
</svg>
