<svg width="55" height="55" viewBox="0 0 55 55" fill="none" xmlns="http://www.w3.org/2000/svg">
<path fill-rule="evenodd" clip-rule="evenodd" d="M27.7646 5.81729C15.9357 5.81729 6.34634 15.4066 6.34634 27.2356C6.34634 39.0645 15.9357 48.6538 27.7646 48.6538C39.5935 48.6538 49.1829 39.0645 49.1829 27.2356C49.1829 15.4066 39.5935 5.81729 27.7646 5.81729ZM4.23096 27.2356C4.23096 14.2383 14.7674 3.7019 27.7646 3.7019C40.7618 3.7019 51.2983 14.2383 51.2983 27.2356C51.2983 40.2328 40.7618 50.7692 27.7646 50.7692C14.7674 50.7692 4.23096 40.2328 4.23096 27.2356Z" fill="#001428"/>
<path fill-rule="evenodd" clip-rule="evenodd" d="M20.3583 11.8461C18.256 15.7307 16.9233 21.1698 16.9233 27.2356C16.9233 33.3013 18.256 38.7404 20.3583 42.625C22.4832 46.5516 25.2429 48.6538 28.029 48.6538C30.8152 48.6538 33.5749 46.5516 35.6998 42.625C37.802 38.7404 39.1348 33.3013 39.1348 27.2356C39.1348 21.1698 37.802 15.7307 35.6998 11.8461C33.5749 7.91956 30.8152 5.81729 28.029 5.81729C25.2429 5.81729 22.4832 7.91956 20.3583 11.8461ZM18.4979 10.8393C20.7752 6.63108 24.0973 3.7019 28.029 3.7019C31.9608 3.7019 35.2829 6.63108 37.5602 10.8393C39.8602 15.0893 41.2502 20.8882 41.2502 27.2356C41.2502 33.5829 39.8602 39.3818 37.5602 43.6318C35.2829 47.84 31.9608 50.7692 28.029 50.7692C24.0973 50.7692 20.7752 47.84 18.4979 43.6318C16.1979 39.3818 14.8079 33.5829 14.8079 27.2356C14.8079 20.8882 16.1979 15.0893 18.4979 10.8393Z" fill="#001428"/>
<path fill-rule="evenodd" clip-rule="evenodd" d="M28.029 4.49517C28.6132 4.49517 29.0867 4.96872 29.0867 5.55287V49.9759C29.0867 50.5601 28.6132 51.0336 28.029 51.0336C27.4449 51.0336 26.9713 50.5601 26.9713 49.9759V5.55287C26.9713 4.96872 27.4449 4.49517 28.029 4.49517Z" fill="#001428"/>
<path fill-rule="evenodd" clip-rule="evenodd" d="M47.7851 15.858C47.7892 16.4421 47.319 16.9189 46.7349 16.923L8.99798 17.1875C8.41385 17.1915 7.937 16.7213 7.93291 16.1372C7.92881 15.5531 8.39903 15.0762 8.98316 15.0721L46.72 14.8077C47.3042 14.8036 47.781 15.2738 47.7851 15.858ZM4.7598 27.7644C4.7598 27.1803 5.23335 26.7067 5.8175 26.7067H50.2406C50.8247 26.7067 51.2983 27.1803 51.2983 27.7644C51.2983 28.3485 50.8247 28.8221 50.2406 28.8221H5.8175C5.23335 28.8221 4.7598 28.3485 4.7598 27.7644ZM47.7851 39.656C47.7892 40.2402 47.319 40.717 46.7349 40.7211L8.99798 40.9855C8.41385 40.9896 7.937 40.5194 7.93291 39.9353C7.92881 39.3511 8.39903 38.8743 8.98316 38.8702L46.72 38.6058C47.3042 38.6017 47.781 39.0719 47.7851 39.656Z" fill="#001428"/>
</svg>
