<svg xmlns="http://www.w3.org/2000/svg" width="76" height="76" viewBox="0 0 76 76">
    <g fill="none" fill-rule="evenodd">
        <path fill="#1C9781" d="M35.5.5c-1.223 0-2.307.634-2.9 1.696L.92 58.972c-.571 1.024-.558 2.239.036 3.25.6 1.024 1.67 1.633 2.862 1.633h63.365c1.192 0 2.262-.61 2.862-1.631.595-1.013.608-2.228.037-3.252L38.398 2.195C37.806 1.134 36.722.5 35.5.5" transform="translate(3 5)"/>
        <path stroke="#001428" stroke-linecap="round" stroke-linejoin="round" stroke-width="3" d="M35.5.5c-1.223 0-2.307.634-2.9 1.696L.92 58.972c-.571 1.024-.558 2.239.036 3.25.6 1.024 1.67 1.633 2.862 1.633h63.365c1.192 0 2.262-.61 2.862-1.631.595-1.013.608-2.228.037-3.252L38.398 2.195C37.806 1.134 36.722.5 35.5.5z" transform="translate(3 5)"/>
        <path fill="#001428" d="M37.666 53.175c0 1.196-.97 2.166-2.166 2.166s-2.166-.97-2.166-2.166c0-1.197.97-2.166 2.166-2.166s2.166.97 2.166 2.166" transform="translate(3 5)"/>
        <g>
            <path fill="#1C9781" d="M0.5 24.16L0.5 0.109" transform="translate(3 5) translate(35 21.356)"/>
            <path stroke="#001428" stroke-linecap="round" stroke-linejoin="round" stroke-width="3" d="M0.5 24.16L0.5 0.109" transform="translate(3 5) translate(35 21.356)"/>
        </g>
    </g>
</svg>
