<svg xmlns="http://www.w3.org/2000/svg" width="76" height="76" viewBox="0 0 76 76">
    <g fill="none" fill-rule="evenodd">
        <path fill="#1C9781" d="M69.479 37.983c0 17.959-14.558 32.518-32.517 32.518-17.958 0-32.516-14.56-32.516-32.518S19.004 5.468 36.962 5.468c17.959 0 32.517 14.558 32.517 32.517" transform="translate(3 3)"/>
        <path stroke="#001428" stroke-linecap="round" stroke-linejoin="round" stroke-width="3" d="M69.479 37.983c0 17.959-14.558 32.518-32.517 32.518-17.958 0-32.516-14.56-32.516-32.518S19.004 5.468 36.962 5.468c17.959 0 32.517 14.558 32.517 32.517z" transform="translate(3 3)"/>
        <g>
            <path fill="#1C9781" d="M.66 5.541C5.34.786 8.65.751 8.65.751" transform="translate(3 3) translate(6 44)"/>
            <path stroke="#001428" stroke-linecap="round" stroke-linejoin="round" stroke-width="3" d="M.66 5.541C5.34.786 8.65.751 8.65.751" transform="translate(3 3) translate(6 44)"/>
        </g>
        <g>
            <path fill="#1C9781" d="M.73.535S6.78 1.65 9.415 6.103l.125.275" transform="translate(3 3) translate(22 44)"/>
            <path stroke="#001428" stroke-linecap="round" stroke-linejoin="round" stroke-width="3" d="M.73.535S6.78 1.65 9.415 6.103l.125.275" transform="translate(3 3) translate(22 44)"/>
        </g>
        <g>
            <path fill="#1C9781" d="M.925 6.5l.14-.17C5.576 1.14 9.985.873 9.985.873" transform="translate(3 3) translate(41 38)"/>
            <path stroke="#001428" stroke-linecap="round" stroke-linejoin="round" stroke-width="3" d="M.925 6.5l.14-.17C5.576 1.14 9.985.873 9.985.873" transform="translate(3 3) translate(41 38)"/>
        </g>
        <g>
            <path fill="#1C9781" d="M.17.654s6.572 1.451 9.493 5.981" transform="translate(3 3) translate(59 38)"/>
            <path stroke="#001428" stroke-linecap="round" stroke-linejoin="round" stroke-width="3" d="M.17.654s6.572 1.451 9.493 5.981" transform="translate(3 3) translate(59 38)"/>
        </g>
        <g>
            <path fill="#1C9781" d="M.56.544s.767 2.059-.012 5.171c1.174 1.664 7.112 2.191 8.248-.442C8.234 2.842 8.522.185 8.522.185" transform="translate(3 3) translate(14 39)"/>
            <path stroke="#001428" stroke-linecap="round" stroke-linejoin="round" stroke-width="3" d="M.56.544s.767 2.059-.012 5.171c1.174 1.664 7.112 2.191 8.248-.442C8.234 2.842 8.522.185 8.522.185" transform="translate(3 3) translate(14 39)"/>
        </g>
        <g>
            <path fill="#1C9781" d="M.843.711S1.618 2.761.83 5.86c1.189 1.657 7.203 2.182 8.356-.44C8.615 3 8.906.354 8.906.354" transform="translate(3 3) translate(50 33)"/>
            <path stroke="#001428" stroke-linecap="round" stroke-linejoin="round" stroke-width="3" d="M.843.711S1.618 2.761.83 5.86c1.189 1.657 7.203 2.182 8.356-.44C8.615 3 8.906.354 8.906.354" transform="translate(3 3) translate(50 33)"/>
        </g>
        <path fill="#1C9781" d="M66.987 20.092c0 7.733-5.364 14.003-11.98 14.003-6.617 0-11.98-6.27-11.98-14.003 0-7.734 5.363-14.003 11.98-14.003 6.616 0 11.98 6.269 11.98 14.003" transform="translate(3 3)"/>
        <path stroke="#001428" stroke-linecap="round" stroke-linejoin="round" stroke-width="3" d="M66.987 20.092c0 7.733-5.364 14.003-11.98 14.003-6.617 0-11.98-6.27-11.98-14.003 0-7.734 5.363-14.003 11.98-14.003 6.616 0 11.98 6.269 11.98 14.003z" transform="translate(3 3)"/>
        <g>
            <path fill="#1C9781" d="M26.322 30.706s.661.883 1.94 2.12c1.46 1.412 2.908 2.046 2.908 2.046s6.105-7.757 4.884-18.459C34.842 5.783 27.267.253 17.594.253 10.484.252.5 4.533.5 18.71c0 11.518 8.691 17.167 8.691 17.167s.97-.862 1.724-2.083c.692-1.12 1.101-2.179 1.101-2.179" transform="translate(3 3) translate(0 6)"/>
            <path stroke="#001428" stroke-linecap="round" stroke-linejoin="round" stroke-width="3" d="M26.322 30.706s.661.883 1.94 2.12c1.46 1.412 2.908 2.046 2.908 2.046s6.105-7.757 4.884-18.459C34.842 5.783 27.267.253 17.594.253 10.484.252.5 4.533.5 18.71c0 11.518 8.691 17.167 8.691 17.167s.97-.862 1.724-2.083c.692-1.12 1.101-2.179 1.101-2.179" transform="translate(3 3) translate(0 6)"/>
        </g>
        <path fill="#1C9781" d="M30.486 26.14c0 7.627-5.288 13.81-11.814 13.81-6.524 0-11.814-6.183-11.814-13.81 0-7.626 5.29-13.81 11.814-13.81 6.526 0 11.814 6.184 11.814 13.81" transform="translate(3 3)"/>
        <path stroke="#001428" stroke-linecap="round" stroke-linejoin="round" stroke-width="3" d="M30.486 26.14c0 7.627-5.288 13.81-11.814 13.81-6.524 0-11.814-6.183-11.814-13.81 0-7.626 5.29-13.81 11.814-13.81 6.526 0 11.814 6.184 11.814 13.81z" transform="translate(3 3)"/>
        <path fill="#1C9781" d="M3.876 23.49s1.867.646 5.172-1.58c3.304-2.227 5.817-6.034 5.817-6.034s3.361 5.376 7.902 7.327c3.964 1.703 7.77 2.654 9.481 2.298 1.724-.359 2.011-3.16.503-6.752-1.329-3.162-3.16-7.326-10.344-9.194-7.938-2.064-11.754.741-14.868 3.664C2.87 17.6 3.876 23.49 3.876 23.49" transform="translate(3 3)"/>
        <g>
            <path fill="#1C9781" d="M25.074 10.262s-5.698-.24-10.056-3.208C9.706 3.434 8.794.086 8.794.086S7.68 3.319 4.448 5.976C2.01 7.983.246 8.096.246 8.096" transform="translate(3 3) translate(6 15)"/>
            <path stroke="#001428" stroke-linecap="round" stroke-linejoin="round" stroke-width="3" d="M25.074 10.262s-5.698-.24-10.056-3.208C9.706 3.434 8.794.086 8.794.086S7.68 3.319 4.448 5.976C2.01 7.983.246 8.096.246 8.096" transform="translate(3 3) translate(6 15)"/>
        </g>
        <g>
            <path fill="#1C9781" d="M20.99 6.742c3.231 1.103 5.731.155 8.212 2.966 2.281 2.585.304 7.11.304 7.11-2.509-3.803-8.262-1.523-14.296-2.51-3.954-.646-6.037-1.767-8.288-4.829 0 0-.135 2.637-.647 4.753-.57 2.358-1.597 4.83-4.334 5.97 0 0-2.28-3.347-1.52-9.43.471-3.775 2.774-7.223 5.433-6.036 0 0 3.008-4.047 10.231-4.229 7.528-.19 13.383 3.498 13.763 8.972" transform="translate(3 3) translate(39)"/>
            <path stroke="#001428" stroke-linecap="round" stroke-linejoin="round" stroke-width="3" d="M20.99 6.742c3.231 1.103 5.731.155 8.212 2.966 2.281 2.585.304 7.11.304 7.11-2.509-3.803-8.262-1.523-14.296-2.51-3.954-.646-6.037-1.767-8.288-4.829 0 0-.135 2.637-.647 4.753-.57 2.358-1.597 4.83-4.334 5.97 0 0-2.28-3.347-1.52-9.43.471-3.775 2.774-7.223 5.433-6.036 0 0 3.008-4.047 10.231-4.229 7.528-.19 13.383 3.498 13.763 8.972" transform="translate(3 3) translate(39)"/>
        </g>
        <g>
            <path fill="#1C9781" d="M.92 6.213l.358-.46C5.699.666 10.019.405 10.019.405" transform="translate(3 3) translate(23 61)"/>
            <path stroke="#001428" stroke-linecap="round" stroke-linejoin="round" stroke-width="3" d="M.92 6.213l.358-.46C5.699.666 10.019.405 10.019.405" transform="translate(3 3) translate(23 61)"/>
        </g>
        <g>
            <path fill="#1C9781" d="M.041.192s6.005 1.106 8.62 5.526l.281.646" transform="translate(3 3) translate(41 61)"/>
            <path stroke="#001428" stroke-linecap="round" stroke-linejoin="round" stroke-width="3" d="M.041.192s6.005 1.106 8.62 5.526l.281.646" transform="translate(3 3) translate(41 61)"/>
        </g>
        <g>
            <path fill="#1C9781" d="M.88 1.346s.761 2.009-.012 5.047c1.165 1.624 7.06 2.138 8.19-.432C8.499 3.589 8.784.995 8.784.995" transform="translate(3 3) translate(32 55)"/>
            <path stroke="#001428" stroke-linecap="round" stroke-linejoin="round" stroke-width="3" d="M.88 1.346s.761 2.009-.012 5.047c1.165 1.624 7.06 2.138 8.19-.432C8.499 3.589 8.784.995 8.784.995" transform="translate(3 3) translate(32 55)"/>
        </g>
        <path fill="#1C9781" d="M48.704 42.998c0 7.58-5.258 13.724-11.742 13.724-6.485 0-11.74-6.145-11.74-13.724 0-7.58 5.255-13.725 11.74-13.725 6.484 0 11.742 6.145 11.742 13.725" transform="translate(3 3)"/>
        <path stroke="#001428" stroke-linecap="round" stroke-linejoin="round" stroke-width="3" d="M48.704 42.998c0 7.58-5.258 13.724-11.742 13.724-6.485 0-11.74-6.145-11.74-13.724 0-7.58 5.255-13.725 11.74-13.725 6.484 0 11.742 6.145 11.742 13.725z" transform="translate(3 3)"/>
        <path fill="#1C9781" d="M23.358 45.672s1.7-1.802 3.075-5.596c1.384-3.823 1.523-5.919 1.523-5.919s1.192 2.761 6.649 3.989c6.909 1.554 7.794 1.035 10.934 2.364 3.764 1.595 3.398 5.984 3.398 5.984s5.355-.886 5.43-7.794c-.363-9.091-8.454-15.865-17.997-15.865-7.014 0-17.057 4.138-16.531 17.463.527 4.737 3.519 5.374 3.519 5.374" transform="translate(3 3)"/>
        <path stroke="#001428" stroke-linecap="round" stroke-linejoin="round" stroke-width="3" d="M23.358 45.672s1.7-1.802 3.075-5.596c1.384-3.823 1.523-5.919 1.523-5.919s1.192 2.761 6.649 3.989c6.909 1.554 7.794 1.035 10.934 2.364 3.764 1.595 3.398 5.984 3.398 5.984s5.355-.886 5.43-7.794c-.363-9.091-8.454-15.865-17.997-15.865-7.014 0-17.057 4.138-16.531 17.463.527 4.737 3.519 5.374 3.519 5.374z" transform="translate(3 3)"/>
    </g>
</svg>
