<svg width="55" height="55" viewBox="0 0 55 55" fill="none" xmlns="http://www.w3.org/2000/svg">
<path d="M42.4663 7.17468H12.3408C9.55715 7.17468 7.29199 9.43984 7.29199 12.224V32.9584C7.29199 35.7426 9.55715 38.0072 12.3408 38.0072H22.891V45.9876H14.7484C14.2946 45.9876 13.9263 46.3553 13.9263 46.8097C13.9263 47.264 14.2946 47.6318 14.7484 47.6318H40.0592C40.513 47.6318 40.8813 47.264 40.8813 46.8097C40.8813 46.3553 40.513 45.9876 40.0592 45.9876H31.9199V38.0072H42.4663C45.2504 38.0072 47.5156 35.7426 47.5156 32.9584V12.224C47.5156 9.43929 45.2504 7.17468 42.4663 7.17468ZM12.3408 8.81888H42.4663C44.3439 8.81888 45.8714 10.3463 45.8714 12.224V27.7913H8.93619V12.224C8.93619 10.3463 10.4636 8.81888 12.3408 8.81888ZM30.2757 45.987H24.5352V38.0066H30.2757V45.987ZM42.4663 36.3625H12.3408C10.4636 36.3625 8.93619 34.835 8.93619 32.9579V29.4355H45.8714V32.9579C45.8714 34.8355 44.3434 36.3625 42.4663 36.3625Z" fill="#001428"/>
<path d="M27.4032 30.3864C25.9405 30.3864 24.7506 31.5746 24.7506 33.0351C24.7506 34.4979 25.9405 35.6878 27.4032 35.6878C28.866 35.6878 30.0559 34.4979 30.0559 33.0351C30.0559 31.5746 28.866 30.3864 27.4032 30.3864ZM27.4032 34.0436C26.847 34.0436 26.3948 33.5909 26.3948 33.0351C26.3948 32.4811 26.847 32.0305 27.4032 32.0305C27.9595 32.0305 28.4117 32.4811 28.4117 33.0351C28.4117 33.5909 27.9595 34.0436 27.4032 34.0436Z" fill="#001428"/>
</svg>
