<svg width="55" height="55" viewBox="0 0 55 55" fill="none" xmlns="http://www.w3.org/2000/svg">
<path d="M49.4289 26.7547C49.3167 26.4181 49.0015 26.1909 48.6462 26.1909H33.0356C32.6803 26.1909 32.3651 26.4181 32.2529 26.7547L31.6298 28.623V14.8411H33.3155C33.7709 14.8411 34.1405 14.4721 34.1405 14.0161V9.59194C34.1405 9.13599 33.7709 8.76694 33.3155 8.76694H30.8917V5.68364C30.8917 5.22769 30.5221 4.85864 30.0667 4.85864H7.31866C6.86271 4.85864 6.49366 5.22769 6.49366 5.68364V8.76694H4.06816C3.61221 8.76694 3.24316 9.13599 3.24316 9.59194V14.0161C3.24316 14.4721 3.61221 14.8411 4.06816 14.8411H5.61916V49.3162C5.61916 49.7716 5.98821 50.1412 6.44416 50.1412H50.877C51.3324 50.1412 51.702 49.7716 51.702 49.3162V33.8387C51.7988 33.5758 49.4289 26.7547 49.4289 26.7547ZM49.8667 33.2832C49.1495 33.7072 48.3382 33.9322 47.4835 33.9322C46.6085 33.9322 45.7653 33.6693 45.0118 33.1935V27.8409H48.0517L49.8667 33.2832ZM38.3222 27.8409H43.3618V33.1941C42.6078 33.6693 41.7641 33.9327 40.889 33.9327C39.976 33.9327 39.0966 33.661 38.3222 33.144V27.8409ZM33.6301 27.8409H36.6716V33.1418C35.8939 33.6599 35.0128 33.9322 34.1015 33.9322C33.2831 33.9322 32.5015 33.7166 31.8019 33.3222L33.6301 27.8409ZM8.14366 6.50864H29.2422V8.76694H8.14366V6.50864ZM4.89316 10.4169H32.4911V13.1911H4.89316V10.4169ZM7.26916 14.8411H29.9803V48.4912H7.26916V14.8411ZM31.6303 48.4912V35.0844C32.4053 35.4117 33.2402 35.5822 34.102 35.5822C35.3071 35.5822 36.4692 35.2357 37.4961 34.5757C38.5196 35.2357 39.6812 35.5822 40.889 35.5822C42.0556 35.5822 43.1847 35.2588 44.1874 34.6411C45.1889 35.2588 46.3175 35.5822 47.4835 35.5822C48.3723 35.5822 49.2485 35.3935 50.052 35.0393V48.4912H31.6303Z" fill="#001428"/>
<path d="M22.3133 19.1058H15.0748C14.6188 19.1058 14.2498 19.4749 14.2498 19.9308V37.4632C14.2498 37.9186 14.6188 38.2882 15.0748 38.2882H22.3133C22.7693 38.2882 23.1383 37.9186 23.1383 37.4632V19.9308C23.1383 19.4749 22.7687 19.1058 22.3133 19.1058ZM21.4883 36.6382H15.8998V20.7558H21.4883V36.6382Z" fill="#001428"/>
</svg>
