<svg xmlns="http://www.w3.org/2000/svg" width="76" height="76" viewBox="0 0 76 76">
    <g fill="none" fill-rule="evenodd">
        <path fill="#1C9781" d="M49.254 19.508L49.254 70.499 0.5 70.499 0.5 0.499 30.224 0.499" transform="translate(4 3)"/>
        <path stroke="#001428" stroke-linecap="round" stroke-linejoin="round" stroke-width="3" d="M49.254 19.508L49.254 70.499 0.5 70.499 0.5 0.499 30.224 0.499" transform="translate(4 3)"/>
        <path fill="#1C9781" d="M49.254 19.415L30.32 19.512 30.32 0.5z" transform="translate(4 3)"/>
        <path stroke="#001428" stroke-linecap="round" stroke-linejoin="round" stroke-width="3" d="M49.254 19.415L30.32 19.512 30.32 0.5z" transform="translate(4 3)"/>
        <path fill="#1C9781" d="M27.668 61.084L36.913 59.02 62.778 33.154 55.597 25.974 29.731 51.837z" transform="translate(4 3)"/>
        <path stroke="#001428" stroke-linecap="round" stroke-linejoin="round" stroke-width="3" d="M27.668 61.084L36.913 59.02 62.778 33.154 55.597 25.974 29.731 51.837z" transform="translate(4 3)"/>
        <path fill="#1C9781" d="M60.706 20.863L67.888 28.045 62.778 33.155 55.597 25.973z" transform="translate(4 3)"/>
        <path stroke="#001428" stroke-linecap="round" stroke-linejoin="round" stroke-width="3" d="M60.706 20.863L67.888 28.045 62.778 33.155 55.597 25.973z" transform="translate(4 3)"/>
    </g>
</svg>
