<svg xmlns="http://www.w3.org/2000/svg" width="67" height="74" viewBox="0 0 67 74">
    <g fill="none" fill-rule="evenodd">
        <g fill="#001428" fill-rule="nonzero">
            <g transform="translate(-951 -2175) translate(951 2175)">
                <path d="M32.48 0c12.952 0 23.961 8.003 27.129 19.263 4.587 5.728 7.331 12.997 7.331 20.907 0 18.485-14.985 33.47-33.47 33.47S0 58.655 0 40.17c0-7.866 2.714-15.098 7.256-20.812C8.4 13.671 11.148 9.142 15.229 5.825 19.973 1.969 26.313 0 32.48 0zm7.386 59.326c-2.955 2.838-9.871 2.745-12.82.284l-.166.035c-.777.175-1.655.456-2.611.87-2.45 1.061-4.93 2.767-7.315 5.263 4.759 3.077 10.429 4.862 16.516 4.862 6.158 0 11.89-1.827 16.682-4.968-1.091-1.525-2.584-2.822-4.392-3.905-1.462-.877-3.04-1.56-4.62-2.07-.33-.107-.647-.202-.946-.284l-.328-.087zM6.651 25.694C4.322 30 3 34.93 3 40.17c0 9.654 4.49 18.26 11.496 23.843 2.752-2.956 5.666-4.989 8.58-6.25 1.246-.54 2.329-.877 3.197-1.068.408-1.933.34-3.943-.205-5.853l-.023-.095c-5.542-2.781-9.663-8.583-10.854-15.577l-.303.394c-.122.154-.245.307-.37.46-.357.433-.925.63-1.474.512-.284-.061-.694-.2-1.187-.447-.777-.39-1.544-.95-2.251-1.71-1.45-1.558-2.458-3.745-2.862-6.618l-.054-.415-.009-.117c-.02-.519-.03-1.03-.03-1.535zM60.452 26c-.298 4.26-1.936 7.39-4.504 9.482-1.006.82-2.083 1.417-3.163 1.83-.294.112-.563.202-.802.271l-.173.05-.309.076c-.094.02-.18.037-.257.05l-.087.011c-1.707 5.954-5.601 10.77-10.606 13.144-.107 1.864.006 3.736.334 5.576l.415.117.498.15.264.084c1.782.575 3.566 1.348 5.24 2.352 2.134 1.278 3.93 2.837 5.277 4.71C59.507 58.32 63.94 49.763 63.94 40.17c0-5.115-1.26-9.936-3.488-14.17zM29.375 52l.047.33c.191 1.558.14 3.138-.155 4.684l-.098.472.035.027c1.896 1.322 7.175 1.29 8.66-.407l.069-.086-.006-.03c-.292-1.645-.43-3.311-.415-4.979-1.298.333-2.651.508-4.042.508-1.408 0-2.778-.18-4.095-.52zM21.05 21.556l-.068.32c-.317 1.402-.713 2.776-1.182 4.11l-.24.663-.253.656c-.402 1.23-.891 2.426-1.463 3.58l-.003.104c0 10.281 7.054 18.53 15.63 18.53 8.058 0 14.774-7.284 15.554-16.694-.085-.252-.183-.5-.294-.74-.667-1.452-1.733-2.554-3.31-3.223-1.009-.423-1.862-.717-2.723-.943l-.488-.121-.607-.133-.53-.101-.288-.051-.632-.106-3.665-.576-1.513-.262-1.124-.209-1.16-.228-.598-.122-.61-.127-1.264-.274-.656-.146c-3.313-.744-5.9-1.911-7.841-3.368l-.286-.221-.261-.212-.125-.106zM32.48 3c-5.515 0-11.186 1.76-15.359 5.153-4.968 4.038-7.671 10.15-7.458 18.457l.013.445.043.322c.286 2.007.905 3.5 1.754 4.574l.162.197.167.187c.26.28.527.513.796.706l.202.137.093.056.323-.442c1.173-1.647 2.134-3.445 2.87-5.378l.215-.584.184-.542c1.06-2.68 1.782-5.48 2.147-8.338.187-1.465 2.13-1.785 2.803-.534l.062.13.062.114c.23.402.651.927 1.312 1.508l.206.176.22.179c1.61 1.274 3.874 2.33 6.923 3.014l.642.143 1.237.268.596.124 1.155.233.561.109.552.104 1.08.196.792.135 3.416.54 1.061.172.758.14.69.146.267.063c1.153.276 2.255.642 3.559 1.19 2.304.977 3.903 2.63 4.87 4.731.427.93.706 1.868.87 2.769l.063.383.028.219.192-.094c.296-.154.59-.33.877-.527l.286-.204.281-.22c2.107-1.716 3.396-4.387 3.448-8.27C56.956 12.542 45.94 3 32.48 3z"/>
                <circle cx="25.61" cy="32.77" r="1.55"/>
                <circle cx="41.34" cy="32.77" r="1.55"/>
                <path d="M35.374 41.362c.645-.246 1.367.077 1.614.722.246.645-.077 1.367-.722 1.614-1.797.686-3.785.686-5.582 0-.645-.247-.968-.97-.722-1.614.247-.645.97-.968 1.614-.722 1.223.468 2.575.468 3.798 0z"/>
            </g>
        </g>
    </g>
</svg>
