<svg xmlns="http://www.w3.org/2000/svg" width="73" height="61" viewBox="0 0 73 61">
    <path fill="#001428" d="M7.677.336L7.79.44l5.23 5.23c.585.586.585 1.536 0 2.122-.55.549-1.419.583-2.008.103L10.9 7.79 8.24 5.132l-.001 26.85c2.024.64 3.491 2.532 3.491 4.768 0 .183-.01.363-.029.54 1.085.632 2.156 1.488 3.32 2.581l1.528 1.478.527.495c1.272 1.16 2.166 1.667 3.096 1.718 2.058.112 3.26-2 4.916-8.334l.877-3.475.31-1.185c.632-2.347 1.123-3.77 1.809-5.186 1.337-2.762 3.13-4.375 5.609-4.52 2.308-.134 4.134.882 5.566 2.833l.244.345c.835 1.22 1.467 2.615 2.423 5.117l.53 1.395c2.184 5.746 3.755 7.784 6.826 7.768 2.85-.015 4.882-3.1 7.82-11.067l1.424-3.957.454-1.236c1.07-2.868 1.859-4.648 2.806-6.235.41-.688.836-1.298 1.282-1.827-.045-.268-.068-.545-.068-.828 0-2.761 2.239-5 5-5s5 2.239 5 5-2.239 5-5 5c-1.288 0-2.462-.487-3.348-1.287-.989 1.56-2.046 3.989-3.322 7.482l-1.262 3.514-.325.888c-1.32 3.583-2.257 5.71-3.443 7.647-1.925 3.145-4.177 4.891-7.002 4.906-2.684.014-4.796-1.15-6.453-3.3-1.141-1.48-1.931-3.118-3.04-6l-.545-1.435c-1.98-5.226-3.177-6.857-5.393-6.728-2.148.126-3.403 2.481-5.094 9.036l-.789 3.137c-.813 3.175-1.338 4.788-2.143 6.404-1.37 2.753-3.254 4.264-5.833 4.124-1.78-.098-3.218-.914-4.954-2.498l-.277-.257-1.535-1.483c-1.015-.975-1.903-1.718-2.769-2.257-.591.67-1.361 1.18-2.234 1.455V51.88l57.325.001-2.674-2.668c-.55-.549-.584-1.418-.105-2.008l.103-.114c.549-.55 1.418-.584 2.008-.105l.114.103 5.24 5.23c.55.55.584 1.42.103 2.01l-.103.114-5.24 5.23c-.587.585-1.536.584-2.122-.002-.548-.55-.582-1.42-.1-2.008l.102-.114 2.672-2.668H6.74c-.78 0-1.42-.595-1.493-1.356l-.007-.144V41.524c-2.034-.634-3.51-2.532-3.51-4.774s1.476-4.14 3.51-4.774V5.11L2.56 7.79c-.549.55-1.418.584-2.007.104L.44 7.79C-.11 7.24-.144 6.372.336 5.783L.44 5.67 5.67.44C6.22-.11 7.088-.144 7.677.336zM6.73 34.75c-1.105 0-2 .895-2 2s.895 2 2 2 2-.895 2-2-.895-2-2-2zM68 11.17c-1.105 0-2 .895-2 2s.895 2 2 2 2-.895 2-2-.895-2-2-2z"/>
</svg>
