<svg xmlns="http://www.w3.org/2000/svg" width="51" height="73" viewBox="0 0 51 73">
    <g fill="#001428">
        <path d="M2.5 0h27.986c.348-.022.709.077 1.016.324l.128.115 18.93 18.91c.29.289.428.64.442.99L51 70.5c0 1.325-1.032 2.41-2.336 2.495L48.5 73h-46C1.175 73 .09 71.968.005 70.664L0 70.5v-68C0 1.175 1.032.09 2.336.005L2.5 0zm26.57 3H3v67h45V21.917l-17.422.093c-.785.004-1.432-.596-1.502-1.363l-.006-.137V3zm3 2.119v13.883l13.824-.073L32.07 5.119z"/>
        <path d="M40.59 32.07c.828 0 1.5.672 1.5 1.5 0 .78-.595 1.42-1.356 1.493l-.144.007H10.41c-.828 0-1.5-.672-1.5-1.5 0-.78.595-1.42 1.356-1.493l.144-.007h30.18zM40.59 39.56c.828 0 1.5.672 1.5 1.5 0 .78-.595 1.42-1.356 1.493l-.144.007H10.41c-.828 0-1.5-.672-1.5-1.5 0-.78.595-1.42 1.356-1.493l.144-.007h30.18zM26.04 47.06c.828 0 1.5.672 1.5 1.5 0 .78-.595 1.42-1.356 1.493l-.144.007H10.41c-.828 0-1.5-.672-1.5-1.5 0-.78.595-1.42 1.356-1.493l.144-.007h15.63z"/>
    </g>
</svg>
