<svg xmlns="http://www.w3.org/2000/svg" width="59" height="74" viewBox="0 0 59 74">
    <g fill="#001428">
        <path d="M29.24.01c12.302 0 22.298 9.873 22.497 22.128l.003.372v3.217c3.95 1.638 6.753 5.482 6.876 9.994l.004.309v25.83c0 6.06-4.835 10.991-10.858 11.146l-.292.004H11.15C5.09 73.01.159 68.175.004 62.152L0 61.86V36.03c0-4.591 2.775-8.535 6.74-10.244V22.51c0-12.426 10.074-22.5 22.5-22.5zm18.23 27.87H11.15c-4.418 0-8.015 3.515-8.146 7.9L3 36.03v25.83c0 4.418 3.515 8.015 7.9 8.146l.25.004h36.32c4.418 0 8.015-3.515 8.146-7.9l.004-.25V36.03c0-4.418-3.515-8.015-7.9-8.146l-.25-.004zM29.24 3.01c-10.655 0-19.314 8.546-19.497 19.157l-.003.343v2.458c.308-.039.62-.065.935-.078l.475-.01h2.589l.001-2.37c0-5.297 2.703-10.209 7.135-13.05l.305-.19.31-.183c4.796-2.77 10.704-2.77 15.5 0 4.691 2.708 7.62 7.664 7.746 13.062l.004.361-.001 2.37h2.731c.43 0 .853.024 1.27.072V22.51c0-10.54-8.363-19.128-18.815-19.488l-.342-.009-.343-.003zm6.25 8.675c-3.868-2.233-8.632-2.233-12.5 0-3.77 2.177-6.13 6.154-6.246 10.49l-.004.335-.001 2.37h25l.001-2.37c0-4.354-2.265-8.386-5.963-10.654l-.287-.171z"/>
        <path d="M23.13 42.298c-1.175 2.456-.751 5.362 1.029 7.376l.071.078v4.212l.004-.077c-.142 1.875.778 3.671 2.383 4.652 1.604.981 3.622.981 5.226 0l.197-.127c1.418-.96 2.247-2.58 2.198-4.291l-.008-.137v-4.267l.097-.106c1.046-1.208 1.635-2.757 1.643-4.374.013-3.108-2.097-5.823-5.111-6.577-3.015-.754-6.155.647-7.607 3.394l-.123.244zm7-.728c1.675.42 2.847 1.927 2.84 3.654-.005 1.053-.456 2.055-1.24 2.759-.319.284-.5.69-.5 1.117V54l.004.113c.057.752-.312 1.473-.956 1.867-.643.393-1.453.393-2.096 0-.598-.366-.96-1.013-.962-1.706l.01-.274v-4.87c0-.428-.183-.836-.503-1.12-1.29-1.148-1.629-3.028-.822-4.554.806-1.526 2.55-2.305 4.225-1.886z"/>
    </g>
</svg>
