<svg xmlns="http://www.w3.org/2000/svg" width="73" height="62" viewBox="0 0 73 62">
    <g fill="#001428">
        <path d="M56.93.384c.507.317.881.803 1.06 1.371l.053.193 1.86 8.191 3.557.001c3.08 0 5.59 2.439 5.706 5.491l.004.219v8.887c2.155.75 3.723 2.758 3.825 5.145l.005.248V41.3c0 2.495-1.6 4.616-3.83 5.393v8.887c0 3.08-2.439 5.59-5.491 5.706l-.219.004H5.71c-3.08 0-5.59-2.439-5.706-5.491L0 55.58V15.85c0-3.08 2.439-5.59 5.491-5.706l.219-.004h4.96L55.042.068c.646-.15 1.326-.036 1.888.315zm6.53 12.756H5.71c-1.441 0-2.62 1.125-2.705 2.545L3 15.85v39.73c0 1.441 1.125 2.62 2.545 2.705l.165.005h57.75c1.441 0 2.62-1.125 2.705-2.545l.005-.165-.001-8.57H48.28c-3.08 0-5.59-2.439-5.706-5.491l-.004-.219V30.13c0-3.08 2.439-5.59 5.491-5.706l.219-.004h17.889l.001-8.57c0-1.441-1.125-2.62-2.545-2.705l-.165-.005zm3.83 14.28H48.28c-1.441 0-2.62 1.125-2.705 2.545l-.005.165V41.3c0 1.441 1.125 2.62 2.545 2.705l.165.005h19.01c1.441 0 2.62-1.125 2.705-2.545L70 41.3V30.13c0-1.441-1.125-2.62-2.545-2.705l-.165-.005zM55.228 3.102l-31.005 7.037h32.603l-1.598-7.037z"/>
        <path d="M53.93 30.49c-2.888 0-5.23 2.342-5.23 5.23 0 2.888 2.342 5.23 5.23 5.23 2.888 0 5.23-2.342 5.23-5.23 0-2.888-2.342-5.23-5.23-5.23zm0 3c1.232 0 2.23.998 2.23 2.23s-.998 2.23-2.23 2.23-2.23-.998-2.23-2.23.998-2.23 2.23-2.23z"/>
    </g>
</svg>
