<svg xmlns="http://www.w3.org/2000/svg" width="73" height="63" viewBox="0 0 73 63">
    <g fill="#001428">
        <path d="M67.29 0C70.444 0 73 2.556 73 5.71v44.62c0 3.046-2.385 5.535-5.39 5.701v4.779c0 .78-.595 1.42-1.356 1.493l-.144.007H54.7c-.78 0-1.42-.595-1.493-1.356l-.007-.144v-4.771H19.799l.001 4.771c0 .78-.595 1.42-1.356 1.493l-.144.007H6.89c-.78 0-1.42-.595-1.493-1.356l-.007-.144v-4.779C2.384 55.865 0 53.376 0 50.33V5.71C0 2.556 2.556 0 5.71 0zm-2.68 56.039H56.2v3.271h8.41v-3.271zm-47.811 0h-8.41v3.271h8.41v-3.271zM67.29 3H5.71C4.213 3 3 4.213 3 5.71v44.62c0 1.497 1.213 2.71 2.71 2.71h61.58c1.497 0 2.71-1.213 2.71-2.71V5.71C70 4.213 68.787 3 67.29 3z"/>
        <path d="M46.45 12.86c8.373 0 15.16 6.787 15.16 15.16 0 8.373-6.787 15.16-15.16 15.16-8.373 0-15.16-6.787-15.16-15.16 0-8.373 6.787-15.16 15.16-15.16zm-1.772 3.128c-2.032.297-3.901 1.096-5.477 2.268l.37.37c.524.462.723 1.187.52 1.846l-.054.151c-.267.651-.89 1.078-1.555 1.099l-.143-.002c-.425.007-.836-.14-1.157-.41l-.116-.106-.402-.403c-1.153 1.56-1.941 3.404-2.24 5.409H35c.934 0 1.7.72 1.774 1.634l.006.146c0 .934-.72 1.7-1.634 1.774L35 29.77l-.585.001c.294 2.037 1.093 3.911 2.266 5.49l.432-.43c.663-.572 1.636-.573 2.298-.024l.12.11c.622.617.697 1.587.175 2.315l-.105.134-.414.408c1.582 1.18 3.46 1.983 5.502 2.28l.003-.53c-.055-.62.217-1.218.71-1.585l.128-.087c.573-.353 1.297-.353 1.87 0 .53.327.846.903.847 1.483l-.007.145-.001.57c2.04-.302 3.917-1.11 5.495-2.292l-.415-.412c-.642-.671-.656-1.714-.057-2.4l.112-.117c.671-.642 1.714-.656 2.393-.063l.117.11.356.358c1.158-1.569 1.948-3.426 2.242-5.443L58 29.79c-.983 0-1.78-.797-1.78-1.78 0-.934.72-1.7 1.634-1.774L58 26.23h.479c-.299-2.024-1.096-3.886-2.263-5.456l-.377.374c-.291.285-.67.46-1.067.502l-.171.01c-.48.01-.941-.178-1.274-.516-.333-.332-.521-.783-.521-1.254 0-.412.144-.809.403-1.124l.117-.13.377-.377c-1.572-1.17-3.437-1.97-5.464-2.268l.001.519c0 .934-.72 1.7-1.634 1.774l-.146.006c-.934 0-1.7-.72-1.774-1.634l-.006-.146-.002-.522z"/>
        <path d="M46.45 22.79c-2.888 0-5.23 2.342-5.23 5.23 0 2.888 2.342 5.23 5.23 5.23 2.888 0 5.23-2.342 5.23-5.23 0-2.888-2.342-5.23-5.23-5.23zm0 3c1.232 0 2.23.998 2.23 2.23s-.998 2.23-2.23 2.23-2.23-.998-2.23-2.23.998-2.23 2.23-2.23zM11.09 11.21c.78 0 1.42.595 1.493 1.356l.007.144v30.62c0 .828-.672 1.5-1.5 1.5-.78 0-1.42-.595-1.493-1.356l-.007-.144V12.71c0-.828.672-1.5 1.5-1.5zM17.88 11.21c.78 0 1.42.595 1.493 1.356l.007.144v30.62c0 .828-.672 1.5-1.5 1.5-.78 0-1.42-.595-1.493-1.356l-.007-.144V12.71c0-.828.672-1.5 1.5-1.5z"/>
    </g>
</svg>
