<?xml version="1.0" encoding="utf-8"?>
<!-- Generator: Adobe Illustrator 24.0.3, SVG Export Plug-In . SVG Version: 6.00 Build 0)  -->
<svg version="1.1" id="Layer_1" xmlns="http://www.w3.org/2000/svg" xmlns:xlink="http://www.w3.org/1999/xlink" x="0px" y="0px"
	 viewBox="0 0 1366 768" style="enable-background:new 0 0 1366 768;" xml:space="preserve">
<style type="text/css">
	.st0{fill:none;stroke-miterlimit:10;stroke-width:2}
</style>
<g>
	<path class="st0" d="M-184,311c0,0,53.2-72.4,143.5-69.5c158,5,159.4,357.4,405.5,367.5c305.5,12.5,548-360,818-360
		c202.5,0,337,126,337,126"/>
	<path class="st0" d="M1516.9,397.1c0,0-136.4-126-333.9-126c-270,0-521,371-818,358.4C118.9,619.1,111.1,270.3-37.1,264.9
		c-90.3-3.6-141.9,65.6-141.9,65.6"/>
	<path class="st0" d="M1513.7,419.3c0,0-138.2-126-330.7-126c-270,0-529.5,369.5-818,356.9C118.9,639.2,104.8,294.5-33.8,288.2
		C-124,284.1-174.1,350-174.1,350"/>
	<path class="st0" d="M1510.6,441.4c0,0-140.1-126-327.6-126c-270,0-538,368-818,355.3C118.9,659.4,98.4,318.3-30.4,311.6
		c-90.2-4.7-138.8,57.9-138.8,57.9"/>
	<path class="st0" d="M1507.4,463.6c0,0-141.9-126-324.4-126c-270,0-546.5,366.5-818,353.7C118.9,679.5,92,342.1-27.1,334.9
		c-90.2-5.4-137.2,54.1-137.2,54.1"/>
	<path class="st0" d="M1504.3,485.7c0,0-143.8-126-321.3-126c-270,0-555,365-818,352.1c-246-12.2-279.3-346-388.7-353.6
		c-90.1-6.2-135.6,50.2-135.6,50.2"/>
	<path class="st0" d="M1501.1,507.9c0,0-145.6-126-318.1-126c-270,0-563.5,363.5-818,350.6c-246-12.6-285.7-343-385.4-350.8
		c-90.1-7.1-134.1,46.4-134.1,46.4"/>
	<path class="st0" d="M1498,530c0,0-147.5-126-315-126c-270,0-572,362-818,349S73,413-17,405s-132.5,42.5-132.5,42.5"/>
</g>
</svg>
