<svg xmlns="http://www.w3.org/2000/svg" viewBox="0 0 1715 552">
    <g fill="none" fill-rule="evenodd" stroke="#008C73" stroke-width="1">
        <path d="M0 69.605S67.811-2.816 182.912.085c201.394 5.001 203.179 357.504 516.87 367.607C1089.187 380.196 1398.289 7.587 1742.444 7.587 2000.56 7.587 2172 133.624 2172 133.624" transform="translate(-380 20)"/>
        <path d="M2169 156.318S1995.112 30.335 1743.331 30.335c-344.206 0-664.191 370.95-1042.818 358.351C386.775 378.288 376.83 29.535 187.9 24.136 72.782 20.536 7 89.726 7 89.726" transform="translate(-380 20)"/>
        <path d="M2165 178.103S1988.872 52.276 1743.543 52.276c-344.1 0-674.816 368.992-1042.492 356.41C387.41 397.7 369.44 53.474 192.804 47.182 77.849 43.09 14 108.898 14 108.898" transform="translate(-380 20)"/>
        <path d="M2161 200.17S1982.435 74.056 1743.455 74.056c-344.13 0-685.711 368.334-1042.587 355.622-313.668-11.31-339.797-352.72-503.96-359.426C81.943 65.548 20 128.205 20 128.205" transform="translate(-380 20)"/>
        <path d="M2156 223.02S1975.198 97.046 1742.665 97.046c-344.021 0-696.324 366.424-1042.256 353.626-313.57-11.797-347.844-349.127-499.595-356.326C85.885 88.948 26 148.436 26 148.436" transform="translate(-380 20)"/>
        <path d="M2152 244.828s-183.25-125.854-409.447-125.854c-344.073 0-707.261 364.577-1042.414 351.692-313.489-12.187-355.925-345.6-495.338-353.19C89.983 111.283 32 167.617 32 167.617" transform="translate(-380 20)"/>
        <path d="M2148 266.927s-185.65-126.079-405.599-126.079c-344.268 0-718.5 363.724-1043.004 350.816-313.666-12.607-364.286-343.21-491.41-351.015C93.102 133.545 37 187.077 37 187.077" transform="translate(-380 20)"/>
        <path d="M2144 288.877S1956.077 163 1742.674 163C1398.68 163 1013.916 524.646 700.5 511.658 387.083 498.671 328.476 171.991 213.812 164 99.147 156.007 45 206.457 45 206.457" transform="translate(-380 20)"/>
    </g>
</svg>
