<svg xmlns="http://www.w3.org/2000/svg" viewBox="0 0 1442 519">
    <g fill="none" fill-rule="evenodd" stroke-linecap="round" stroke-linejoin="round">
        <g stroke="#008C73">
            <g>
                <path d="M.528 436.295c43.893 34.023 123.256 81.379 225.146 81.485 315.868.327 544.666-340.539 873.846-340.539 174.95 0 293.984 65.376 341.868 97.446" transform="translate(1 -203) translate(-1 203)"/>
                <path d="M.528 421.854C43.47 456.362 121.45 504.225 223.72 504.32c315.868.306 546.06-343.145 878.28-343.145 169.482 0 287.935 61.121 339.387 93.994" transform="translate(1 -203) translate(-1 203)"/>
                <path d="M.528 407.434c42.004 35.005 118.6 83.353 221.24 83.437 315.868.275 547.443-345.763 882.703-345.763 164.584 0 282.404 57.416 336.917 90.721" transform="translate(1 -203) translate(-1 203)"/>
                <path d="M.528 393.024c41.075 35.48 116.3 84.314 219.287 84.388 315.868.243 548.826-348.37 887.136-348.37 160.13 0 277.285 54.143 334.437 87.627" transform="translate(1 -203) translate(-1 203)"/>
                <path d="M.528 378.646c40.135 35.966 113.998 85.254 217.324 85.317 315.867.211 550.208-350.978 891.559-350.978 156.034 0 272.492 51.209 331.966 84.694" transform="translate(1 -203) translate(-1 203)"/>
                <path d="M.528 364.28c39.217 36.44 111.718 86.17 215.37 86.234 315.869.18 551.592-353.596 895.994-353.596 152.233 0 267.963 48.56 329.485 81.907" transform="translate(1 -203) translate(-1 203)"/>
                <path d="M.528 349.933c38.288 36.926 109.448 87.08 213.418 87.132 315.868.148 552.974-356.203 900.416-356.203 148.686 0 263.666 46.142 327.015 79.246" transform="translate(1 -203) translate(-1 203)"/>
                <path d="M.528 335.608c37.37 37.39 107.2 87.956 211.465 87.998 315.868.116 554.357-358.822 904.85-358.822 145.36 0 259.57 43.936 324.545 76.703" transform="translate(1 -203) translate(-1 203)"/>
                <path d="M.528 321.304C36.99 359.17 105.49 410.125 210.04 410.147c315.868.095 555.75-361.43 909.283-361.43 142.216 0 255.633 41.888 322.065 74.275" transform="translate(1 -203) translate(-1 203)"/>
                <path d="M.528 307.032c35.554 38.33 102.745 89.645 207.56 89.666C523.954 396.76 765.22 32.65 1121.793 32.65c139.249 0 251.854 39.998 319.594 71.952" transform="translate(1 -203) translate(-1 203)"/>
                <path d="M.528 292.78c34.656 38.796 100.55 90.448 205.606 90.458 315.868.032 558.517-366.654 918.14-366.654 136.42 0 248.202 38.246 317.114 69.714" transform="translate(1 -203) translate(-1 203)"/>
                <path d="M.528 278.456C34.266 317.715 98.798 369.8 204.18 369.8 520.05 369.8 764.081.538 1126.745.538c133.717 0 244.675 36.6 314.643 67.572" transform="translate(1 -203) translate(-1 203)"/>
            </g>
        </g>
    </g>
</svg>
