<svg xmlns="http://www.w3.org/2000/svg" xmlns:xlink="http://www.w3.org/1999/xlink" width="56" height="56" viewBox="0 0 56 56">
    <defs>
        <path id="prefix__a" d="M0.041 0.003L53.044 0.003 53.044 8.278 0.041 8.278z"/>
    </defs>
    <g fill="none" fill-rule="evenodd">
        <g transform="translate(2.905 40.524)">
            <mask id="prefix__b" fill="#fff">
                <use xlink:href="#prefix__a"/>
            </mask>
            <path fill="#008C73" d="M53.044.003H.04C1.61 3.146 3.753 5.95 6.329 8.278h41.316c2.215-2.433 4.046-5.223 5.399-8.275" mask="url(#prefix__b)"/>
        </g>
        <path fill="#FFF" d="M14.882 44.543c.599 0 .923-.292.923-.785 0-.45-.275-.784-.898-.784h-.723v1.569h.698zm-2.052-2.796h2.302c1.462 0 2.11.86 2.11 2.045 0 .86-.382 1.477-1.113 1.777l1.404 2.103h-1.629l-1.213-1.91h-.507v1.91H12.83v-5.925zM18.423 47.672L19.844 47.672 19.844 41.747 18.423 41.747zM21.159 41.747L22.496 41.747 24.848 45.402 24.865 45.394 24.865 41.747 26.236 41.747 26.236 47.672 24.856 47.672 22.546 44.117 22.53 44.117 22.53 47.672 21.159 47.672zM27.545 41.747L28.933 41.747 28.933 44.017 28.95 44.017 30.661 41.747 32.415 41.747 30.287 44.317 32.489 47.672 30.786 47.672 29.373 45.419 28.933 45.962 28.933 47.672 27.545 47.672zM33.214 41.747L37.061 41.747 37.061 42.991 34.568 42.991 34.568 44.126 36.538 44.126 36.538 45.327 34.568 45.327 34.568 46.429 37.236 46.429 37.236 47.672 33.214 47.672zM40.61 46.462c.465 0 .74-.217.74-.634 0-.4-.275-.643-.79-.643h-.898v1.277h.948zm-.192-2.336c.433 0 .682-.192.682-.585 0-.342-.183-.575-.756-.575h-.682v1.16h.756zm-2.11-2.379h2.235c1.305 0 1.936.534 1.936 1.444 0 .509-.207 1.043-.889 1.31v.017c.84.217 1.197.767 1.197 1.502 0 .96-.623 1.652-1.945 1.652h-2.534v-5.925zM44.857 45.094L42.937 41.747 44.524 41.747 45.563 43.716 45.58 43.716 46.602 41.747 48.206 41.747 46.269 45.094 46.269 47.672 44.857 47.672z"/>
        <path fill="#001428" d="M12.825 51.555c4.34 2.802 9.504 4.429 15.047 4.429 5.543 0 10.707-1.627 15.047-4.429H12.825zM27.611 20.061c3.942 0 7.208 2.909 7.787 6.705H48.272c.757 0 1.37.617 1.37 1.377s-.613 1.376-1.37 1.376H35.338c-.716 3.63-3.903 6.366-7.727 6.366-4.351 0-7.878-3.542-7.878-7.912s3.527-7.912 7.878-7.912zm26.382 17.713c1.132-3.045 1.752-6.341 1.752-9.782C55.745 12.532 43.265 0 27.872 0S0 12.532 0 27.992c0 3.441.62 6.737 1.751 9.782h52.242z"/>
    </g>
</svg>
