<svg xmlns="http://www.w3.org/2000/svg" width="26" height="20" viewBox="0 0 26 20">
    <g fill="none" fill-rule="evenodd">
        <path d="M0 0H36V36H0z" transform="translate(-5 -8)"/>
        <path fill="#B2B5B2" fill-rule="nonzero" d="M29 8c1.054 0 1.918.816 1.995 1.85L31 10v16c0 1.054-.816 1.918-1.85 1.995L29 28H7c-1.054 0-1.918-.816-1.995-1.85L5 26V10c0-1.054.816-1.918 1.85-1.995L7 8h22zm0 3.248l-10.343 9.006c-.345.3-.845.326-1.216.075l-.098-.075L7 11.25V26h22V11.248zM27.388 10H8.611L18 18.173 27.388 10z" transform="translate(-5 -8)"/>
    </g>
</svg>
