<svg xmlns="http://www.w3.org/2000/svg" width="29" height="23" viewBox="0 0 29 23">
    <g fill="none" fill-rule="evenodd">
        <path d="M0 0H36V36H0z" transform="translate(-3 -7)"/>
        <path fill="#000" fill-rule="nonzero" d="M7.1 12.144c.034-.336-.094-.668-.344-.894L4.202 8.174v-.46h7.929l6.129 13.441 5.388-13.44h7.559v.459l-2.184 2.093c-.188.144-.281.38-.242.613V26.26c-.04.234.054.47.242.613l2.133 2.093v.46H20.43v-.46l2.21-2.144c.216-.217.216-.281.216-.613V13.777l-6.141 15.599h-.83l-7.15-15.599v10.455c-.06.44.086.882.395 1.2l2.873 3.484v.46H3.857v-.46l2.873-3.484c.307-.319.445-.764.37-1.2V12.144z" transform="translate(-3 -7)"/>
    </g>
</svg>
