<svg width="195" height="27" viewBox="0 0 195 27" fill="none" xmlns="http://www.w3.org/2000/svg">
    <g clip-path="url(#clip0_104_125)">
        <path d="M9.8463 26.3664C6.95319 26.3664 4.58279 25.699 2.73508 24.3641C0.911694 23.0055 0 21.0748 0 18.572C0 18.0476 0.0607795 17.4041 0.182339 16.6413C0.498393 14.9252 0.948163 12.8634 1.53165 10.456C3.18486 3.9012 7.45159 0.623779 14.3318 0.623779C16.2038 0.623779 17.8814 0.933644 19.3644 1.55337C20.8475 2.14927 22.0143 3.05502 22.8653 4.27064C23.7162 5.46243 24.1416 6.89257 24.1416 8.56108C24.1416 9.06163 24.0809 9.69327 23.9594 10.456C23.5946 12.5774 23.157 14.6392 22.6465 16.6413C21.7955 19.9069 20.3247 22.35 18.2339 23.9709C16.143 25.5678 13.3472 26.3664 9.8463 26.3664ZM10.3569 21.2178C11.7183 21.2178 12.8731 20.8245 13.8213 20.0379C14.7937 19.2514 15.4866 18.0476 15.8999 16.4269C16.4592 14.1863 16.8845 12.2318 17.1764 10.5633C17.2736 10.0627 17.3222 9.55025 17.3222 9.02587C17.3222 6.85682 16.1673 5.77229 13.8577 5.77229C12.4963 5.77229 11.3293 6.16559 10.3569 6.95217C9.40868 7.73874 8.72795 8.94244 8.31466 10.5633C7.87704 12.1603 7.43943 14.1148 7.00181 16.4269C6.90456 16.9035 6.85594 17.4041 6.85594 17.9285C6.85594 20.1213 8.02291 21.2178 10.3569 21.2178Z" fill="#FF0420"/>
        <path d="M27.8421 26.0088C27.5746 26.0088 27.368 25.9254 27.2221 25.7586C27.1006 25.5678 27.0641 25.3534 27.1127 25.115L32.1452 1.87516C32.1939 1.61297 32.3276 1.39845 32.5464 1.2316C32.7652 1.06475 32.9962 0.981323 33.2393 0.981323H42.9397C45.6383 0.981323 47.8021 1.52954 49.431 2.62599C51.0842 3.72243 51.9108 5.30751 51.9108 7.38121C51.9108 7.9771 51.8379 8.59683 51.692 9.24039C51.0842 11.9815 49.8564 14.0075 48.0088 15.3186C46.1854 16.6295 43.6812 17.2849 40.4963 17.2849H35.5732L33.8957 25.115C33.8471 25.3772 33.7133 25.5916 33.4945 25.7586C33.2757 25.9254 33.0448 26.0088 32.8016 26.0088H27.8421ZM40.7516 12.351C41.7728 12.351 42.6602 12.0769 43.4138 11.5286C44.1918 10.9804 44.7023 10.1938 44.9454 9.16889C45.0184 8.76368 45.0549 8.40615 45.0549 8.09628C45.0549 7.40505 44.8482 6.88066 44.4349 6.52312C44.0217 6.14176 43.3165 5.95107 42.3198 5.95107H37.9436L36.5578 12.351H40.7516Z" fill="#FF0420"/>
        <path d="M60.1275 26.0088C59.8601 26.0088 59.6534 25.9254 59.5075 25.7586C59.3617 25.5678 59.313 25.3534 59.3616 25.115L63.4096 6.59464H56.9183C56.6509 6.59464 56.4442 6.5112 56.2983 6.34437C56.1768 6.15368 56.1404 5.93915 56.189 5.70079L57.0278 1.87516C57.0764 1.61297 57.21 1.39845 57.4288 1.2316C57.6476 1.06475 57.8786 0.981323 58.1217 0.981323H77.7414C78.0089 0.981323 78.2154 1.06475 78.3614 1.2316C78.4586 1.37461 78.5073 1.51763 78.5073 1.66064C78.5073 1.73215 78.495 1.80366 78.4707 1.87516L77.632 5.70079C77.5834 5.96299 77.4497 6.17752 77.2308 6.34437C77.0363 6.5112 76.8054 6.59464 76.538 6.59464H70.0831L66.0352 25.115C65.9866 25.3772 65.8529 25.5916 65.6342 25.7586C65.4152 25.9254 65.1844 26.0088 64.9412 26.0088H60.1275Z" fill="#FF0420"/>
        <path d="M79.4374 26.0088C79.17 26.0088 78.9634 25.9254 78.8175 25.7586C78.6715 25.5678 78.6229 25.3534 78.6716 25.115L83.7406 1.87516C83.7893 1.61297 83.923 1.39845 84.1418 1.2316C84.3606 1.06475 84.5915 0.981323 84.8347 0.981323H89.7578C90.0252 0.981323 90.2319 1.06475 90.3778 1.2316C90.475 1.37461 90.5236 1.51763 90.5236 1.66064C90.5236 1.73215 90.5114 1.80366 90.4871 1.87516L85.4546 25.115C85.4059 25.3772 85.2723 25.5916 85.0535 25.7586C84.8347 25.9254 84.6037 26.0088 84.3606 26.0088H79.4374Z" fill="#FF0420"/>
        <path d="M93.3235 26.0088C93.0561 26.0088 92.8494 25.9254 92.7035 25.7586C92.5577 25.5916 92.509 25.3772 92.5577 25.115L97.5902 1.87516C97.6388 1.61297 97.7725 1.39845 97.9913 1.2316C98.2102 1.06475 98.4533 0.981323 98.7207 0.981323H102.659C103.243 0.981323 103.619 1.24352 103.79 1.7679L107.765 13.0303L116.626 1.7679C116.748 1.57722 116.918 1.39845 117.137 1.2316C117.38 1.06475 117.672 0.981323 118.012 0.981323H121.987C122.255 0.981323 122.461 1.06475 122.607 1.2316C122.704 1.37461 122.753 1.51763 122.753 1.66064C122.753 1.73215 122.741 1.80366 122.716 1.87516L117.684 25.115C117.635 25.3772 117.502 25.5916 117.283 25.7586C117.064 25.9254 116.833 26.0088 116.59 26.0088H112.177C111.91 26.0088 111.703 25.9254 111.557 25.7586C111.436 25.5678 111.399 25.3534 111.448 25.115L114.292 11.9219L108.713 19.1799C108.47 19.4421 108.239 19.6447 108.02 19.7877C107.801 19.9307 107.546 20.0023 107.254 20.0023H105.358C104.847 20.0023 104.495 19.7281 104.3 19.1799L101.711 11.6001L98.7936 25.115C98.745 25.3772 98.6112 25.5916 98.3925 25.7586C98.1737 25.9254 97.9427 26.0088 97.6996 26.0088H93.3235Z" fill="#FF0420"/>
        <path d="M125.513 26.0088C125.245 26.0088 125.039 25.9254 124.893 25.7586C124.747 25.5678 124.698 25.3534 124.747 25.115L129.816 1.87516C129.865 1.61297 129.998 1.39845 130.217 1.2316C130.436 1.06475 130.667 0.981323 130.91 0.981323H135.833C136.101 0.981323 136.308 1.06475 136.453 1.2316C136.551 1.37461 136.599 1.51763 136.599 1.66064C136.599 1.73215 136.587 1.80366 136.562 1.87516L131.53 25.115C131.482 25.3772 131.348 25.5916 131.128 25.7586C130.91 25.9254 130.679 26.0088 130.436 26.0088H125.513Z" fill="#FF0420"/>
        <path d="M148.407 26.3664C146.267 26.3664 144.431 26.0804 142.9 25.5082C141.392 24.9362 140.249 24.1735 139.472 23.2201C138.718 22.2666 138.341 21.2059 138.341 20.0379C138.341 19.8473 138.366 19.5613 138.414 19.1799C138.463 18.9654 138.561 18.7866 138.706 18.6436C138.876 18.5006 139.07 18.429 139.29 18.429H143.957C144.249 18.429 144.468 18.4768 144.613 18.572C144.784 18.6674 144.954 18.8342 145.124 19.0726C145.295 19.6923 145.683 20.2049 146.292 20.6101C146.923 21.0152 147.787 21.2178 148.88 21.2178C150.266 21.2178 151.385 21.0033 152.235 20.5743C153.087 20.1453 153.598 19.5613 153.767 18.8224C153.791 18.727 153.803 18.584 153.803 18.3934C153.803 17.7974 153.427 17.3326 152.673 16.9989C151.919 16.6413 150.534 16.2243 148.516 15.7475C146.158 15.247 144.37 14.4962 143.155 13.4951C141.939 12.4701 141.332 11.1353 141.332 9.49067C141.332 8.9186 141.405 8.33463 141.551 7.73874C142.037 5.52203 143.241 3.78201 145.161 2.51872C147.105 1.25543 149.609 0.623779 152.673 0.623779C154.521 0.623779 156.163 0.945561 157.596 1.58913C159.03 2.23269 160.137 3.05502 160.915 4.05613C161.717 5.03339 162.118 6.01066 162.118 6.98792C162.118 7.27395 162.106 7.47654 162.081 7.59573C162.033 7.81024 161.924 7.98901 161.754 8.13203C161.608 8.27505 161.425 8.34655 161.207 8.34655H156.32C155.786 8.34655 155.42 8.14394 155.227 7.73874C155.202 7.19052 154.909 6.72572 154.35 6.34436C153.791 5.96298 153.062 5.77229 152.162 5.77229C151.093 5.77229 150.206 5.96298 149.5 6.34436C148.82 6.72572 148.394 7.28587 148.225 8.02477C148.2 8.14394 148.187 8.29888 148.187 8.48956C148.187 9.06163 148.528 9.53834 149.209 9.91971C149.913 10.2772 151.142 10.6467 152.892 11.0281C155.615 11.5525 157.596 12.3033 158.837 13.2805C160.1 14.2578 160.732 15.5569 160.732 17.1777C160.732 17.7259 160.659 18.3218 160.514 18.9654C159.979 21.3966 158.678 23.2439 156.611 24.5072C154.57 25.7466 151.835 26.3664 148.407 26.3664Z" fill="#FF0420"/>
        <path d="M165.571 26.0088C165.303 26.0088 165.096 25.9254 164.95 25.7586C164.805 25.5916 164.755 25.3772 164.805 25.115L169.837 1.87516C169.885 1.61297 170.019 1.39845 170.239 1.2316C170.457 1.06475 170.7 0.981323 170.968 0.981323H174.906C175.49 0.981323 175.867 1.24352 176.037 1.7679L180.012 13.0303L188.873 1.7679C188.995 1.57722 189.166 1.39845 189.384 1.2316C189.627 1.06475 189.918 0.981323 190.259 0.981323H194.234C194.502 0.981323 194.709 1.06475 194.854 1.2316C194.952 1.37461 195 1.51763 195 1.66064C195 1.73215 194.988 1.80366 194.964 1.87516L189.931 25.115C189.882 25.3772 189.748 25.5916 189.53 25.7586C189.311 25.9254 189.08 26.0088 188.837 26.0088H184.424C184.157 26.0088 183.95 25.9254 183.804 25.7586C183.682 25.5678 183.646 25.3534 183.695 25.115L186.54 11.9219L180.96 19.1799C180.717 19.4421 180.485 19.6447 180.267 19.7877C180.049 19.9307 179.793 20.0023 179.501 20.0023H177.605C177.094 20.0023 176.741 19.7281 176.548 19.1799L173.958 11.6001L171.041 25.115C170.992 25.3772 170.858 25.5916 170.639 25.7586C170.421 25.9254 170.189 26.0088 169.946 26.0088H165.571Z" fill="#FF0420"/>
    </g>
    <defs>
        <clipPath id="clip0_104_125">
            <rect width="195" height="25.7426" fill="white" transform="translate(0 0.623779)"/>
        </clipPath>
    </defs>
</svg>