<svg width="185" height="41" viewBox="0 0 185 41" fill="none" xmlns="http://www.w3.org/2000/svg">
    <g clip-path="url(#clip0_3_214)">
        <path d="M72.3764 13.2688C73.5113 13.9372 74.4717 14.8563 75.0827 16.1096C75.7811 17.3629 76.1304 18.8669 76.1304 20.5378C76.1304 22.2089 75.7811 23.6294 74.9954 24.8826C74.297 26.1359 73.2493 27.0551 71.9397 27.6398C70.6302 28.3083 69.0586 28.6426 67.4 28.6426C66.4396 28.6426 65.5664 28.4753 64.6934 28.1413C63.8203 27.8906 63.0346 27.3891 62.4234 26.8044V35.4939H57.3597V12.6004H61.7249L62.1616 14.4385C64.0822 12.9346 66.1776 12.1826 68.3602 12.1826C69.8443 12.1826 71.2412 12.5168 72.3764 13.2688ZM69.5826 23.6294C70.4555 22.8774 70.892 21.8747 70.892 20.6214C70.892 19.3682 70.4555 18.3656 69.6698 17.53C68.8841 16.6945 67.8364 16.3603 66.7015 16.3603C65.7411 16.3603 64.868 16.5274 64.1695 16.9451C63.4711 17.2793 62.9473 17.8642 62.5108 18.6162V22.376C62.7726 23.1281 63.2965 23.7128 63.9077 24.1307C64.6062 24.5484 65.3919 24.799 66.3523 24.799C67.6617 24.799 68.7094 24.3813 69.5826 23.6294Z" fill="#212121"/>
        <path d="M79.0985 16.1915C79.8844 15.0218 80.9319 14.0191 82.3288 13.3507C83.7257 12.6823 85.2973 12.2645 87.0434 12.2645C88.7895 12.2645 90.3609 12.5987 91.7578 13.3507C93.0675 14.0191 94.1151 15.0218 94.9008 16.2751C95.6866 17.5284 96.0358 18.8652 96.0358 20.4527C96.0358 22.0402 95.6866 23.3771 94.9008 24.6303C94.1151 25.8836 93.1547 26.8862 91.7578 27.5547C90.4482 28.223 88.7895 28.6409 87.0434 28.6409C85.2973 28.6409 83.7257 28.3066 82.3288 27.6383C80.9319 26.9698 79.8844 26.0508 79.0985 24.7974C78.4001 23.5441 77.9636 22.1237 77.9636 20.4527C77.9636 18.8652 78.4001 17.4448 79.0985 16.1915ZM84.2496 23.4605C84.9481 24.2961 85.9085 24.6303 87.0434 24.6303C88.1783 24.6303 89.1387 24.2126 89.8372 23.4605C90.5356 22.7086 90.8849 21.6224 90.8849 20.4527C90.8849 19.1995 90.5356 18.1968 89.8372 17.4448C89.0513 16.6093 88.1783 16.1915 86.9561 16.1915C85.821 16.1915 84.9481 16.6093 84.1624 17.3612C83.4639 18.1968 83.1147 19.1995 83.1147 20.4527C83.1147 21.6224 83.4639 22.6251 84.2496 23.4605Z" fill="#212121"/>
        <path d="M104.243 0.735229V28.2241H99.1797V0.735229H104.243Z" fill="#212121"/>
        <path d="M125.021 13.0171L114.719 35.5763H109.83L113.672 27.4717L106.338 13.0171H112.1L116.291 22.0407L120.482 13.0171H125.021Z" fill="#212121"/>
        <path d="M144.402 13.0165V28.223C144.402 29.6435 143.966 30.9803 143.093 32.1502C142.22 33.3198 141.085 34.239 139.601 34.9073C138.116 35.5758 136.545 35.9099 134.799 35.9099C133.489 35.9099 132.354 35.7429 131.394 35.4922C130.433 35.1579 129.648 34.8237 129.037 34.4896C128.338 34.0717 127.64 33.5704 126.854 32.9021L129.822 29.5599C130.521 30.2284 131.307 30.7297 132.005 31.0639C132.704 31.398 133.664 31.6487 134.712 31.6487C136.021 31.6487 137.069 31.3146 137.942 30.7297C138.815 30.1448 139.251 29.2258 139.251 28.1396V25.9672C138.728 26.7191 138.029 27.3876 136.981 27.8889C135.934 28.3902 134.712 28.6409 133.315 28.6409C131.918 28.6409 130.521 28.3066 129.299 27.5547C128.076 26.8862 127.116 25.8836 126.33 24.6303C125.632 23.3771 125.195 22.0402 125.195 20.5363C125.195 19.0323 125.545 17.6119 126.33 16.3586C127.116 15.1053 128.076 14.1027 129.386 13.3507C130.608 12.5987 131.918 12.2645 133.315 12.2645C134.624 12.2645 135.759 12.4316 136.807 12.7658C137.854 13.1001 138.64 13.6014 139.164 14.1863L139.688 13.0165H144.402ZM139.251 22.3745V18.6146C138.902 17.8626 138.378 17.2777 137.593 16.8599C136.807 16.4422 135.934 16.1915 134.886 16.1915C133.664 16.1915 132.616 16.6093 131.743 17.3612C130.87 18.1132 130.433 19.1159 130.433 20.3691C130.433 21.5389 130.87 22.6251 131.743 23.4605C132.616 24.2961 133.664 24.7139 134.886 24.7139C136.894 24.6303 138.378 23.8784 139.251 22.3745Z" fill="#212121"/>
        <path d="M148.595 16.1931C149.38 14.9399 150.428 14.0208 151.825 13.2688C153.222 12.6004 154.793 12.1826 156.539 12.1826C158.286 12.1826 159.857 12.5168 161.254 13.2688C162.564 13.9372 163.611 14.9399 164.397 16.1931C165.095 17.4464 165.532 18.7833 165.532 20.3708C165.532 21.9583 165.183 23.2951 164.397 24.5484C163.698 25.8016 162.651 26.8044 161.254 27.4727C159.944 28.1413 158.286 28.5589 156.539 28.5589C154.793 28.5589 153.222 28.2247 151.825 27.5563C150.428 26.8878 149.38 25.9688 148.595 24.7156C147.809 23.4622 147.46 22.0419 147.46 20.2872C147.46 18.8669 147.809 17.4464 148.595 16.1931ZM153.658 23.4622C154.357 24.2977 155.317 24.632 156.452 24.632C157.587 24.632 158.547 24.2141 159.246 23.4622C159.944 22.7102 160.293 21.624 160.293 20.4544C160.293 19.201 159.944 18.1984 159.246 17.4464C158.547 16.6945 157.587 16.2767 156.452 16.2767C155.317 16.2767 154.444 16.6945 153.658 17.4464C152.873 18.1984 152.523 19.2846 152.523 20.4544C152.611 21.624 152.96 22.6266 153.658 23.4622Z" fill="#212121"/>
        <path d="M183.43 13.5178C184.478 14.3533 184.913 15.4395 185 16.7764V28.223H179.85V18.6146C179.763 17.1106 178.977 16.3586 177.492 16.3586C176.358 16.3586 175.397 16.8599 174.699 17.9461C174 19.0323 173.651 20.3691 173.651 21.9566V28.223H168.587V13.0165H173.215L173.564 15.4395C174.175 14.4369 174.961 13.6849 176.008 13.1001C177.056 12.5152 178.278 12.2645 179.675 12.2645C181.159 12.2645 182.469 12.6823 183.43 13.5178Z" fill="#212121"/>
        <path d="M35.7079 12.7677C34.8347 12.2664 33.6998 12.2664 32.7396 12.7677L25.9296 16.6111L21.3025 19.1178L14.4927 22.9611C13.6196 23.4624 12.4847 23.4624 11.5243 22.9611L6.11138 19.9531C5.23832 19.4518 4.62719 18.5329 4.62719 17.5302V11.598C4.62719 10.5953 5.15102 9.67624 6.11138 9.17493L11.437 6.25059C12.3101 5.74927 13.445 5.74927 14.4054 6.25059L19.731 9.17493C20.604 9.67624 21.2152 10.5953 21.2152 11.598V15.4414L25.8424 12.8513V9.00784C25.8424 8.00519 25.3186 7.08611 24.3582 6.58479L14.4927 1.07032C13.6196 0.569007 12.4847 0.569007 11.5243 1.07032L1.48419 6.58479C0.523832 7.08611 0 8.00519 0 9.00784V20.1204C0 21.123 0.523832 22.0421 1.48419 22.5434L11.5243 28.0579C12.3973 28.5592 13.5323 28.5592 14.4927 28.0579L21.3025 24.298L25.9296 21.7079L32.7396 17.948C33.6125 17.4466 34.7475 17.4466 35.7079 17.948L41.0335 20.8723C41.9065 21.3736 42.5177 22.2928 42.5177 23.2954V29.2275C42.5177 30.2303 41.9939 31.1493 41.0335 31.6506L35.7079 34.6585C34.8347 35.1598 33.6998 35.1598 32.7396 34.6585L27.414 31.7342C26.5408 31.2329 25.9296 30.3137 25.9296 29.3111V25.4678L21.3025 28.0579V31.9012C21.3025 32.9038 21.8264 33.823 22.7866 34.3243L32.8268 39.8387C33.6998 40.34 34.8347 40.34 35.7952 39.8387L45.8354 34.3243C46.7083 33.823 47.3195 32.9038 47.3195 31.9012V20.7887C47.3195 19.7861 46.7956 18.8671 45.8354 18.3658L35.7079 12.7677Z" fill="#8247E5"/>
    </g>
    <defs>
        <clipPath id="clip0_3_214">
            <rect width="185" height="39.604" fill="white" transform="translate(0 0.653442)"/>
        </clipPath>
    </defs>
</svg>