<svg xmlns="http://www.w3.org/2000/svg" width="72" height="73" viewBox="0 0 72 73">
    <g fill="none" fill-rule="evenodd">
        <g fill="#001428" fill-rule="nonzero">
            <path d="M490.347 2185.404c.013.194-.011.383-.067.558l-.045.12.099.231c.203.51.339 1.053.412 1.624l.031.288c.113 1.252-.062 2.545-.418 3.81-.063.225-.126.43-.188.615l-.118.34-.109.28-.048.115c-.276.633-.894.942-1.492.898.057.571.086 1.154.086 1.744 0 1.388-.159 2.735-.457 4.018 1.894 4.236 2.947 8.931 2.947 13.872 0 18.789-15.231 34.02-34.02 34.02s-34.02-15.231-34.02-34.02l.005-.438c-2.544-3.736-3.951-8.196-3.945-12.832 0-13.02 8.261-19.96 18.59-19.96 2.798 0 5.394.43 7.727 1.255 3.632-1.323 7.553-2.045 11.643-2.045 1.326 0 2.635.076 3.922.224.935-.827 2.033-1.261 3.22-1.136l.272.039.097-.094c.469-.444 1.075-.928 1.826-1.41l.289-.181c2.273-1.389 5.087-2.248 8.456-2.331 8.326-.21 14.864 4.013 15.305 10.396zm-28.87 53.382c-2.203 1.868-6.79 1.805-9.016.175l.12-.029c-.5.11-1.068.29-1.69.558-1.625.698-3.276 1.835-4.839 3.473 3.394 1.277 7.07 1.974 10.908 1.974 3.888 0 7.609-.715 11.038-2.021l.159.228c-.659-1.004-1.58-1.869-2.71-2.6l-.313-.195c-.967-.585-2.015-1.042-3.063-1.383l-.205-.065-.39-.115zm-27.37-16.497c-.281.075-.652.2-1.103.391-1.413.603-2.978 1.647-4.656 3.24 2.885 6.868 8.168 12.477 14.802 15.78 2.082-2.392 4.316-4.003 6.555-4.966.719-.31 1.364-.524 1.917-.665.19-1.087.137-2.207-.158-3.278-3.572-1.87-6.275-5.51-7.297-9.92-.332.212-.74.288-1.135.2-.244-.055-.513-.145-.798-.279-2.368 1.189-6.187.916-8.127-.503zm45.491-6.032c-.984.876-2.434 1.33-4.062 1.402-.507 1.97-1.513 3.51-2.894 4.633-1.135.924-2.274 1.403-3.16 1.596-1.206 4.043-3.855 7.332-7.261 9.025-.041 1.01.02 2.02.18 3.018l.116.032c.152.046.313.095.48.15 1.254.407 2.508.955 3.69 1.669 1.656 1.001 3.032 2.25 4.018 3.778l.082.133c8.136-4.059 14.24-11.587 16.37-20.647-.805-1.117-1.94-2.095-3.331-2.934-1.092-.658-2.272-1.19-3.453-1.602-.273-.096-.532-.18-.775-.253zm-24.9 17.68l.02.261c.044.785 0 1.573-.132 2.35l-.034.174.05.022c.497.204 1.301.392 2.166.43l.217.006c1.13.014 2.01-.224 2.446-.553l.038-.034-.068-.43c-.108-.737-.17-1.48-.188-2.225-.732.144-1.484.219-2.253.219-.772 0-1.528-.075-2.262-.22zm-5.795-20.651l-.051.205c-.167.63-.358 1.253-.572 1.87l-.222.612-.21.536-.153.446c-.275.771-.6 1.522-.972 2.249l.01.366c.278 6.497 4.803 11.587 10.227 11.587 5.257 0 9.67-4.782 10.189-10.992-.043-.123-.093-.246-.148-.367-.407-.89-1.045-1.554-2.017-1.965-.746-.323-1.356-.53-1.99-.685l-.182-.044-.188-.04-.404-.08-.462-.08-2.368-.364-1.114-.184-.46-.081-.942-.177-.487-.096-1.01-.208-1.07-.234c-2.098-.478-3.74-1.173-4.984-1.984l-.26-.176-.16-.114zm-16.264 2.449l-.175.326c-.09.16-.182.32-.277.48-.554.873-1.218 1.671-1.976 2.375-.527.49-1.327.536-1.908.111-.773-.567-1.505-1.178-2.192-1.828.206 1.95.591 3.846 1.14 5.67 1.59-1.365 3.124-2.328 4.575-2.948.552-.235 1.049-.405 1.483-.521.193-1.122.141-2.276-.155-3.381-.175-.09-.346-.186-.515-.284zm3.745 1.429l.025.335c.043.82-.007 1.644-.15 2.456l-.025.126.023.01c.402.172 1.012.338 1.702.412l.21.02c.546.042 1.069.023 1.532-.046-.538-.844-.935-1.867-1.166-3.09h.135c-.78 0-1.544-.077-2.286-.223zm20.026-16.867c-8.703 0-15.446 5.48-15.038 15.813.164 1.563.638 2.63 1.303 3.33l.13.132.128.117.083-.116c.67-.973 1.228-2.02 1.663-3.12l.179-.474.146-.427.269-.696c.597-1.6 1.014-3.263 1.24-4.958.196-1.46 2.131-1.773 2.802-.525l.05.102c.145.274.45.656.967 1.086l.18.145c1.036.806 2.494 1.48 4.456 1.927l1.017.223.959.198.913.178.878.16.491.083 3.03.47.527.092.475.094c.153.032.3.066.448.102.803.196 1.573.459 2.458.842 1.688.714 2.861 1.934 3.566 3.478.192.42.342.842.456 1.257l.079.31.036.171.214-.146.234-.18c1.321-1.075 2.132-2.757 2.162-5.237-.33-8.125-7.594-14.431-16.5-14.431zm30.033 3.95l-.136.244c-1.438 2.537-3.505 4.563-5.957 5.777-.043 1.05.022 2.102.19 3.14l.35.11.471.16c1.365.475 2.73 1.09 4.014 1.865.885.534 1.696 1.122 2.42 1.769.123-1.115.185-2.247.185-3.395 0-3.376-.54-6.627-1.537-9.67zm-48.853-20.56c-8.776 0-15.59 5.724-15.59 16.962-.008 5.767 2.503 11.22 6.824 14.96l.212.18.168-.209c.077-.1.15-.201.222-.303l.206-.309c.208-.347.4-.703.576-1.067-2.969-2.815-4.848-7.08-4.848-11.824 0-.593.03-1.178.087-1.754-.34-.214-.593-.566-.672-.994-.15-.814.388-1.597 1.203-1.747 1.192-.22 2.303-.752 3.222-1.538l.225-.202.08-.07c1.749-1.416 3.106-3.256 3.943-5.343.517-1.29 2.33-1.23 2.795.025l.078.245.023.063.097.227c.059.127.134.276.227.443l.183.311c.1.165.216.344.348.536 1.012 1.468 2.545 2.989 4.66 4.432 1.818 1.123 3.796 1.949 5.858 2.453 2.024-.97 4.286-1.567 6.69-1.78-1.437-8.711-7.789-13.697-16.817-13.697zm39.75 27.61c-.603.12-1.222.195-1.852.22.23 1 .372 2.035.419 3.096.748-.093 1.34-.307 1.673-.581l.021-.02-.071-.445c-.11-.752-.172-1.51-.19-2.27zm-42.464-17.108l-.123.195c-.833 1.273-1.844 2.427-3.006 3.424l-.31.259-.224.202c-.806.701-1.717 1.265-2.696 1.672-.104.692-.157 1.406-.157 2.136 0 6.728 4.512 12.12 10.018 12.305.215-5.812 2.494-10.227 6.014-13.112-1.44-.537-2.835-1.22-4.167-2.044-2.33-1.588-4.06-3.261-5.275-4.932l-.074-.105zm32.172-5.312l-.033.207c-.04.24-.084.478-.13.717l-.147.718c-.475 1.966-1.158 3.568-2.19 4.812-.013.23-.018.462-.018.696 0 1.042.107 2.052.307 3.017 4.352 1.909 7.823 5.265 9.657 9.465.17.013.343.018.516.018 5.732 0 10.48-5.55 10.48-12.5 0-1.357-.18-2.66-.514-3.879-.306-.06-.649-.104-1.036-.136l-.443-.03-.236-.011-.501-.015-.543-.007-.587.003-.632.01-1.875.045-.71.01-.654.001-.606-.007c-.293-.006-.572-.017-.842-.03l-.53-.035-.517-.046c-.17-.017-.341-.037-.512-.059l-.518-.072-.265-.041c-2.987-.486-5.02-1.259-6.797-2.745l-.124-.106zm-10.088-5.98c-2.662 0-5.247.335-7.712.966 4.358 2.82 7.294 7.427 8.185 13.459 1.446.068 2.852.28 4.2.621l-.041-.424-.063.028c-.658.28-1.424.057-1.828-.534-.28-.41-.653-1.126-1.012-2.138-.82-2.314-1.16-5.102-.757-8.324.161-1.297.497-2.521.971-3.592-.642-.042-1.29-.062-1.943-.062zm18.157-4.89c-2.833.07-5.135.773-6.967 1.892-.662.405-1.211.834-1.651 1.257l-.187.186-.139.148-.09.105-.028.035c-.394.532-1.087.739-1.702.522l-.13-.052c-1.198-.552-2.904 1.53-3.314 4.823-.323 2.583-.092 4.79.493 6.612l.114.337.065.176.132-.11c.956-.843 1.578-2.074 2.024-3.782l.077-.306c.321-1.487.525-2.997.608-4.515.077-1.4 1.86-1.938 2.699-.817 2.026 2.708 3.659 3.652 7.33 4.248l.457.07c.226.03.45.058.678.08l.46.04.237.016.489.025.518.015.558.006.605-.002 1.016-.017 1.53-.038.725-.01h.68c.111 0 .22.001.326.003l.621.015c1.907.069 3.248.321 4.308.91l.083.048.016-.108c.042-.345.06-.682.05-1.006l-.019-.319c-.068-.757-.298-1.365-.709-1.83-.975-1.117-1.733-1.473-3.58-1.762l-1.437-.207-.505-.081-.448-.083-.41-.088c-.397-.093-.764-.202-1.187-.347-.784-.27-1.2-1.123-.931-1.906.269-.784 1.122-1.2 1.906-.932l.16.054.309.096.309.083.16.038.338.072.38.069.68.105.552.078c1.072.147 1.942.315 2.696.564l.207.072-.032-.049c-1.885-2.788-5.99-4.563-11.13-4.433z" transform="translate(-419 -2175)"/>
        </g>
    </g>
</svg>
