<svg xmlns="http://www.w3.org/2000/svg" width="36" height="37" viewBox="0 0 36 37">
    <g fill="none">
        <path d="M0 0H36V36H0z"/>
        <path fill="#1DA1F2" d="M12.275 30.216c11.645 0 18.014-9.647 18.014-18.013 0-.274 0-.547-.019-.818 1.239-.897 2.309-2.006 3.159-3.277-1.156.512-2.382.847-3.637.996 1.322-.792 2.311-2.036 2.784-3.502-1.243.737-2.603 1.257-4.02 1.537-1.963-2.087-5.081-2.598-7.607-1.246-2.525 1.351-3.83 4.23-3.182 7.02-5.09-.256-9.833-2.66-13.048-6.615-1.68 2.893-.822 6.593 1.96 8.451-1.007-.03-1.993-.301-2.873-.792v.08c0 3.014 2.125 5.61 5.079 6.206-.932.254-1.91.291-2.859.109.83 2.579 3.206 4.345 5.915 4.396-2.242 1.762-5.011 2.719-7.863 2.716-.503-.001-1.006-.032-1.507-.092 2.896 1.858 6.264 2.844 9.704 2.84"/>
    </g>
</svg>
